<?xml version="1.0" encoding="UTF-8"?>
<svg version="1.1" xmlns="http://www.w3.org/2000/svg" width="512" height="512">
<path d="M0 0 C0.91942383 0.00215515 1.83884766 0.0043103 2.78613281 0.00653076 C17.15916193 0.06043585 31.22652869 0.57098737 45.375 3.3125 C46.91800781 3.61051514 46.91800781 3.61051514 48.4921875 3.91455078 C87.61689512 11.74301071 121.77875513 27.65511016 154.375 50.3125 C154.38958252 49.16249512 154.40416504 48.01249023 154.41918945 46.82763672 C154.47733762 42.54461195 154.55456924 38.26210384 154.63745117 33.97949219 C154.67062296 32.12899181 154.69867887 30.27839214 154.72143555 28.42773438 C154.7551245 25.76128997 154.8074466 23.0957491 154.86328125 20.4296875 C154.86967117 19.60757782 154.8760611 18.78546814 154.88264465 17.93844604 C155.0075515 13.01417399 155.67305821 9.58520627 158.375 5.3125 C163.55183002 0.64072657 166.76853498 -0.0353341 173.609375 0.02734375 C178.4223343 0.5235952 181.09034029 2.85064585 184.1875 6.375 C186.63536453 10.36888424 186.53476815 14.16134163 186.55200195 18.6862793 C186.55857315 19.43464554 186.56514435 20.18301178 186.57191467 20.95405579 C186.59162938 23.43161117 186.60330773 25.90910591 186.61328125 28.38671875 C186.61735678 29.23452219 186.6214323 30.08232563 186.62563133 30.95582008 C186.64648681 35.44539775 186.66078935 39.93494493 186.67016602 44.42456055 C186.68121415 49.05028292 186.71559688 53.6755221 186.75533772 58.30107403 C186.78155101 61.86742515 186.78986214 65.43366211 186.79344749 69.00010109 C186.79830327 70.70445828 186.8098884 72.40881071 186.82848549 74.11307335 C187.00413895 91.28079055 187.00413895 91.28079055 182.375 97.3125 C177.31642001 100.78877697 173.51626552 101.90023843 167.34765625 101.83007812 C166.19256058 101.84059204 166.19256058 101.84059204 165.01412964 101.85131836 C162.48821116 101.86881248 159.96342833 101.85730695 157.4375 101.84375 C155.67065213 101.8464474 153.90380571 101.85033188 152.13696289 101.85534668 C148.44175015 101.86123008 144.74692531 101.85271634 141.05175781 101.83398438 C136.32730733 101.81119535 131.60376592 101.82432468 126.87934875 101.84827423 C123.23320733 101.86276367 119.58727963 101.85811185 115.94113159 101.84776306 C114.19969575 101.84510446 112.45824018 101.84833491 110.71682739 101.85768127 C108.2781472 101.86789917 105.84091662 101.85227451 103.40234375 101.83007812 C102.69044891 101.83817505 101.97855408 101.84627197 101.24508667 101.85461426 C95.81049118 101.76348301 92.7716458 100.2752082 88.375 97.3125 C85.5096505 93.82955637 84.47237998 90.1193627 83.9375 85.6875 C84.61805832 80.43747866 86.36803268 76.98511163 90.3125 73.5 C94.85954359 70.25211172 98.35806552 70.17212973 103.890625 69.99609375 C105.14101563 69.95419922 106.39140625 69.91230469 107.6796875 69.86914062 C108.98164063 69.82982422 110.28359375 69.79050781 111.625 69.75 C113.60113281 69.68522461 113.60113281 69.68522461 115.6171875 69.61914062 C118.86968788 69.51308083 122.12226392 69.41101976 125.375 69.3125 C87.30457465 45.52529867 46.20196681 31.83066996 1.0625 31.9375 C0.19159729 31.93804382 -0.67930542 31.93858765 -1.57659912 31.93914795 C-61.82869606 32.11112777 -115.21490123 56.40214007 -158.625 97.3125 C-159.3571875 98.00214844 -160.089375 98.69179687 -160.84375 99.40234375 C-166.2532467 104.65084353 -170.9712603 110.39173186 -175.625 116.3125 C-176.3571875 117.23933594 -177.089375 118.16617188 -177.84375 119.12109375 C-204.89535637 154.22150553 -223.43707983 199.66248151 -223.86328125 244.3671875 C-223.8730751 245.21787308 -223.88286896 246.06855865 -223.89295959 246.94502258 C-224.06794283 266.10269248 -223.7903624 284.52337302 -219.625 303.3125 C-219.42132813 304.26995117 -219.21765625 305.22740234 -219.0078125 306.21386719 C-212.97968935 333.87067295 -201.31699329 361.36519059 -184.625 384.3125 C-183.93019531 385.27929688 -183.23539062 386.24609375 -182.51953125 387.2421875 C-170.24736233 403.96709028 -156.29087324 419.75825059 -139.859375 432.515625 C-134.78523383 436.59622804 -132.80479674 439.28642353 -131.75390625 445.71484375 C-131.46920116 451.45208263 -133.48729222 455.00829839 -137.1875 459.25 C-141.14517497 462.15426397 -145.81676568 462.76437518 -150.625 462.3125 C-156.11346047 460.4368564 -159.89914394 457.77900949 -164.1875 453.9375 C-164.78248291 453.41510742 -165.37746582 452.89271484 -165.99047852 452.35449219 C-167.87987218 450.68593674 -169.7542243 449.00189054 -171.625 447.3125 C-172.24987305 446.75079102 -172.87474609 446.18908203 -173.51855469 445.61035156 C-180.29570811 439.49507079 -186.80443954 433.35981535 -192.625 426.3125 C-193.79675781 424.98992187 -193.79675781 424.98992187 -194.9921875 423.640625 C-207.93968854 408.954158 -218.68721608 392.70583979 -227.625 375.3125 C-228.23504883 374.15306885 -228.23504883 374.15306885 -228.85742188 372.97021484 C-240.36875097 350.9397578 -248.13101825 326.7316617 -252.625 302.3125 C-252.86621582 301.11149658 -252.86621582 301.11149658 -253.11230469 299.88623047 C-258.58841256 271.89033464 -258.47207699 238.22927188 -252.625 210.3125 C-252.42632324 209.33764648 -252.22764648 208.36279297 -252.02294922 207.35839844 C-239.56286762 147.79267502 -207.6726363 91.43883581 -158.625 54.3125 C-158.08617187 53.89726074 -157.54734375 53.48202148 -156.9921875 53.05419922 C-146.99570531 45.36912336 -136.53489551 38.62521939 -125.625 32.3125 C-124.94775879 31.91820801 -124.27051758 31.52391602 -123.57275391 31.11767578 C-86.0746995 9.54962634 -42.98272108 -0.18241124 0 0 Z " fill="#22CE6A" transform="translate(255.625,-0.3125)"/>
<path d="M0 0 C4.004793 2.0023965 6.6587028 4.17998877 9 8 C10.00122171 11.00366514 10.12112011 12.97739593 10.11352539 16.11401367 C10.11344986 17.15486618 10.11337433 18.19571869 10.11329651 19.26811218 C10.10813522 20.39006485 10.10297394 21.51201752 10.09765625 22.66796875 C10.0962413 23.81791824 10.09482635 24.96786774 10.09336853 26.15266418 C10.08776429 29.83096908 10.07521104 33.50921345 10.0625 37.1875 C10.05748555 39.67903558 10.05292255 42.17057211 10.04882812 44.66210938 C10.03779347 50.77476029 10.02105118 56.88737582 10 63 C10.80099121 62.65428955 11.60198242 62.3085791 12.42724609 61.95239258 C13.49023926 61.50017334 14.55323242 61.0479541 15.6484375 60.58203125 C17.22117432 59.90877808 17.22117432 59.90877808 18.82568359 59.22192383 C32.37426589 54.00652202 47.41769761 55.11175161 60.90234375 60.06640625 C72.35427826 65.41299509 79.7243364 73.96682497 84.4765625 85.62109375 C89.50582988 99.61247639 90.32351611 113.17550417 90.3359375 127.8984375 C90.34237767 129.70537416 90.34910691 131.51230982 90.35610962 133.31924438 C90.36800896 137.08280865 90.37179739 140.84628156 90.37060547 144.60986328 C90.37040113 149.42499612 90.39785428 154.23954641 90.43214989 159.05454063 C90.45439463 162.77607919 90.45844398 166.49747602 90.45738602 170.21907425 C90.4597398 171.99484923 90.46855077 173.77062824 90.48405075 175.54633713 C90.50368961 178.02528821 90.49788486 180.50296111 90.48583984 182.98193359 C90.49707886 183.70826996 90.50831787 184.43460632 90.51989746 185.18295288 C90.45752512 190.24522104 89.16545411 193.09331167 86 197 C80.77740143 201.05630398 75.34659858 200.77397544 69 200 C64.48665736 197.86210085 62.05714674 195.547377 60 191 C59.08123675 186.57753584 58.86588886 182.35038431 58.84228516 177.83984375 C58.83720444 177.14944504 58.83212372 176.45904633 58.82688904 175.74772644 C58.81623906 174.25657389 58.80759811 172.7654059 58.80076981 171.27423096 C58.788878 168.9006753 58.76939628 166.52729335 58.74765015 164.15380859 C58.68640462 157.40777525 58.63224139 150.66175964 58.59863281 143.91552734 C58.57747548 139.77816299 58.54200491 135.64111698 58.49787521 131.50393677 C58.48387633 129.94137361 58.47502995 128.37875416 58.47182083 126.81613159 C58.76577116 108.15795941 58.76577116 108.15795941 51 92 C46.51850465 88.06171621 40.74828696 87.87383732 35 88 C27.42345766 89.32382643 21.90236145 93.08394819 17.375 99.3125 C11.38390696 109.86518824 10.41438327 122.41084573 10.48357964 134.28680801 C10.49650631 136.5164729 10.48466398 138.74495272 10.46754456 140.97457886 C10.44119804 144.89468795 10.43523642 148.81449214 10.43664551 152.73468018 C10.4388999 159.04102375 10.42461851 165.34699666 10.38105965 171.65319443 C10.37128886 173.83916089 10.37989214 176.02452655 10.38975525 178.21047974 C10.38361093 179.55324694 10.37669916 180.89601094 10.36889648 182.23876953 C10.36985825 183.40296417 10.37082001 184.56715881 10.37181091 185.76663208 C9.79988117 190.74028728 8.14001732 193.97120388 4.4375 197.3125 C-0.52741379 200.74974801 -5.07661774 200.58647349 -11 200 C-16.1774289 197.64662323 -18.78557471 194.14279555 -21 189 C-21.50336456 185.37832642 -21.50336456 185.37832642 -21.50793457 181.44775391 C-21.51729451 180.35588241 -21.51729451 180.35588241 -21.52684355 179.2419529 C-21.5427096 176.81981971 -21.53019524 174.39870189 -21.51757812 171.9765625 C-21.52300211 170.23320939 -21.53012633 168.48986087 -21.53881836 166.746521 C-21.55702177 162.02336087 -21.54999652 157.30055104 -21.53730202 152.57738495 C-21.5271589 147.62921724 -21.53657134 142.68107907 -21.54284668 137.73291016 C-21.55011926 129.424099 -21.54054559 121.11543016 -21.52148438 112.80664062 C-21.4997164 103.20725664 -21.50676804 93.6082125 -21.52879 84.00883675 C-21.54695508 75.75979267 -21.54949689 67.51085076 -21.53903532 59.26179314 C-21.5328065 54.33814805 -21.53194797 49.4146626 -21.54518127 44.49102783 C-21.55675527 39.86157613 -21.54868577 35.23256163 -21.52560425 30.60315704 C-21.52032543 28.90646337 -21.52181678 27.20973276 -21.53065491 25.51305389 C-21.54162729 23.19229174 -21.52782828 20.87292024 -21.50793457 18.55224609 C-21.50642647 17.25515717 -21.50491837 15.95806824 -21.50336456 14.62167358 C-20.73601359 9.10063585 -18.51393072 5.44008044 -14.4375 1.5625 C-9.56707814 -0.65132812 -5.26580112 -0.78360136 0 0 Z " fill="#22CE6A" transform="translate(276,155)"/>
<path d="M0 0 C1.08849747 -0.00524185 2.17699493 -0.0104837 3.29847717 -0.0158844 C5.59733224 -0.02229943 7.89622015 -0.02097436 10.19506836 -0.01245117 C13.7068139 -0.00394463 17.21693083 -0.03270637 20.72851562 -0.06445312 C22.96484326 -0.06606537 25.20117378 -0.06548716 27.4375 -0.0625 C29.00805397 -0.07935097 29.00805397 -0.07935097 30.6103363 -0.09654236 C36.65998544 -0.03889424 40.17311859 0.40889185 44.78515625 4.43359375 C48.76081114 8.95761484 48.93259404 13.08873729 48.92559814 18.89118958 C48.92856927 19.6572273 48.93154039 20.42326502 48.93460155 21.21251601 C48.94329443 23.78727751 48.94479729 26.36199255 48.94628906 28.93676758 C48.95091681 30.77966919 48.95594141 32.62256983 48.96133423 34.46546936 C48.97446422 39.47793105 48.98090433 44.49037934 48.98534489 49.50285554 C48.98827459 52.63350941 48.9923792 55.76415961 48.99684906 58.89481163 C49.01052545 68.68719936 49.02019146 78.47957872 49.02405095 88.27197534 C49.02853247 99.5809093 49.04608417 110.88972244 49.07505155 122.19861966 C49.09665798 130.93670838 49.10675467 139.67476307 49.10809207 148.41287822 C49.10914082 153.63332459 49.11506364 158.85365741 49.13291168 164.0740757 C49.14937442 168.98489641 49.15155659 173.89551798 49.14277267 178.80635643 C49.14200134 180.60829577 49.14635767 182.41024574 49.15623093 184.2121582 C49.16892523 186.67335876 49.16308758 189.13385137 49.15264893 191.595047 C49.16473353 192.6630093 49.16473353 192.6630093 49.17706227 193.75254661 C49.13127397 198.37299848 48.20717615 201.50640416 45.78515625 205.43359375 C40.60832623 210.10536718 37.39162127 210.78142785 30.55078125 210.71875 C25.73782195 210.22249855 23.06981596 207.8954479 19.97265625 204.37109375 C17.57805309 200.46410964 17.6615792 197.13903402 17.66490173 192.65693665 C17.66404731 191.96425302 17.66319288 191.2715694 17.66231257 190.55789536 C17.66066254 188.23168602 17.66617135 185.90554843 17.67163086 183.5793457 C17.67191286 181.91389976 17.67175475 180.24845369 17.67118835 178.58300781 C17.67090088 174.05645947 17.67678954 169.52993752 17.68376231 165.00339532 C17.69000416 160.27482247 17.69060031 155.54624906 17.69178772 150.81767273 C17.69489857 141.86106866 17.70310867 132.90447677 17.71313721 123.94787806 C17.72430596 113.75211538 17.72981072 103.55635213 17.73483264 93.36058486 C17.74529147 72.38491435 17.76288618 51.40925482 17.78515625 30.43359375 C16.93808105 30.45454102 16.09100586 30.47548828 15.21826172 30.49707031 C12.05375232 30.5655343 8.88962234 30.61553362 5.72460938 30.65332031 C4.35892257 30.67334694 2.99332056 30.70057707 1.62792969 30.73535156 C-0.34271477 30.78425807 -2.31400358 30.80450722 -4.28515625 30.82421875 C-5.46867676 30.84516602 -6.65219727 30.86611328 -7.87158203 30.88769531 C-12.84726594 30.21186852 -16.00919289 27.98590109 -19.0625 24.0546875 C-21.15053056 19.30530272 -20.83405332 14.51111224 -20.21484375 9.43359375 C-15.82658828 0.16949886 -9.25726504 -0.02590507 0 0 Z " fill="#22CE6A" transform="translate(166.21484375,144.56640625)"/>
<path d="M0 0 C1.7981715 0.68236005 3.61185026 1.32367522 5.42871094 1.95458984 C10.98490018 3.93179232 13.87888801 5.85044803 17.15527344 10.81787109 C18.51209793 14.88834456 18.67999598 18.56178827 18.15527344 22.81787109 C15.94060493 27.16518334 13.34805948 30.30219947 9.15527344 32.81787109 C1.65891502 34.90419734 -4.5527941 32.80491853 -11.65722656 30.25537109 C-12.71586914 29.88694092 -13.77451172 29.51851074 -14.86523438 29.13891602 C-34.73691543 22.08407144 -34.73691543 22.08407144 -39.84472656 14.81787109 C-41.50499117 9.83707726 -41.44376081 5.5151348 -39.71972656 0.63037109 C-37.06322659 -3.35437887 -34.19240273 -6.53877534 -29.40722656 -7.85009766 C-19.57381354 -9.12424416 -8.98133842 -3.46105598 0 0 Z " fill="#22CE6A" transform="translate(184.8447265625,469.18212890625)"/>
<path d="M0 0 C5.89779501 2.78804855 8.80061393 6.98176193 11.14770508 12.88818359 C12.379949 16.36833295 13.54436037 19.86460087 14.6875 23.375 C15.09033203 24.56867188 15.49316406 25.76234375 15.90820312 26.9921875 C21.5375471 44.04051902 21.5375471 44.04051902 18 52 C15.03086403 55.16898167 11.53154773 58.73671904 7.046875 59.203125 C1.91960816 59.3077631 -1.61596369 58.95667565 -6 56 C-9.42876161 52.28312833 -11.20151408 48.48801893 -12.796875 43.7578125 C-13.0353717 43.07121552 -13.27386841 42.38461853 -13.51959229 41.67721558 C-14.01858232 40.23168753 -14.51246082 38.78438588 -15.00146484 37.33544922 C-15.7471848 35.13331339 -16.51493866 32.9397639 -17.28515625 30.74609375 C-17.76957572 29.33379448 -18.25269228 27.92104751 -18.734375 26.5078125 C-19.07647003 25.5355925 -19.07647003 25.5355925 -19.42547607 24.54373169 C-21.08177408 19.55850479 -21.81737412 14.82234477 -20.3359375 9.70703125 C-15.82178078 0.80716943 -9.73345829 -1.42157811 0 0 Z " fill="#22CE6A" transform="translate(485,151)"/>
<path d="M0 0 C3.96386932 2.52400226 5.88316405 5.45845633 7.515625 9.80859375 C8.51949241 17.37524435 5.65489611 23.72149112 2.640625 30.4765625 C2.23352295 31.40138428 1.8264209 32.32620605 1.40698242 33.27905273 C-7.4947377 53.28372876 -7.4947377 53.28372876 -14.171875 56.1640625 C-20.24788452 57.73314188 -24.63673723 57.42002589 -30.171875 54.1640625 C-33.50025235 50.745729 -36.14312459 47.21959229 -36.18945312 42.29589844 C-35.6533464 35.67287208 -33.34842671 30.53953753 -30.359375 24.6640625 C-29.47679173 22.88334384 -28.59527089 21.10209818 -27.71484375 19.3203125 C-27.28534424 18.46179688 -26.85584473 17.60328125 -26.41333008 16.71875 C-24.87005617 13.54297454 -23.47512537 10.31441058 -22.11474609 7.05664062 C-20.66112695 4.13886342 -18.66808058 2.21223118 -16.171875 0.1640625 C-11.02231036 -1.55245905 -5.14060038 -1.9785764 0 0 Z " fill="#22CE6A" transform="translate(489.171875,327.8359375)"/>
<path d="M0 0 C3.55748183 4.41990167 4.31757443 6.5714171 4.328125 12.21484375 C4.33099518 13.19790245 4.33099518 13.19790245 4.33392334 14.20082092 C4.33528423 15.5919737 4.33159442 16.98313921 4.32324219 18.37426758 C4.31269502 20.46140732 4.32305869 22.54765543 4.3359375 24.63476562 C4.36152135 47.52241732 4.36152135 47.52241732 -1.9375 54.5625 C-6.80223198 57.66215224 -12.38669009 57.15776112 -17.9375 56.5625 C-22.8221525 54.29462562 -25.66962562 51.4471525 -27.9375 46.5625 C-28.43314577 42.54846739 -28.14044429 38.59353078 -27.9375 34.5625 C-27.87899865 32.6914831 -27.82324135 30.82037932 -27.76953125 28.94921875 C-27.70197095 26.90359743 -27.63294596 24.85802398 -27.5625 22.8125 C-27.53196533 21.83031494 -27.50143066 20.84812988 -27.4699707 19.83618164 C-26.89650253 5.87311837 -26.89650253 5.87311837 -22.5 0.6875 C-15.32051868 -5.26621622 -7.4521177 -6.18367213 0 0 Z " fill="#22CE6A" transform="translate(507.9375,242.4375)"/>
<path d="M0 0 C4.21100288 2.05547873 6.48823111 4.89557268 8.34375 9.1640625 C9.61051431 13.92910971 9.00267451 18.39014966 6.68505859 22.70996094 C4.78603863 25.6079914 2.70367638 27.87167414 0.2578125 30.32421875 C-1.10827148 31.69416992 -1.10827148 31.69416992 -2.50195312 33.09179688 C-2.9749585 33.56061279 -3.44796387 34.02942871 -3.93530273 34.51245117 C-5.37133684 35.93779941 -6.7964142 37.37347304 -8.22070312 38.81054688 C-9.13529297 39.72255859 -10.04988281 40.63457031 -10.9921875 41.57421875 C-11.82145752 42.40123291 -12.65072754 43.22824707 -13.50512695 44.08032227 C-19.44369089 49.41885972 -23.33927092 51.07002578 -31.22265625 50.7578125 C-35.20519016 50.23264319 -37.22142059 49.22779816 -40.06640625 46.3828125 C-43.60690346 41.58635909 -44.515182 37.53033369 -43.81640625 31.65625 C-41.9226505 25.9158029 -37.94017827 22.09994073 -33.50390625 18.1953125 C-28.25772305 13.52851726 -23.31422388 8.6517543 -18.44140625 3.59765625 C-13.13111466 -1.35454002 -6.94513482 -2.07435029 0 0 Z " fill="#22CE6A" transform="translate(441.06640625,403.6171875)"/>
<path d="M0 0 C4.7344316 1.91391916 7.72684393 5.45368786 10 10 C10.54779262 15.85716722 10.71259303 21.19546785 7 26 C0.05749645 30.94765095 -7.686689 34.22847805 -15.5625 37.375 C-16.63435547 37.82488281 -17.70621094 38.27476562 -18.81054688 38.73828125 C-26.26040082 41.73644877 -32.4585192 43.62807802 -40.3125 40.8125 C-43.82770834 38.4417781 -46.10640381 35.78719238 -48 32 C-48.60297413 26.59300244 -48.75162837 21.23504508 -45.5402832 16.63305664 C-40.13498165 10.90218612 -30.1497218 8.26201046 -23 5.25 C-21.14564074 4.46399587 -19.29146458 3.67755961 -17.4375 2.890625 C-16.63183594 2.55063477 -15.82617188 2.21064453 -14.99609375 1.86035156 C-9.8794015 -0.34503291 -5.60764118 -0.44698589 0 0 Z " fill="#22CE6A" transform="translate(368,457)"/>
<path d="M0 0 C1.22897255 -0.00786278 1.22897255 -0.00786278 2.48277283 -0.0158844 C4.20473096 -0.0222733 5.92673292 -0.02100844 7.64868164 -0.01245117 C10.27374107 -0.00391796 12.89663807 -0.03278114 15.52148438 -0.06445312 C17.20182227 -0.06606492 18.88216399 -0.06548803 20.5625 -0.0625 C21.34077652 -0.07373398 22.11905304 -0.08496796 22.9209137 -0.09654236 C28.13773096 -0.03020652 31.05415396 1.0301721 35.21484375 4.43359375 C39.1522144 8.78542447 39.84907417 12.35092273 39.6015625 18.03515625 C38.82490632 22.85199357 36.18242767 25.53857862 32.71484375 28.74609375 C28.08258789 31.87286646 23.4319075 31.61931607 17.9765625 31.671875 C17.17757034 31.67994675 16.37857819 31.68801849 15.55537415 31.69633484 C13.86677193 31.71014116 12.17814222 31.72087869 10.48950195 31.72875977 C8.77001721 31.74028033 7.05056825 31.76073352 5.33129883 31.7902832 C2.83780792 31.83311353 0.34537632 31.84914887 -2.1484375 31.859375 C-2.90909012 31.87688309 -3.66974274 31.89439117 -4.45344543 31.91242981 C-10.00312314 31.89010708 -13.19167786 30.5639615 -17.78515625 27.43359375 C-21.19913549 23.60123471 -22.09833905 19.35263564 -21.84765625 14.30859375 C-21.06167292 9.24250319 -19.60958238 6.84232138 -15.78515625 3.43359375 C-10.37320155 0.61049736 -6.05222333 -0.02288836 0 0 Z " fill="#22CE6A" transform="translate(252.78515625,480.56640625)"/>
</svg>
