<?xml version="1.0" encoding="UTF-8"?>
<svg version="1.1" xmlns="http://www.w3.org/2000/svg" width="512" height="512">
<path d="M0 0 C8.57308972 5.08315939 12.67954725 10.96076116 16.20703125 20.30859375 C16.20703125 25.91859375 16.20703125 31.52859375 16.20703125 37.30859375 C30.06703125 37.30859375 43.92703125 37.30859375 58.20703125 37.30859375 C58.20703125 32.35859375 58.20703125 27.40859375 58.20703125 22.30859375 C59.38814675 18.45903211 60.32185466 15.70687261 62.20703125 12.30859375 C62.55765625 11.6640625 62.90828125 11.01953125 63.26953125 10.35546875 C67.54037787 3.53397762 74.55312693 -0.62456896 82.20703125 -2.69140625 C93.40746451 -3.76166987 102.45630457 -2.62416936 111.45703125 4.30859375 C116.42901234 9.09867309 118.75564452 13.81241891 121.20703125 20.30859375 C121.20703125 25.91859375 121.20703125 31.52859375 121.20703125 37.30859375 C135.06703125 37.30859375 148.92703125 37.30859375 163.20703125 37.30859375 C163.20703125 32.35859375 163.20703125 27.40859375 163.20703125 22.30859375 C164.38814675 18.45903211 165.32185466 15.70687261 167.20703125 12.30859375 C167.55765625 11.6640625 167.90828125 11.01953125 168.26953125 10.35546875 C172.54037787 3.53397762 179.55312693 -0.62456896 187.20703125 -2.69140625 C198.40746451 -3.76166987 207.45630457 -2.62416936 216.45703125 4.30859375 C221.42901234 9.09867309 223.75564452 13.81241891 226.20703125 20.30859375 C226.20703125 25.91859375 226.20703125 31.52859375 226.20703125 37.30859375 C240.06703125 37.30859375 253.92703125 37.30859375 268.20703125 37.30859375 C268.20703125 32.35859375 268.20703125 27.40859375 268.20703125 22.30859375 C269.38814675 18.45903211 270.32185466 15.70687261 272.20703125 12.30859375 C272.55765625 11.6640625 272.90828125 11.01953125 273.26953125 10.35546875 C277.54037787 3.53397762 284.55312693 -0.62456896 292.20703125 -2.69140625 C303.40746451 -3.76166987 312.45630457 -2.62416936 321.45703125 4.30859375 C327.33729639 9.97372723 331.15936958 16.61772539 331.57421875 24.86328125 C331.6398357 29.02564054 331.47277223 33.15516068 331.20703125 37.30859375 C332.0885083 37.28764648 332.96998535 37.26669922 333.87817383 37.24511719 C337.20136315 37.17626086 340.52377641 37.12646913 343.84741211 37.08886719 C345.27592049 37.06895766 346.70434963 37.04181946 348.13256836 37.00683594 C362.92544235 36.65400695 374.19116936 39.8551248 385.2109375 50.1875 C392.23944041 57.70177417 396.32457725 66.1946317 396.34125233 76.48042965 C396.34571017 77.75529954 396.35016801 79.03016943 396.35476094 80.34367174 C396.35467165 81.76141736 396.3544818 83.17916297 396.35420227 84.59690857 C396.35750178 86.10077368 396.36122753 87.60463792 396.36534375 89.10850102 C396.37536235 93.247343 396.37908033 97.38617048 396.38173306 101.52502286 C396.38563662 105.98673517 396.39521504 110.44843601 396.40394592 114.91014099 C396.42371063 125.68949671 396.43377733 136.46885337 396.44267371 147.24822268 C396.44705729 152.32565455 396.45242399 157.40308538 396.45766258 162.48051643 C396.47467617 179.36200335 396.48916942 196.24348961 396.49641132 213.12498379 C396.49832119 217.50609272 396.50024153 221.88720164 396.50219727 226.26831055 C396.50268101 227.35720351 396.50316475 228.44609648 396.50366315 229.5679862 C396.51195997 247.19966624 396.53729044 264.83127837 396.56977794 282.46292876 C396.60286779 300.56930823 396.6208619 318.67565321 396.62405556 336.78206307 C396.62621906 346.94630364 396.63494405 357.11044522 396.66051674 367.2746563 C396.68225017 375.93289456 396.69026121 384.59100978 396.68054996 393.24927222 C396.67601269 397.66406265 396.6778579 402.07859935 396.6973114 406.4933548 C396.71499743 410.54212827 396.71390165 414.59046395 396.69841411 418.63924242 C396.69604623 420.09695417 396.70031869 421.55469667 396.71224276 423.01236158 C396.81949932 437.00063132 394.27287485 448.41805706 385.20703125 459.30859375 C384.66046875 459.96730469 384.11390625 460.62601562 383.55078125 461.3046875 C376.89552035 468.60349957 367.34300936 472.88785465 357.51733285 473.56159341 C356.17038307 473.57309785 354.8233132 473.57391869 353.47633839 473.56586266 C352.72559547 473.56936873 351.97485254 473.5728748 351.20135984 473.57648712 C348.6894887 473.58577989 346.17785049 473.58088332 343.66596985 473.57601929 C341.8453171 473.57975662 340.02466595 473.58435848 338.20401734 473.58974993 C333.20348612 473.60198515 328.20302178 473.60171884 323.202479 473.59936118 C317.80831027 473.59895314 312.41416301 473.60999095 307.02000427 473.61947632 C296.45240259 473.63609044 285.88482323 473.64158606 275.31720958 473.64270107 C266.72670509 473.6436514 258.13620796 473.64776095 249.5457058 473.65410233 C225.1886595 473.67171629 200.83163083 473.68094102 176.47457812 473.67944138 C175.16143658 473.67936147 173.84829504 473.67928155 172.49536133 473.67919922 C171.18061583 473.67911746 169.86587034 473.6790357 168.51128408 473.67895146 C147.20612911 473.67813864 125.90106431 473.69727493 104.5959259 473.72547595 C82.71860123 473.75420577 60.84131104 473.76801617 38.96396703 473.7662884 C26.68209198 473.76562451 14.40029105 473.77111649 2.118433 473.7926445 C-8.33927501 473.81085759 -18.79687531 473.81520256 -29.25459232 473.80162565 C-34.58872989 473.79509656 -39.92266082 473.79497684 -45.25677872 473.81233215 C-50.14422071 473.82807035 -55.03129235 473.82519142 -59.91872535 473.80776389 C-61.68251503 473.80469565 -63.4463324 473.8083197 -65.21008941 473.81948404 C-80.05850468 473.90721339 -91.86521505 472.00272399 -102.8828125 461.2734375 C-112.86324457 450.73543939 -116.0899277 439.50772122 -116.09936523 425.2902832 C-116.10768875 424.21450012 -116.11601227 423.13871704 -116.12458801 422.03033447 C-116.14857586 418.49414399 -116.15744364 414.95813806 -116.1640625 411.421875 C-116.17303276 408.95663906 -116.18215468 406.49140367 -116.19142151 404.02616882 C-116.20788026 398.86923907 -116.21560677 393.71237405 -116.21850586 388.55541992 C-116.22390634 381.94420795 -116.2616692 375.33360211 -116.30725002 368.72256184 C-116.3369603 363.63624329 -116.34422801 358.55007234 -116.34523201 353.46367455 C-116.34944122 351.02557772 -116.3619034 348.58748072 -116.38274956 346.14946938 C-116.4095556 342.74542748 -116.40487117 339.34281364 -116.39233398 335.9387207 C-116.40716827 334.93133347 -116.42200256 333.92394623 -116.43728638 332.8860321 C-116.38785493 328.18124971 -116.33731434 326.02248509 -113.41175842 322.18571472 C-109.7833022 319.58487535 -107.50621749 319.59678234 -103.171875 319.81640625 C-99.49195948 320.57776808 -97.91451619 322.29736512 -95.79296875 325.30859375 C-94.87953918 328.13918372 -94.66663334 330.70691514 -94.66166687 333.67056274 C-94.65765869 334.53668182 -94.65365051 335.4028009 -94.64952087 336.29516602 C-94.65004959 337.23755127 -94.65057831 338.17993652 -94.65112305 339.15087891 C-94.64764862 340.14977142 -94.64417419 341.14866394 -94.64059448 342.17782593 C-94.63324371 344.34729074 -94.62789471 346.51676304 -94.62430382 348.68623734 C-94.61712948 352.12547117 -94.60145434 355.56456307 -94.58296204 359.00375366 C-94.53054636 368.78259303 -94.48254526 378.56135528 -94.46704102 388.34033203 C-94.45693368 394.32326946 -94.42753715 400.30585039 -94.38572121 406.2886467 C-94.37344379 408.56346306 -94.36828396 410.83832986 -94.37051964 413.11317825 C-94.37288468 416.30581649 -94.35061324 419.4974407 -94.32299805 422.68994141 C-94.32959946 423.62018127 -94.33620087 424.55042114 -94.34300232 425.5088501 C-94.24254453 432.6239068 -92.93601691 439.80483294 -88.04308605 445.25930214 C-82.61068101 450.24643966 -77.75602133 451.55799123 -70.39090252 451.56586266 C-69.65139914 451.56936873 -68.91189577 451.5728748 -68.1499832 451.57648712 C-65.66434189 451.5858139 -63.17893422 451.58087454 -60.69328308 451.57601929 C-58.89625444 451.5797549 -57.09922743 451.58435607 -55.302203 451.58974993 C-50.3578399 451.60200629 -45.41354433 451.60171636 -40.4691695 451.59936118 C-35.1391189 451.59895368 -29.80909015 451.60998577 -24.47904968 451.61947632 C-14.03417031 451.63610168 -3.58931351 451.64158656 6.85557798 451.64270107 C15.34414335 451.64365081 23.83270126 451.64775737 32.32126427 451.65410233 C56.37836439 451.67171883 80.43544665 451.68094054 104.49255327 451.67944138 C106.43865517 451.67932151 106.43865517 451.67932151 108.42407227 451.67919922 C109.72305432 451.67911746 111.02203636 451.6790357 112.36038151 451.67895146 C133.41616651 451.67813841 154.47188 451.69727966 175.52764431 451.72547595 C197.13820349 451.75418725 218.74872777 451.76801722 240.35930651 451.7662884 C252.49576663 451.7656239 264.63215178 451.77114257 276.76859474 451.7926445 C287.10130152 451.8108332 297.43389935 451.81522263 307.76661519 451.80162565 C313.03948612 451.79508438 318.3121479 451.79502068 323.58499908 451.81233215 C328.41186636 451.82801656 333.23835782 451.82524665 338.06521567 451.80776389 C339.81149744 451.80468378 341.55780694 451.80836432 343.30405603 451.81948404 C357.37909681 451.98191067 357.37909681 451.98191067 369.01953125 444.55859375 C374.0873625 437.02924446 374.64584861 430.52457404 374.60575867 421.67871094 C374.61240036 420.52717026 374.61904205 419.37562958 374.62588501 418.18919373 C374.6412664 415.00465208 374.64333274 411.82042582 374.6397482 408.63585949 C374.63915686 405.14459276 374.65596599 401.65340082 374.67053699 398.16217041 C374.69621002 391.39122566 374.70661163 384.62034407 374.71161957 377.84935594 C374.7180775 370.01409719 374.74362774 362.17897659 374.76916504 354.34375 C374.82716265 333.66540369 374.85926531 312.98699132 374.89453125 292.30859375 C374.99765625 246.10859375 375.10078125 199.90859375 375.20703125 152.30859375 C220.10703125 152.30859375 65.00703125 152.30859375 -94.79296875 152.30859375 C-94.79296875 182.33859375 -94.79296875 212.36859375 -94.79296875 243.30859375 C-97.79296875 250.30859375 -97.79296875 250.30859375 -100.79296875 252.30859375 C-103.09765625 252.6796875 -103.09765625 252.6796875 -105.66796875 252.74609375 C-106.51101562 252.78605469 -107.3540625 252.82601562 -108.22265625 252.8671875 C-111.99798596 252.04671311 -113.3781802 250.27665559 -115.79296875 247.30859375 C-116.41938114 243.92298508 -116.41938114 243.92298508 -116.42115784 239.97235107 C-116.42825222 239.24347317 -116.43534661 238.51459527 -116.44265598 237.76363015 C-116.4602311 235.32593002 -116.44213508 232.88982552 -116.42407227 230.45214844 C-116.42921149 228.70248184 -116.43649279 226.95282041 -116.445755 225.20317078 C-116.46428239 220.45281939 -116.45131983 215.70302873 -116.43166471 210.95270061 C-116.41527756 205.97743262 -116.42409168 201.00220013 -116.42918396 196.0269165 C-116.43370652 187.66743013 -116.41782913 179.30816738 -116.38989258 170.94873047 C-116.35788187 161.2960233 -116.35783966 151.64372039 -116.37510735 141.99098468 C-116.39099896 132.69673029 -116.38421921 123.40262353 -116.36717033 114.10837555 C-116.36031312 110.1580129 -116.36131877 106.20776906 -116.36871529 102.25740814 C-116.37640395 97.59841194 -116.364168 92.93987276 -116.33686638 88.28095436 C-116.33000687 86.57543354 -116.32985833 84.86986983 -116.33708191 83.16435051 C-116.3986092 66.73853558 -116.3986092 66.73853558 -111.79296875 59.30859375 C-111.21546875 58.29796875 -110.63796875 57.28734375 -110.04296875 56.24609375 C-102.99567784 47.04546395 -93.55420045 39.46149718 -81.79296875 37.30859375 C-79.10136555 37.22526516 -76.43688545 37.19229439 -73.74609375 37.2109375 C-72.58929108 37.21305992 -72.58929108 37.21305992 -71.40911865 37.21522522 C-68.95369537 37.22080841 -66.49836433 37.2333578 -64.04296875 37.24609375 C-62.37500132 37.25111092 -60.70703246 37.25567345 -59.0390625 37.25976562 C-54.95699588 37.27077234 -50.87499794 37.28802539 -46.79296875 37.30859375 C-46.81254639 36.28958984 -46.83212402 35.27058594 -46.85229492 34.22070312 C-46.8681319 32.86458858 -46.88348722 31.50846836 -46.8984375 30.15234375 C-46.9125769 29.48299805 -46.92671631 28.81365234 -46.94128418 28.12402344 C-46.99116281 22.07947183 -45.69916907 17.54740221 -42.79296875 12.30859375 C-42.44234375 11.6640625 -42.09171875 11.01953125 -41.73046875 10.35546875 C-33.18045354 -3.30080554 -14.0259185 -6.72220638 0 0 Z M-24.79296875 23.30859375 C-25.96455774 25.65177173 -25.93174542 27.06725993 -25.95410156 29.67895508 C-25.96370911 30.58362015 -25.97331665 31.48828522 -25.98321533 32.42036438 C-25.98746521 33.40055038 -25.99171509 34.38073639 -25.99609375 35.390625 C-26.00179382 36.3969548 -26.0074939 37.40328461 -26.0133667 38.44010925 C-26.0228246 40.5727737 -26.02935381 42.70545282 -26.03320312 44.83813477 C-26.04289835 48.09742851 -26.07391034 51.35608901 -26.10546875 54.61523438 C-26.11199976 56.68619417 -26.11724984 58.75715848 -26.12109375 60.828125 C-26.13344055 61.80223831 -26.14578735 62.77635162 -26.1585083 63.77998352 C-26.14023717 70.54208772 -26.14023717 70.54208772 -22.79296875 76.30859375 C-19.56062752 78.46348791 -17.62825954 79.3256405 -13.73046875 79.24609375 C-10.34981916 78.16716303 -8.36380997 76.73252976 -5.79296875 74.30859375 C-4.60095104 71.92455833 -4.64741188 70.41608258 -4.6159668 67.75463867 C-4.60313156 66.8099321 -4.59029633 65.86522552 -4.57707214 64.89189148 C-4.56968521 63.86795792 -4.56229828 62.84402435 -4.5546875 61.7890625 C-4.54661575 60.73834061 -4.53854401 59.68761871 -4.53022766 58.60505676 C-4.5163806 56.37824151 -4.50566124 54.15140498 -4.49780273 51.92456055 C-4.48059094 48.52026099 -4.43670962 45.11693265 -4.39257812 41.71289062 C-4.3824513 39.5507884 -4.37393517 37.38867791 -4.3671875 35.2265625 C-4.34967941 34.20870163 -4.33217133 33.19084076 -4.31413269 32.14213562 C-4.3298394 26.37112363 -4.3298394 26.37112363 -6.69458008 21.1887207 C-9.93582467 18.2846108 -12.31688513 17.91737456 -16.6875 17.94921875 C-20.40890328 18.58441189 -22.19609724 20.64838391 -24.79296875 23.30859375 Z M80.20703125 23.30859375 C79.03544226 25.65177173 79.06825458 27.06725993 79.04589844 29.67895508 C79.03629089 30.58362015 79.02668335 31.48828522 79.01678467 32.42036438 C79.01253479 33.40055038 79.00828491 34.38073639 79.00390625 35.390625 C78.99820618 36.3969548 78.9925061 37.40328461 78.9866333 38.44010925 C78.9771754 40.5727737 78.97064619 42.70545282 78.96679688 44.83813477 C78.95710165 48.09742851 78.92608966 51.35608901 78.89453125 54.61523438 C78.88800024 56.68619417 78.88275016 58.75715848 78.87890625 60.828125 C78.86655945 61.80223831 78.85421265 62.77635162 78.8414917 63.77998352 C78.85976283 70.54208772 78.85976283 70.54208772 82.20703125 76.30859375 C85.43937248 78.46348791 87.37174046 79.3256405 91.26953125 79.24609375 C94.65018084 78.16716303 96.63619003 76.73252976 99.20703125 74.30859375 C100.39904896 71.92455833 100.35258812 70.41608258 100.3840332 67.75463867 C100.39686844 66.8099321 100.40970367 65.86522552 100.42292786 64.89189148 C100.43031479 63.86795792 100.43770172 62.84402435 100.4453125 61.7890625 C100.45338425 60.73834061 100.46145599 59.68761871 100.46977234 58.60505676 C100.4836194 56.37824151 100.49433876 54.15140498 100.50219727 51.92456055 C100.51940906 48.52026099 100.56329038 45.11693265 100.60742188 41.71289062 C100.6175487 39.5507884 100.62606483 37.38867791 100.6328125 35.2265625 C100.65032059 34.20870163 100.66782867 33.19084076 100.68586731 32.14213562 C100.6701606 26.37112363 100.6701606 26.37112363 98.30541992 21.1887207 C95.06417533 18.2846108 92.68311487 17.91737456 88.3125 17.94921875 C84.59109672 18.58441189 82.80390276 20.64838391 80.20703125 23.30859375 Z M185.20703125 23.30859375 C184.03544226 25.65177173 184.06825458 27.06725993 184.04589844 29.67895508 C184.03629089 30.58362015 184.02668335 31.48828522 184.01678467 32.42036438 C184.01253479 33.40055038 184.00828491 34.38073639 184.00390625 35.390625 C183.99820618 36.3969548 183.9925061 37.40328461 183.9866333 38.44010925 C183.9771754 40.5727737 183.97064619 42.70545282 183.96679688 44.83813477 C183.95710165 48.09742851 183.92608966 51.35608901 183.89453125 54.61523438 C183.88800024 56.68619417 183.88275016 58.75715848 183.87890625 60.828125 C183.86655945 61.80223831 183.85421265 62.77635162 183.8414917 63.77998352 C183.85976283 70.54208772 183.85976283 70.54208772 187.20703125 76.30859375 C190.43937248 78.46348791 192.37174046 79.3256405 196.26953125 79.24609375 C199.65018084 78.16716303 201.63619003 76.73252976 204.20703125 74.30859375 C205.39904896 71.92455833 205.35258812 70.41608258 205.3840332 67.75463867 C205.39686844 66.8099321 205.40970367 65.86522552 205.42292786 64.89189148 C205.43031479 63.86795792 205.43770172 62.84402435 205.4453125 61.7890625 C205.45338425 60.73834061 205.46145599 59.68761871 205.46977234 58.60505676 C205.4836194 56.37824151 205.49433876 54.15140498 205.50219727 51.92456055 C205.51940906 48.52026099 205.56329038 45.11693265 205.60742188 41.71289062 C205.6175487 39.5507884 205.62606483 37.38867791 205.6328125 35.2265625 C205.65032059 34.20870163 205.66782867 33.19084076 205.68586731 32.14213562 C205.6701606 26.37112363 205.6701606 26.37112363 203.30541992 21.1887207 C200.06417533 18.2846108 197.68311487 17.91737456 193.3125 17.94921875 C189.59109672 18.58441189 187.80390276 20.64838391 185.20703125 23.30859375 Z M290.20703125 23.30859375 C289.03935737 25.6439415 289.06227189 27.06039154 289.0300293 29.66308594 C289.01719406 30.56452332 289.00435883 31.46596069 288.99113464 32.39471436 C288.98374771 33.37176331 288.97636078 34.34881226 288.96875 35.35546875 C288.96067825 36.35942688 288.95260651 37.36338501 288.94429016 38.39776611 C288.93044283 40.52622752 288.91972359 42.65471119 288.91186523 44.78320312 C288.89467368 48.03168123 288.85079533 51.27913613 288.80664062 54.52734375 C288.79651191 56.5950446 288.78799637 58.6627541 288.78125 60.73046875 C288.76374191 61.69942078 288.74623383 62.6683728 288.72819519 63.66668701 C288.74696593 69.53130013 289.30400957 72.84106876 293.20703125 77.30859375 C296.14237036 79.08524637 297.77998635 79.32638729 301.20703125 79.18359375 C304.66883125 78.17390208 306.59738262 76.7691196 309.20703125 74.30859375 C310.39718606 71.92828414 310.35888628 70.41196264 310.39990234 67.75463867 C310.41596527 66.8099321 310.4320282 65.86522552 310.44857788 64.89189148 C310.49300387 60.56945482 310.53409158 56.24717208 310.55712891 51.92456055 C310.57369221 49.64418332 310.6009869 47.36385809 310.63916016 45.08374023 C310.69389906 41.79774005 310.71579882 38.51295709 310.73046875 35.2265625 C310.75313812 34.20870163 310.7758075 33.19084076 310.79916382 32.14213562 C310.80426547 26.19351999 310.80426547 26.19351999 307.73681641 21.1887207 C306.9019873 20.56827881 306.0671582 19.94783691 305.20703125 19.30859375 C304.87703125 18.97859375 304.54703125 18.64859375 304.20703125 18.30859375 C297.48154273 17.62464576 294.92688227 18.47362441 290.20703125 23.30859375 Z M-89.79296875 65.30859375 C-106.06511301 83.66691035 -94.79296875 97.83332208 -94.79296875 131.30859375 C60.30703125 131.30859375 215.40703125 131.30859375 375.20703125 131.30859375 C380.56913315 79.54897096 380.56913315 79.54897096 369.20703125 64.30859375 C366.74337591 62.12282414 366.74337591 62.12282414 364.14453125 60.80859375 C362.92056641 60.1125 362.92056641 60.1125 361.671875 59.40234375 C357.38773144 57.50129748 353.3372801 57.18496107 348.6875 57.2109375 C347.15512695 57.21577148 347.15512695 57.21577148 345.59179688 57.22070312 C344.00915039 57.23327148 344.00915039 57.23327148 342.39453125 57.24609375 C341.32009766 57.25060547 340.24566406 57.25511719 339.13867188 57.25976562 C336.49473442 57.27151646 333.85091173 57.28794588 331.20703125 57.30859375 C331.20316406 59.15710938 331.20316406 59.15710938 331.19921875 61.04296875 C331.00538156 72.37957714 330.07180347 81.57317493 322.3125 90.484375 C315.11083999 97.34512803 306.99467503 99.28054893 297.20703125 99.30859375 C289.25445568 98.70092186 281.98351345 95.07714217 276.34765625 89.453125 C268.37886469 79.57103447 268.97439795 70.35382759 268.20703125 57.30859375 C254.34703125 57.30859375 240.48703125 57.30859375 226.20703125 57.30859375 C225.87703125 63.57859375 225.54703125 69.84859375 225.20703125 76.30859375 C222.6675 84.41555889 217.98976113 91.54963997 210.33203125 95.68359375 C201.29173323 99.58775316 192.49895057 100.51352167 183.0859375 97.21484375 C174.49859334 93.35536323 168.91189816 88.080116 165.33203125 79.30859375 C163.71478323 72.12082478 163.63966359 64.66334345 163.20703125 57.30859375 C149.34703125 57.30859375 135.48703125 57.30859375 121.20703125 57.30859375 C120.87703125 63.57859375 120.54703125 69.84859375 120.20703125 76.30859375 C117.6675 84.41555889 112.98976113 91.54963997 105.33203125 95.68359375 C96.29173323 99.58775316 87.49895057 100.51352167 78.0859375 97.21484375 C69.49859334 93.35536323 63.91189816 88.080116 60.33203125 79.30859375 C58.71478323 72.12082478 58.63966359 64.66334345 58.20703125 57.30859375 C44.34703125 57.30859375 30.48703125 57.30859375 16.20703125 57.30859375 C15.87703125 63.57859375 15.54703125 69.84859375 15.20703125 76.30859375 C12.6675 84.41555889 7.98976113 91.54963997 0.33203125 95.68359375 C-8.70826677 99.58775316 -17.50104943 100.51352167 -26.9140625 97.21484375 C-35.50140666 93.35536323 -41.08810184 88.080116 -44.66796875 79.30859375 C-46.72065155 72.26902513 -46.55056379 64.58910128 -46.79296875 57.30859375 C-50.9387415 57.24995481 -55.0844058 57.21478391 -59.23046875 57.18359375 C-60.39513672 57.16683594 -61.55980469 57.15007812 -62.75976562 57.1328125 C-73.65792878 57.0714144 -81.58635764 57.75182741 -89.79296875 65.30859375 Z " fill="#22CD6A" transform="translate(115.79296875,20.69140625)"/>
<path d="M0 0 C9.83904026 6.58602424 16.10052583 15.20093654 18.68823242 26.79272461 C19.33994663 31.94094472 19.33657137 37.06121828 19.37109375 42.24609375 C19.3791655 43.40535873 19.38723724 44.56462372 19.39555359 45.75901794 C19.40936073 48.21083089 19.42009789 50.66266279 19.42797852 53.11450195 C19.43947688 55.60381769 19.45989434 58.09310918 19.48950195 60.58227539 C19.53248756 64.1995501 19.54839208 67.81609429 19.55859375 71.43359375 C19.57610184 72.5288588 19.59360992 73.62412384 19.61164856 74.75257874 C19.57668695 87.42920222 16.08304647 98.90508495 7.3203125 108.234375 C-1.18729306 116.22740764 -11.19015475 120.21359004 -22.84375 120.3359375 C-35.3621272 119.68899294 -45.25229824 115.35183685 -53.83984375 106.203125 C-62.61822837 95.65415325 -64.0186202 84.81629955 -64.0703125 71.51171875 C-64.07601257 70.36990646 -64.08171265 69.22809418 -64.08758545 68.05168152 C-64.09701452 65.63854899 -64.1035611 63.22540372 -64.10742188 60.81225586 C-64.11710768 57.14739112 -64.14814384 53.4830922 -64.1796875 49.81835938 C-64.18622039 47.46614914 -64.19146974 45.11393492 -64.1953125 42.76171875 C-64.2076593 41.67800491 -64.2200061 40.59429108 -64.23272705 39.47773743 C-64.19652111 26.92004597 -60.84057362 14.52059757 -51.8671875 5.3046875 C-36.55676227 -7.28197294 -17.39170854 -10.2833808 0 0 Z M-38.7421875 23.2421875 C-43.19027786 29.65267066 -43.18648912 35.71234753 -43.203125 43.2578125 C-43.2097818 44.31321228 -43.2164386 45.36861206 -43.22329712 46.45599365 C-43.23340072 48.68500024 -43.23811485 50.91403694 -43.23779297 53.14306641 C-43.24215504 56.52948703 -43.27846989 59.91459187 -43.31640625 63.30078125 C-43.32227731 65.47395391 -43.32624476 67.64713272 -43.328125 69.8203125 C-43.34249603 70.8216925 -43.35686707 71.82307251 -43.37167358 72.85479736 C-43.32457766 80.20931583 -42.34338368 87.82516126 -36.92391968 93.24981689 C-31.87745478 97.31176711 -27.04973249 99.60089082 -20.4921875 99.2421875 C-14.63524071 98.37449168 -9.98034389 95.99463595 -6.29296875 91.30078125 C-3.35504475 86.7297419 -1.74979588 82.99419188 -1.70605469 77.5012207 C-1.69644714 76.52623123 -1.6868396 75.55124176 -1.67694092 74.54670715 C-1.67269104 73.49359848 -1.66844116 72.44048981 -1.6640625 71.35546875 C-1.65551239 69.72559273 -1.65551239 69.72559273 -1.64678955 68.06278992 C-1.63733731 65.76037571 -1.63080468 63.45794796 -1.62695312 61.15551758 C-1.61727353 57.64835669 -1.5862623 54.1417883 -1.5546875 50.63476562 C-1.54815466 48.39583681 -1.5429053 46.1569038 -1.5390625 43.91796875 C-1.5267157 42.87498123 -1.5143689 41.83199371 -1.50164795 40.75740051 C-1.52348945 33.54688427 -2.12721961 27.47649815 -7.0234375 21.80859375 C-7.796875 21.16792969 -8.5703125 20.52726562 -9.3671875 19.8671875 C-10.140625 19.20847656 -10.9140625 18.54976562 -11.7109375 17.87109375 C-20.9110687 11.18766511 -31.89606463 15.69951143 -38.7421875 23.2421875 Z " fill="#22CE6A" transform="translate(323.8671875,203.6953125)"/>
<path d="M0 0 C0.6703125 0.36996094 1.340625 0.73992187 2.03125 1.12109375 C3.578125 1.95640625 3.578125 1.95640625 5.15625 2.80859375 C13.5437445 9.55505672 19.27805678 17.38892966 21.03125 28.12109375 C21.90325725 39.03795376 19.79349352 47.42280621 13.23828125 56.2109375 C11.76415595 58.16718287 11.76415595 58.16718287 12.03125 61.12109375 C12.77375 62.06984375 13.51625 63.01859375 14.28125 63.99609375 C19.86062689 71.51474125 22.38004091 81.87422826 21.03125 91.12109375 C18.69558295 102.41245459 13.91152458 111.1988518 4.31640625 117.8359375 C-4.96042633 123.05316471 -14.67471498 124.67164962 -25.07421875 122.4609375 C-35.39029217 119.44064224 -42.65131985 113.84898687 -48.5234375 104.86328125 C-52.05112123 98.17021644 -53.90942984 90.57290535 -52.59375 83.03515625 C-51.45649918 79.55232561 -50.02102023 78.09235161 -46.96875 76.12109375 C-42.61239532 75.2371957 -39.16014965 75.6030939 -35.09375 77.37109375 C-32.24099039 81.06290031 -31.69283915 84.69615072 -30.69921875 89.203125 C-29.37190368 94.50528735 -27.42325001 97.2369859 -22.78125 100.05859375 C-16.74052882 101.74207342 -12.22904264 101.2093828 -6.59375 98.49609375 C-3.29865536 95.51481764 -2.16314131 93.40685082 -0.96875 89.12109375 C-0.91930881 84.31705786 -1.54730796 79.32675624 -3.96875 75.12109375 C-8.38027257 72.38363344 -13.67132417 71.62332947 -18.65625 70.4140625 C-22.48588887 68.91923884 -23.85894503 67.61336261 -25.96875 64.12109375 C-26.74032599 61.01350492 -26.58973165 58.2544874 -25.96875 55.12109375 C-23.8567832 51.65143401 -22.07270835 50.43298128 -18.17578125 49.33203125 C-16.07062495 48.85608287 -13.96381635 48.38738749 -11.85546875 47.92578125 C-6.93883785 46.55524544 -4.17822795 44.21019203 -1.59375 39.74609375 C-0.43819316 34.89275503 -0.29051851 30.91529836 -2.59375 26.43359375 C-4.87199061 22.92130615 -7.11079957 20.90718191 -10.96875 19.12109375 C-15.91287356 18.34001886 -19.75467214 18.58150359 -24.34375 20.62109375 C-27.65224199 23.7720385 -29.15705136 26.98712685 -30.96875 31.12109375 C-33.04517393 35.18366231 -34.74315906 37.25397217 -38.96875 39.12109375 C-43.61449072 39.70181134 -46.23411154 38.92207259 -49.96875 36.12109375 C-52.7142831 32.0027941 -52.54473293 28.95336611 -51.96875 24.12109375 C-50.01951447 15.87935963 -45.34399706 9.58424794 -38.96875 4.12109375 C-27.07734149 -3.15243528 -13.0501771 -6.2858353 0 0 Z " fill="#22CE6A" transform="translate(221.96875,200.87890625)"/>
<path d="M0 0 C1.28197266 -0.02900391 2.56394531 -0.05800781 3.88476562 -0.08789062 C15.40462018 -0.16425886 25.61401244 2.03112538 34.0625 10.3125 C43.88063456 21.56576792 45.18123195 35.66337948 44.29003906 49.97851562 C43.1809175 61.35534191 38.39038177 69.34291137 30.3125 77.0625 C21.81313668 83.99001278 12.94310073 84.9774882 2.25 85.1875 C1.04923828 85.23390625 -0.15152344 85.2803125 -1.38867188 85.328125 C-11.72936597 85.62768828 -11.72936597 85.62768828 -15.9375 83.3125 C-19.85229955 79.35690629 -20.44110608 76.71558487 -20.45507812 71.21484375 C-20.4620874 70.519888 -20.46909668 69.82493225 -20.47631836 69.10891724 C-20.49385778 66.82219949 -20.48229139 64.53672932 -20.46875 62.25 C-20.47144611 60.65486413 -20.47532953 59.05972987 -20.48034668 57.46459961 C-20.48623619 54.12565423 -20.47769686 50.78713763 -20.45898438 47.44824219 C-20.43619463 43.17414723 -20.44932072 38.90105702 -20.47327423 34.6269989 C-20.48774732 31.33435533 -20.48311941 28.04194891 -20.47276306 24.7492981 C-20.47009993 23.17367432 -20.47335101 21.59802882 -20.48268127 20.02243042 C-20.49287246 17.81776123 -20.47731306 15.61470562 -20.45507812 13.41015625 C-20.45189575 12.15726807 -20.44871338 10.90437988 -20.44543457 9.61352539 C-19.84782848 5.72973207 -18.67133692 4.08062351 -15.9375 1.3125 C-11.3541256 -0.9791872 -5.02997019 0.03693077 0 0 Z M1.0625 21.3125 C1.0625 35.5025 1.0625 49.6925 1.0625 64.3125 C11.55243426 64.21272131 11.55243426 64.21272131 18.7265625 59.08984375 C24.04653295 52.01210528 23.79217564 43.87869207 23.0625 35.3125 C21.94021437 29.7358714 19.4665966 25.9458797 15.0625 22.3125 C10.85029356 20.7327491 10.85029356 20.7327491 1.0625 21.3125 Z " fill="#22CE6A" transform="translate(139.9375,354.6875)"/>
<path d="M0 0 C3.65592309 3.00598121 3.65592309 3.00598121 4.05078125 6.30078125 C4.1838075 10.46660332 4.20081668 12.69119331 1.9375 16.3125 C-1.2309883 19.29460664 -3.48624755 19.69547555 -7.84375 19.6796875 C-11.54616779 19.09964205 -14.46135 17.20919306 -17.71875 15.4296875 C-21.44715259 13.74246734 -24.14994822 13.87990517 -28.1875 14.3125 C-28.8475 14.6425 -29.5075 14.9725 -30.1875 15.3125 C-30.5175 16.3025 -30.8475 17.2925 -31.1875 18.3125 C-29.455 18.8384375 -29.455 18.8384375 -27.6875 19.375 C-2.52546838 27.86868104 -2.52546838 27.86868104 4.3125 38.875 C7.10066356 45.26039244 6.86352739 53.03878599 5.22265625 59.7109375 C2.27848835 66.57614007 -4.29226992 72.39494443 -11.125 75.25 C-21.98279792 78.54802935 -32.98827091 77.80366471 -43.0625 72.5 C-54.61873458 65.64630244 -54.61873458 65.64630244 -56.1875 60.3125 C-56.61752518 56.99516291 -56.90509662 54.50760514 -55.13671875 51.5625 C-52.33938555 48.12978433 -50.53776766 46.53754461 -46.1875 45.8125 C-42.36458101 45.82832989 -40.36790459 47.41572045 -37.375 49.6875 C-32.56755712 53.28759421 -28.27519097 55.3125 -22.1875 55.3125 C-18.64734528 54.13228236 -18.64734528 54.13228236 -16.1875 52.3125 C-16.2913173 49.87846209 -16.2913173 49.87846209 -17.1875 47.3125 C-19.40519274 45.81486395 -19.40519274 45.81486395 -22.25390625 44.8828125 C-23.29740234 44.47933594 -24.34089844 44.07585937 -25.41601562 43.66015625 C-26.51623047 43.25667969 -27.61644531 42.85320312 -28.75 42.4375 C-37.96792813 39.03821599 -45.73291796 35.71028443 -51.1875 27.1875 C-53.43975475 20.66626566 -53.46552273 12.27139183 -50.6875 5.9375 C-47.13455797 0.02010007 -41.35201708 -5.16504288 -34.703125 -7.24609375 C-21.77539635 -9.5144685 -10.9389768 -7.44027572 0 0 Z " fill="#22CE6A" transform="translate(386.1875,362.6875)"/>
<path d="M0 0 C0.74765625 -0.04898437 1.4953125 -0.09796875 2.265625 -0.1484375 C5.89620323 0.61649565 8.25288868 2.74385334 10.75 5.375 C12.43408203 8.5559082 12.43408203 8.5559082 13.7578125 12.17578125 C14.00569519 12.83700989 14.25357788 13.49823853 14.50897217 14.17950439 C15.31532035 16.34276879 16.09560882 18.51439323 16.875 20.6875 C17.43092642 22.20165238 17.98840393 23.7152361 18.54736328 25.22827148 C19.4120695 27.57153002 20.27466201 29.91542769 21.12973022 32.26222229 C23.10658031 37.68145112 25.17572238 43.05768205 27.296875 48.421875 C28.13749408 50.57085839 28.97615149 52.72059459 29.81390381 54.87069702 C30.34967219 56.23592066 30.8914395 57.59880703 31.43951416 58.95913696 C34.41608446 66.36750757 36.78639835 72.38733138 34.75 80.375 C32.23948337 83.24416187 30.41850285 84.16164803 26.8125 85.3125 C22.94504697 85.39142761 20.98413978 84.45922341 17.75 82.375 C14.20498337 78.82998337 13.64578957 75.43043885 11.75 70.375 C3.83 70.045 -4.09 69.715 -12.25 69.375 C-13.24 72.675 -14.23 75.975 -15.25 79.375 C-17.72836261 82.65715589 -19.25979425 84.03058061 -23.125 85.375 C-27.2930077 85.375 -29.67900496 84.53107248 -33.25 82.375 C-35.28100663 79.29771722 -36.44603469 77.08878623 -36.01638794 73.33270264 C-34.74700222 67.94149209 -33.0889429 62.8516071 -31.0546875 57.703125 C-30.59165222 56.50757492 -30.59165222 56.50757492 -30.1192627 55.28787231 C-29.12748035 52.73107535 -28.1267071 50.17792312 -27.125 47.625 C-26.09740435 44.99106478 -25.07135291 42.35653214 -24.04556274 39.72189331 C-23.37249927 37.99349904 -22.69865803 36.26540742 -22.02401733 34.53762817 C-20.18384144 29.8157227 -18.38768053 25.08317032 -16.65625 20.3203125 C-16.30191895 19.3519043 -15.94758789 18.38349609 -15.58251953 17.38574219 C-14.96831699 15.69504085 -14.3641975 14.0006225 -13.77294922 12.30175781 C-11.29103732 5.52910827 -7.65590207 0.33852628 0 0 Z M-0.25 38.375 C-1.57 41.675 -2.89 44.975 -4.25 48.375 C-1.61 48.375 1.03 48.375 3.75 48.375 C2.76 45.075 1.77 41.775 0.75 38.375 C0.42 38.375 0.09 38.375 -0.25 38.375 Z " fill="#22CE6A" transform="translate(226.25,354.625)"/>
<path d="M0 0 C0.75925781 -0.04898437 1.51851563 -0.09796875 2.30078125 -0.1484375 C7.78785917 1.05494784 10.69897349 6.65447761 13.58398438 11.09765625 C14.01001953 11.76667969 14.43605469 12.43570312 14.875 13.125 C17.59526704 17.95293571 17.59526704 17.95293571 21.6875 21.375 C21.93886719 20.67503906 22.19023437 19.97507812 22.44921875 19.25390625 C23.84214191 16.01546977 25.55598565 13.25268232 27.5 10.3125 C28.16644531 9.29027344 28.83289063 8.26804687 29.51953125 7.21484375 C32.08515535 3.85410731 34.53767832 0.92874195 38.75 -0.15625 C42.31490818 -0.09875148 44.3667518 0.20068032 47.5625 1.9375 C50.30364793 5.08175792 51.12652802 7.23783165 51.6875 11.375 C49.75482259 16.72851642 47.00179933 21.34995688 43.9375 26.125 C43.53273438 26.764375 43.12796875 27.40375 42.7109375 28.0625 C42.29585938 28.71734375 41.88078125 29.3721875 41.453125 30.046875 C40.80899658 31.08581909 40.80899658 31.08581909 40.15185547 32.14575195 C38.6875 34.375 38.6875 34.375 36.82080078 36.75073242 C30.74514125 44.93365969 30.81764089 52.45220264 31.0625 62.1875 C31.10699621 64.40626479 31.14057739 66.62298195 31.14395142 68.84220886 C31.14819223 70.8414065 31.1908406 72.84041569 31.23583984 74.83911133 C30.50563311 79.54774182 29.08507764 81.08272812 25.6875 84.375 C21.59898688 85.63872224 19.47934647 85.6491007 15.4375 84.25 C12.32764601 82.12964501 11.2877754 80.7586146 9.6875 77.375 C9.41381836 74.03198242 9.41381836 74.03198242 9.52734375 70.23046875 C9.54743374 68.82466729 9.5642417 67.41881591 9.578125 66.01293945 C9.58779297 65.28515289 9.59746094 64.55736633 9.60742188 63.80752563 C9.7110625 50.57085495 8.97385685 40.44358146 0.07910156 30.04150391 C-2.33544541 27.149978 -4.36879865 24.01786698 -6.4375 20.875 C-7.18257813 19.8128125 -7.92765625 18.750625 -8.6953125 17.65625 C-10.78217024 13.42204589 -10.75739847 11.05126979 -10.3125 6.375 C-7.40205422 1.81530161 -5.32370545 0.23263251 0 0 Z " fill="#22CE6A" transform="translate(272.3125,354.625)"/>
<path d="M0 0 C2.8100346 1.79363911 4.50940468 3.01880935 6 6 C6.65271451 10.74616694 6.69934049 13.98277746 3.9375 18 C0.40055558 20.40813237 -1.72563406 21 -6 21 C-10.01519063 19.48483372 -11.60368353 18.5944747 -14 15 C-14.73965025 10.40728797 -14.60961194 6.97537911 -12.125 3 C-8.46188547 -0.44763721 -4.88098361 -0.70129075 0 0 Z " fill="#23CD6B" transform="translate(14,297)"/>
</svg>
