<?xml version="1.0" encoding="UTF-8"?>
<svg version="1.1" xmlns="http://www.w3.org/2000/svg" width="512" height="512">
<path d="M0 0 C4.39831824 3.18363793 7.01958642 7.1328839 8.75390625 12.26953125 C9.01460266 14.69065857 9.01460266 14.69065857 9.02856445 17.23999023 C9.03809647 18.20126328 9.04762848 19.16253632 9.05744934 20.15293884 C9.05608223 21.69371849 9.05608223 21.69371849 9.0546875 23.265625 C9.05897263 24.33192642 9.06325775 25.39822784 9.06767273 26.49684143 C9.07340763 28.7486195 9.07392249 31.00041608 9.06958008 33.25219727 C9.06642076 36.69124041 9.08988836 40.12942256 9.11523438 43.56835938 C9.11750755 45.7591135 9.11821078 47.94986993 9.1171875 50.140625 C9.12639725 51.1657872 9.13560699 52.1909494 9.14509583 53.24717712 C9.10004052 60.22324636 8.1198156 64.59231804 3.37890625 69.95703125 C-2.21700956 74.88676661 -6.80335254 76.41372743 -14.24609375 76.26953125 C-20.80115003 75.36354786 -24.58533052 72.54162465 -28.8359375 67.59765625 C-30.63427612 64.62865398 -31.33913106 61.60598837 -32.24609375 58.26953125 C-37.93858834 58.17017246 -43.63057093 58.09783202 -49.32373047 58.04980469 C-51.25773927 58.02976984 -53.1916881 58.00253396 -55.12548828 57.96777344 C-57.91584118 57.91889554 -60.70538876 57.89648106 -63.49609375 57.87890625 C-64.35162842 57.85826111 -65.20716309 57.83761597 -66.08862305 57.81634521 C-72.7141075 57.81390483 -78.26934209 59.3307 -83.0859375 64.0859375 C-83.44816406 64.66214844 -83.81039062 65.23835938 -84.18359375 65.83203125 C-84.56386719 66.41082031 -84.94414063 66.98960938 -85.3359375 67.5859375 C-94.33324987 84.22903464 -87.88232608 105.35361242 -88.24609375 124.26953125 C48.37390625 124.26953125 184.99390625 124.26953125 325.75390625 124.26953125 C329.47574468 95.24229491 329.47574468 95.24229491 318.9375 62.4296875 C318.36128906 62.06746094 317.78507812 61.70523438 317.19140625 61.33203125 C316.32322266 60.76162109 316.32322266 60.76162109 315.4375 60.1796875 C312.45296466 58.566238 309.97415277 58.14577665 306.6496582 58.15600586 C305.82903397 58.15608139 305.00840973 58.15615692 304.16291809 58.15623474 C302.84090645 58.16397667 302.84090645 58.16397667 301.4921875 58.171875 C300.133498 58.17399742 300.133498 58.17399742 298.74736023 58.17616272 C295.85367534 58.18176124 292.96006776 58.19431344 290.06640625 58.20703125 C288.10481883 58.21204644 286.14323019 58.21660932 284.18164062 58.22070312 C279.37236604 58.23173018 274.56314925 58.24899378 269.75390625 58.26953125 C269.55229889 58.82142624 269.35069153 59.37332123 269.14297485 59.94194031 C268.87616913 60.6645253 268.6093634 61.38711029 268.33447266 62.1315918 C268.0709903 62.84848679 267.80750793 63.56538177 267.53604126 64.30400085 C265.76086492 68.76507601 262.91075987 72.06714734 258.71484375 74.40625 C252.29172559 76.91421663 245.87647088 76.98667521 239.484375 74.32421875 C234.45704959 71.50742418 232.057068 68.52074005 229.75390625 63.26953125 C229.42390625 61.28953125 229.09390625 59.30953125 228.75390625 57.26953125 C199.05390625 57.26953125 169.35390625 57.26953125 138.75390625 57.26953125 C138.42390625 59.57953125 138.09390625 61.88953125 137.75390625 64.26953125 C135.01819956 69.74094464 131.28665311 72.86564813 125.75390625 75.26953125 C119.27771868 77.08963625 114.03670069 76.33817739 107.953125 73.578125 C103.61726951 70.99817547 100.4502623 67.05017101 98.75390625 62.26953125 C98.72658752 60.60308849 98.72380716 58.93592611 98.75390625 57.26953125 C97.52349609 57.2852417 96.29308594 57.30095215 95.02539062 57.31713867 C90.43333558 57.37169387 85.84130884 57.40597406 81.24902344 57.43432617 C79.26655245 57.44935469 77.28411439 57.46978323 75.30175781 57.49584961 C72.44197432 57.53249508 69.58263281 57.54931729 66.72265625 57.5625 C65.8452478 57.57798386 64.96783936 57.59346771 64.06384277 57.60942078 C57.50393301 57.61118977 51.75989492 56.72564394 46.51171875 52.4375 C41.43212643 46.27636768 39.04681351 41.47180699 39.75390625 33.26953125 C41.13966602 26.32701199 44.97167553 22.18789273 50.75390625 18.26953125 C55.58042154 15.68696836 60.32115997 16.01410371 65.6484375 16.07421875 C66.59579269 16.07704865 67.54314789 16.07987854 68.51921082 16.08279419 C71.53507291 16.09395938 74.55063441 16.11905736 77.56640625 16.14453125 C79.61523008 16.15456578 81.66405857 16.1636908 83.71289062 16.171875 C88.72667773 16.19388676 93.74024108 16.22839154 98.75390625 16.26953125 C98.89038574 14.99956299 99.02686523 13.72959473 99.16748047 12.42114258 C99.77025339 6.81222312 102.58464467 3.90405788 106.75390625 0.26953125 C112.22287723 -3.03248896 117.51171622 -3.59281211 123.75390625 -2.73046875 C129.17265984 -1.11922875 132.87364942 1.96810411 136.625 6.09765625 C137.75390625 8.26953125 137.75390625 8.26953125 138.75390625 16.26953125 C168.45390625 16.26953125 198.15390625 16.26953125 228.75390625 16.26953125 C229.08390625 13.95953125 229.41390625 11.64953125 229.75390625 9.26953125 C232.57308319 4.13460182 235.87977744 0.91189057 240.94140625 -1.98046875 C247.93082233 -3.84431304 254.42220295 -3.33084906 260.75390625 0.26953125 C266.26259714 5.02703702 268.69328088 9.12995122 269.75390625 16.26953125 C271.0385376 16.24858398 272.32316895 16.22763672 273.64672852 16.20605469 C278.48303768 16.13281233 283.31929949 16.08742979 288.15600586 16.04980469 C290.23616827 16.02987884 292.31627609 16.00272805 294.39624023 15.96777344 C316.15713737 15.61163842 333.12453752 18.41854079 349.57421875 34.02734375 C363.820365 48.68198165 367.23543738 66.01102235 367.1875 85.75 C367.19207271 87.41522939 367.19738149 89.08045691 367.2033844 90.74568176 C367.21226037 94.21424085 367.20995331 97.68256896 367.19995117 101.15112305 C367.18842855 105.57591026 367.20875103 109.99990326 367.23786831 114.4245863 C367.25628249 117.85546343 367.25592819 121.28615163 367.25023079 124.71706581 C367.25007843 126.34800651 367.25605182 127.97896071 367.26852226 129.60985374 C367.34343221 141.00269325 366.45001598 150.01263356 358.46875 158.765625 C352.68113649 163.84132249 346.126277 165.39474669 338.60682392 165.39257908 C337.50250035 165.39430985 337.50250035 165.39430985 336.37586722 165.39607558 C333.88949726 165.398739 331.40319105 165.39422231 328.91682434 165.38978577 C327.12407166 165.39022152 325.33131904 165.39109652 323.53856677 165.39237493 C318.5970537 165.394619 313.65556216 165.3905998 308.71405184 165.38559687 C303.39094646 165.3812913 298.06784235 165.38273887 292.74473572 165.38349915 C283.51704939 165.38402431 274.28937012 165.38087826 265.06168556 165.37526131 C251.71988815 165.36714533 238.37809416 165.36453099 225.03629454 165.36327332 C203.39178883 165.36108295 181.74728687 165.35442328 160.1027832 165.3449707 C139.073161 165.33579619 118.04353982 165.32871555 97.01391602 165.32446289 C95.71834811 165.32420017 94.4227802 165.32393744 93.08795265 165.32366676 C86.58867764 165.32236175 80.08940261 165.32109804 73.59012759 165.31985486 C19.64471787 165.30948272 -34.30068775 165.29186482 -88.24609375 165.26953125 C-88.18722551 200.58300757 -88.11268784 235.89641423 -88.01710747 271.20981041 C-88.00583918 275.3779918 -87.99470075 279.54617352 -87.98364258 283.71435547 C-87.98143889 284.54417251 -87.97923521 285.37398956 -87.97696475 286.22895257 C-87.9415833 299.66879793 -87.91672395 313.10864322 -87.89574673 326.5485179 C-87.87399143 340.33699549 -87.84094359 354.1254126 -87.79739219 367.91383874 C-87.77087079 376.4234262 -87.75317903 384.93293827 -87.74674771 393.44256501 C-87.74149531 399.27633356 -87.72528336 405.11000723 -87.70042809 410.94372495 C-87.68640776 414.3105493 -87.67886749 417.67705841 -87.68108559 421.04393387 C-87.68273142 424.69417218 -87.66609703 428.34388296 -87.64482117 431.99404907 C-87.64966874 433.05825565 -87.65451632 434.12246223 -87.65951079 435.21891749 C-87.59241111 442.17493298 -86.56331227 446.50174246 -81.99609375 451.95703125 C-76.92887928 456.21809796 -71.99186674 457.6437173 -65.4468565 457.6526413 C-64.79681681 457.65760081 -64.14677711 457.66256033 -63.47703925 457.66767013 C-61.30762642 457.68058197 -59.13883358 457.67225608 -56.96940613 457.66394043 C-55.3948135 457.66883145 -53.82022447 457.67502223 -52.24564153 457.68239832 C-47.92530785 457.69879437 -43.6051567 457.69648059 -39.28480279 457.69102335 C-34.62277322 457.68835273 -29.96079225 457.70288559 -25.29878235 457.71511841 C-16.16762815 457.73617351 -7.03653745 457.7407132 2.09463815 457.73893052 C9.51716272 457.73762289 16.93966749 457.7414271 24.36218834 457.74885559 C26.50026264 457.75095479 28.63833694 457.75305239 30.77641124 457.75514841 C31.84059611 457.75619194 32.90478097 457.75723547 34.00121387 457.75831062 C54.12835056 457.77721344 74.25545081 457.77616271 94.3825927 457.76934129 C112.79211661 457.76376627 131.20150133 457.78458944 149.61099271 457.81770176 C168.51638206 457.85144193 187.42170475 457.86660665 206.32712477 457.86198473 C216.9400413 457.85974031 227.55282919 457.86497916 238.16571999 457.88987732 C247.20132535 457.91089467 256.23673155 457.91447811 265.2723451 457.89557773 C269.88124745 457.88642246 274.48977851 457.88527043 279.09865189 457.90593338 C283.3211777 457.92465462 287.54302844 457.92012731 291.76552864 457.89738756 C293.28971435 457.89320467 294.81395193 457.89739145 296.33808277 457.9109835 C304.96227029 457.98263057 312.59800534 457.6452546 319.75390625 452.26953125 C327.29765239 443.71307666 325.43582353 430.9025487 325.36572266 420.23974609 C325.36926668 417.99511778 325.37504753 415.75049205 325.38288879 413.50587463 C325.39503986 408.68609025 325.3916332 403.86666025 325.37605667 399.04688644 C325.35169617 391.42386688 325.36325243 383.80115629 325.37973022 376.1781311 C325.39920413 365.49045966 325.40348258 354.80290965 325.39355469 344.11523438 C325.39293086 343.43813709 325.39230704 342.76103981 325.39166431 342.06342442 C325.39039301 340.69304969 325.38911877 339.32267496 325.3878416 337.95230023 C325.38720922 337.27289406 325.38657684 336.59348789 325.38592529 335.89349365 C325.38528715 335.21349923 325.384649 334.5335048 325.38399152 333.83290448 C325.37718221 326.27629881 325.37519448 318.71969443 325.375 311.16308594 C325.37497717 310.48621441 325.37495434 309.80934288 325.37493081 309.1119601 C325.37500011 297.81598477 325.38709929 286.52004346 325.40595949 275.22408259 C325.41746773 267.64777161 325.41304256 260.07168618 325.39593911 252.49538779 C325.38803842 247.7826993 325.39229437 243.0700764 325.39964867 238.35738945 C325.40045846 236.17410914 325.39611467 233.99081984 325.38620567 231.80756187 C325.37332129 228.82418553 325.37887152 225.84137673 325.38882446 222.85800171 C325.38056629 221.99709848 325.37230811 221.13619525 325.36379969 220.24920404 C325.41438895 213.83959243 326.42282048 208.17832088 330.55078125 203.02734375 C336.34042167 198.18720436 341.00172656 195.96809221 348.69140625 196.33203125 C355.47116025 197.21948763 360.01359372 200.03836134 364.19140625 205.39453125 C366.06798507 208.84743628 366.87852509 211.4165181 366.88533401 215.29085445 C366.88917516 216.11150857 366.8930163 216.93216268 366.89697385 217.77768511 C366.89610737 218.67902494 366.89524088 219.58036478 366.89434814 220.50901794 C366.89880483 221.94574021 366.89880483 221.94574021 366.90335155 223.41148716 C366.91205441 226.63558026 366.91354816 229.8596363 366.91503906 233.08374023 C366.91966628 235.38980692 366.92469081 237.69587284 366.93008423 240.00193787 C366.94322342 246.27922497 366.94965667 252.55650137 366.95409489 258.83380008 C366.95702443 262.7564863 366.96112911 266.67916958 366.96559906 270.60185432 C366.97771234 281.46987392 366.98809176 292.33789029 366.99147415 303.2059164 C366.99169372 303.90164855 366.99191328 304.5973807 366.9921395 305.31419564 C366.99235778 306.01157355 366.99257606 306.70895146 366.99280095 307.42746204 C366.99324441 308.84055738 366.99369098 310.25365271 366.99414062 311.66674805 C366.99436205 312.3676889 366.99458348 313.06862976 366.99481162 313.79081125 C366.99875385 325.13129746 367.01618874 336.47171918 367.03950015 347.81218051 C367.0632594 359.46502497 367.07542062 371.11783398 367.07684207 382.7707029 C367.07788904 389.30924924 367.08377346 395.84770475 367.10166168 402.38622856 C367.11817661 408.54299338 367.12028115 414.69959944 367.11152267 420.85637856 C367.11075402 423.11053773 367.11507231 425.36470555 367.12498093 427.61884308 C367.20904449 447.94263926 364.74471212 465.74721308 350.29272461 481.06445312 C338.54522551 492.73496475 323.58559517 499.38332903 306.9611578 499.40095901 C306.29966375 499.40301165 305.6381697 499.40506428 304.95663038 499.40717912 C302.74238455 499.41282881 300.52820133 499.41139439 298.31394958 499.40997314 C296.70936339 499.41255795 295.10477784 499.41557143 293.50019318 499.41897655 C289.09223023 499.42703633 284.68428358 499.42883555 280.27631414 499.42957401 C275.52152087 499.43142637 270.76673602 499.43897466 266.01194763 499.44570923 C255.61506858 499.45928618 245.21819339 499.46531638 234.82130694 499.46971989 C228.32749077 499.47248359 221.83367608 499.4767212 215.33986092 499.48122406 C197.35511462 499.49341628 179.37036951 499.50371544 161.38561916 499.50709915 C160.23473181 499.50731872 159.08384445 499.50753828 157.89808172 499.5077645 C156.74446158 499.50798278 155.59084144 499.50820106 154.4022631 499.50842595 C152.0646435 499.50886941 149.7270239 499.50931598 147.3894043 499.50976562 C145.65009922 499.51009777 145.65009922 499.51009777 143.87565667 499.51043662 C125.09307665 499.51438342 106.31053545 499.53183405 87.52797043 499.55512515 C68.23727447 499.57885293 48.94659797 499.59130167 29.65588719 499.59246707 C18.82770839 499.59338307 7.99958017 499.59911639 -2.82858467 499.61728668 C-12.05036624 499.63270697 -21.27208159 499.63779677 -30.4938736 499.62954858 C-35.19621946 499.62564882 -39.89843206 499.6265387 -44.60076141 499.64060593 C-48.91214853 499.65338528 -53.2233028 499.6521121 -57.53468978 499.64001521 C-59.08789654 499.63806517 -60.64112003 499.64110434 -62.19430334 499.64985958 C-80.98159278 499.7489911 -97.35350436 495.70732959 -111.18408203 482.52709961 C-124.06983921 469.63915321 -129.48067474 454.25853555 -129.52290475 436.25812042 C-129.51996321 434.8053705 -129.51682784 433.35262096 -129.51351929 431.89987183 C-129.51725973 430.33949315 -129.52186282 428.77911635 -129.52724993 427.21874249 C-129.53944683 422.94681772 -129.53922338 418.67497145 -129.53686118 414.40303326 C-129.53645217 409.78935231 -129.54750026 405.17569625 -129.55697632 400.56202698 C-129.5735696 391.52840664 -129.57908513 382.49481241 -129.58020107 373.46117811 C-129.58115243 366.11502607 -129.5852671 358.76888263 -129.59160233 351.42273331 C-129.6092109 330.57896396 -129.61844191 309.73521519 -129.61694138 288.89143835 C-129.61686147 287.76839651 -129.61678155 286.64535466 -129.61669922 285.48828125 C-129.61661746 284.36386242 -129.6165357 283.23944359 -129.61645146 282.08095147 C-129.61563888 263.86571674 -129.63477055 245.65056477 -129.66297595 227.43535398 C-129.6917319 208.71633531 -129.70551472 189.99735697 -129.7037884 171.27831566 C-129.70312539 160.77539139 -129.70857851 150.27255384 -129.7301445 139.76964951 C-129.74839207 130.82575527 -129.75267437 121.88198709 -129.73912565 112.93808226 C-129.73261378 108.37922332 -129.73241407 103.82060593 -129.74983215 99.26177025 C-129.76564735 95.0792415 -129.76261395 90.89714414 -129.74526389 86.71462537 C-129.74221244 85.21059781 -129.7457555 83.70653736 -129.75698404 82.20254861 C-129.88991597 63.11592013 -124.84231087 47.52265738 -111.48828125 33.44921875 C-94.90312058 17.32636221 -75.95161822 15.80874736 -53.99609375 16.08203125 C-51.88282204 16.09710521 -49.76953992 16.11078881 -47.65625 16.12304688 C-42.51927102 16.15583774 -37.38279908 16.20747068 -32.24609375 16.26953125 C-31.9521875 15.0165625 -31.65828125 13.76359375 -31.35546875 12.47265625 C-30.06426578 6.9680541 -27.75956383 3.43616444 -23.24609375 -0.04296875 C-15.96065694 -4.14102695 -7.27167316 -4.15734041 0 0 Z " fill="#22CE6A" transform="translate(137.24609375,7.73046875)"/>
<path d="M0 0 C1.54507736 -0.00744736 1.54507736 -0.00744736 3.12136841 -0.01504517 C6.51931432 -0.02961608 9.91721356 -0.03645999 13.31518555 -0.04199219 C15.68401592 -0.04774736 18.05284628 -0.05350505 20.42167664 -0.05926514 C25.38544938 -0.06976038 30.349206 -0.07561286 35.31298828 -0.07910156 C41.66138344 -0.08458622 48.00956412 -0.10862015 54.35789204 -0.13707352 C59.25048947 -0.15573078 64.14303552 -0.16090713 69.03566551 -0.16243744 C71.37554282 -0.16545699 73.71541937 -0.17346184 76.05526161 -0.18662262 C79.33388057 -0.20374901 82.61197899 -0.20178668 85.890625 -0.1953125 C86.84937027 -0.20452728 87.80811554 -0.21374207 88.7959137 -0.22323608 C96.13470077 -0.17802577 103.05058699 0.91316267 109.0144043 5.47363281 C113.52925191 10.09597679 115.40979936 14.78005651 115.78833008 21.1784668 C115.21936857 32.57355328 107.79818554 44.88299787 103.1725769 55.19000244 C101.04266169 59.93802164 98.93095916 64.69412721 96.8190918 69.45019531 C96.38561935 70.42580414 95.95214691 71.40141296 95.50553894 72.40658569 C91.10593568 82.32812585 86.83243211 92.3021454 82.5769043 102.28613281 C75.83977298 118.08099168 69.00178189 133.82835059 62.06396484 149.53613281 C58.59880546 157.38653164 55.16205848 165.24503697 51.83081055 173.15332031 C51.23959345 174.54890137 50.64820823 175.94441123 50.05664062 177.33984375 C48.9813103 179.87694823 47.92257576 182.41890394 46.87255859 184.96679688 C43.67668522 192.50912322 40.67099967 198.71055523 33.4519043 203.09863281 C26.95507829 204.90922367 20.53260313 205.36807898 14.2644043 202.53613281 C9.51984251 199.77495341 6.66345687 196.35553119 4.3269043 191.34863281 C2.43461912 182.57531062 4.31227494 176.33979455 7.9519043 168.28613281 C8.43264404 167.18664307 8.91338379 166.08715332 9.40869141 164.9543457 C10.51124959 162.44062139 11.61997711 159.93065501 12.73901367 157.42431641 C14.83204562 152.73591934 16.89960056 148.03642484 18.9675293 143.33691406 C22.18485507 136.03202599 25.41275 128.73188349 28.6472168 121.43457031 C33.10008574 111.38656625 37.53691446 101.33160119 41.95797729 91.26956177 C42.68053229 89.62551022 43.40358049 87.9816753 44.12722778 86.33810425 C50.73720649 71.32450311 57.19350366 56.24570346 63.6394043 41.16113281 C62.66523056 41.17001526 61.69105682 41.17889771 60.68736267 41.18804932 C51.49201886 41.26925128 42.29674811 41.32915385 33.10112667 41.3683815 C28.373906 41.38922713 23.64697554 41.41748931 18.91992188 41.46289062 C14.35522687 41.50645655 9.79081045 41.53029267 5.22592354 41.54064178 C3.4872353 41.5480139 1.74856175 41.56241003 0.0099926 41.58405304 C-2.43165771 41.61323065 -4.87216733 41.61708294 -7.31396484 41.61523438 C-8.38427696 41.63680603 -8.38427696 41.63680603 -9.47621155 41.65881348 C-15.50112762 41.60968558 -19.63394446 39.65692342 -24.06762695 35.59863281 C-29.38521354 28.68389124 -30.10657649 23.84481539 -29.3605957 15.16113281 C-27.13207567 8.71015376 -22.46386575 4.13833771 -16.3605957 1.16113281 C-10.92759635 -0.06716247 -5.53887693 0.00641746 0 0 Z " fill="#22CE6A" transform="translate(223.360595703125,216.8388671875)"/>
</svg>
