<?xml version="1.0" encoding="UTF-8"?>
<svg version="1.1" xmlns="http://www.w3.org/2000/svg" width="512" height="512">
<path d="M0 0 C5.39687095 5.52679562 7.69527613 12.49112027 8.90820312 19.95263672 C9.06538818 20.86762939 9.22257324 21.78262207 9.38452148 22.7253418 C13.90231577 50.82884447 15.51530789 79.53878458 17.84570312 107.89013672 C18.38517578 107.6779248 18.92464844 107.46571289 19.48046875 107.24707031 C25.23910008 105.13400417 30.23603398 104.42543521 36.34570312 104.51513672 C37.13589844 104.50353516 37.92609375 104.49193359 38.74023438 104.47998047 C48.83483089 104.52954477 55.39882113 107.60280987 62.66992188 114.53466797 C65.62048481 117.72890397 68.84570312 121.32519833 68.84570312 125.89013672 C69.84988281 125.84373047 70.8540625 125.79732422 71.88867188 125.74951172 C86.13880298 125.29056466 97.73927359 128.02293264 108.74023438 137.52685547 C116.7709675 145.5925809 119.96892695 158.16531324 122.84570312 168.89013672 C123.86148437 169.03708984 124.87726563 169.18404297 125.92382812 169.33544922 C138.71910212 171.35279945 151.48618875 175.159278 159.45898438 186.10498047 C168.57748815 200.4275931 170.44598076 216.58940944 172.18164062 233.10888672 C173.78324339 247.91412479 175.81902659 262.64709896 177.90820312 277.39013672 C184.29130937 322.49547328 184.29130937 322.49547328 184.28320312 345.07763672 C184.28430588 346.43717972 184.28430588 346.43717972 184.28543091 347.82418823 C184.24860354 365.2954371 182.3518643 381.75984354 178.84570312 398.89013672 C178.70096558 399.60590881 178.55622803 400.32168091 178.40710449 401.05914307 C176.93278589 408.34829975 175.42237101 415.62904201 173.81996155 422.89120483 C173.40796391 424.7675436 173.00824619 426.64656552 172.60888672 428.52563477 C172.13812547 430.6009901 171.61048189 432.66547814 170.99267578 434.7019043 C169.95048267 438.37240715 169.41799287 440.75386831 170.78637695 444.38916016 C172.24998296 446.99750705 173.85301396 449.3975535 175.59570312 451.82763672 C176.1603125 452.66359375 176.72492188 453.49955078 177.30664062 454.36083984 C178.79480732 456.55606205 180.31575267 458.72398827 181.84570312 460.89013672 C184.307908 464.58344403 184.51841015 467.60378552 183.84570312 471.89013672 C182.34570312 474.39013672 182.34570312 474.39013672 179.84570312 475.89013672 C174.42743389 476.66417518 174.42743389 476.66417518 171.84570312 475.89013672 C166.38963677 471.50462383 162.88706482 465.31540876 159.09570312 459.51513672 C158.06896484 457.99146484 158.06896484 457.99146484 157.02148438 456.43701172 C156.37050781 455.44443359 155.71953125 454.45185547 155.04882812 453.42919922 C154.16179199 452.08656006 154.16179199 452.08656006 153.25683594 450.71679688 C150.31688663 444.82774272 150.73989291 439.95355389 152.32226562 433.71826172 C152.48784973 433.04646378 152.65343384 432.37466583 152.82403564 431.68251038 C153.17896459 430.24471398 153.53917494 428.80821264 153.90423584 427.37295532 C154.86845879 423.57232113 155.78687063 419.76070032 156.70507812 415.94873047 C156.89024994 415.18227707 157.07542175 414.41582367 157.26620483 413.62614441 C159.93537552 402.47311484 161.97156535 391.20175228 163.84570312 379.89013672 C163.97170898 379.13265137 164.09771484 378.37516602 164.22753906 377.59472656 C164.91024131 373.36987333 165.43200895 369.14930627 165.84570312 364.89013672 C165.94625 363.9054541 165.94625 363.9054541 166.04882812 362.90087891 C168.78710015 334.42548284 163.55962068 305.62544734 159.62597656 277.49072266 C158.54870733 269.78032022 157.51127184 262.06461251 156.4732666 254.34884644 C156.16192497 252.04270483 155.8475675 249.73699435 155.53222656 247.43139648 C154.64463942 240.92933054 153.77655799 234.42740311 153.00976562 227.90966797 C151.4077095 209.75901721 151.4077095 209.75901721 142.68945312 194.29248047 C137.96537325 190.69937734 132.73287527 188.89013672 126.84570312 188.89013672 C127.05573975 190.21634033 127.05573975 190.21634033 127.27001953 191.56933594 C128.61365367 200.69440563 129.21840151 209.62478799 129.21630859 218.84619141 C129.22077189 221.04907769 129.25753297 223.2500904 129.29492188 225.45263672 C129.30077694 226.87190085 129.30475508 228.29117426 129.30664062 229.71044922 C129.3148584 230.97131348 129.32307617 232.23217773 129.33154297 233.53125 C128.75842354 237.49355006 127.70189354 239.12836582 124.84570312 241.89013672 C120.83766715 243.05611082 118.79287601 243.32254173 114.97070312 241.57763672 C112.84570313 239.89013672 112.84570313 239.89013672 111.84570312 237.89013672 C111.73790149 235.78661332 111.69006361 233.67991807 111.66992188 231.57373047 C111.63833054 188.55529122 111.63833054 188.55529122 95.84570312 149.89013672 C90.95810076 145.44102822 85.41671317 144.5124628 79.02539062 143.76513672 C78.3330835 143.67876953 77.64077637 143.59240234 76.92749023 143.50341797 C75.23428921 143.29304614 73.54008655 143.09076281 71.84570312 142.89013672 C71.91865097 143.65053757 71.99159882 144.41093842 72.0667572 145.19438171 C72.75931761 152.41584498 73.45069621 159.63742001 74.14079952 166.85911846 C74.49549358 170.5704468 74.8506194 174.28173269 75.20678711 177.99291992 C75.55150066 181.58493406 75.89500805 185.17706181 76.23773384 188.76926613 C76.43021584 190.78356685 76.62389671 192.7977529 76.81761169 194.81193542 C78.93628079 217.05462846 78.93628079 217.05462846 79.15820312 225.45263672 C79.21427734 226.87769531 79.21427734 226.87769531 79.27148438 228.33154297 C78.71196484 231.69379337 77.49352182 232.81239998 74.84570312 234.89013672 C71.40820312 235.89013672 71.40820312 235.89013672 67.84570312 235.89013672 C65.04380867 234.12372499 63.33045402 232.8596385 61.84570312 229.89013672 C61.5281388 227.14234302 61.26128357 224.4072055 61.02954102 221.65185547 C60.95457901 220.79955856 60.879617 219.94726166 60.80238342 219.06913757 C60.6396572 217.21354407 60.4787889 215.35778693 60.31953621 213.50189209 C60.06668878 210.55818727 59.80854951 207.61499023 59.54893494 204.671875 C58.81169237 196.30175556 58.0850059 187.93072439 57.35961914 179.55957031 C56.91571312 174.44104294 56.46637438 169.323014 56.01397514 164.20523071 C55.76046487 161.31759609 55.51335739 158.42945869 55.26637268 155.54125977 C55.10834686 153.74866746 54.94999261 151.95610406 54.79125977 150.16357422 C54.72521545 149.37045334 54.65917114 148.57733246 54.59112549 147.76017761 C53.61906577 135.44464241 53.61906577 135.44464241 47.84570312 124.89013672 C43.84645696 122.82669588 40.37274715 122.59217921 35.90820312 122.57763672 C34.72355469 122.56087891 33.53890625 122.54412109 32.31835938 122.52685547 C28.53433781 122.92270924 26.14964199 124.06743973 22.84570312 125.89013672 C22.18570313 125.89013672 21.52570313 125.89013672 20.84570312 125.89013672 C18.12726514 134.76126561 18.9636028 143.44863103 19.49023438 152.57373047 C19.58150012 154.31456252 19.67162136 156.0554549 19.76066589 157.79640198 C19.99785276 162.37860067 20.24937527 166.95989777 20.5043335 171.5411377 C20.75667106 176.1108399 20.99741323 180.68114603 21.23828125 185.25146484 C21.28534651 186.14224039 21.33241177 187.03301594 21.38090324 187.95078468 C21.52171526 190.61675602 21.66226717 193.28274094 21.80273438 195.94873047 C21.84865849 196.81969738 21.8945826 197.69066429 21.94189835 198.58802414 C22.20559213 203.59341458 22.46735458 208.59890019 22.72675323 213.60451508 C22.8404189 215.78860031 22.95598112 217.97257881 23.07171631 220.15655518 C23.26230566 223.82901529 23.43797184 227.50180585 23.60742188 231.17529297 C23.66348099 232.21382919 23.7195401 233.25236542 23.77729797 234.32237244 C24.14438217 242.91624228 24.14438217 242.91624228 21.84570312 246.89013672 C19.53384575 249.28456043 18.21680713 249.83486591 14.90820312 250.32763672 C11.06701557 249.77889564 9.49892999 248.69497655 6.84570312 245.89013672 C5.70481969 241.81324384 5.61044653 237.70490922 5.4284668 233.49121094 C5.39564102 232.75789047 5.36281525 232.02457001 5.32899475 231.26902771 C5.25792453 229.67075848 5.18863091 228.07240948 5.12090111 226.47399521 C5.01147421 223.89298886 4.89736528 221.31222583 4.78205872 218.73147583 C4.61638777 215.01652703 4.45245793 211.30150749 4.28979492 207.58642578 C2.15726232 159.03069177 -0.06322844 110.44761969 -4.21679688 62.01513672 C-4.29293213 61.11553223 -4.36906738 60.21592773 -4.44750977 59.2890625 C-5.26950418 49.71314058 -6.28496385 40.16338576 -7.52539062 30.63232422 C-7.62739273 29.77518829 -7.72939484 28.91805237 -7.83448792 28.03494263 C-8.6285494 22.26701014 -10.30811517 17.9748266 -13.15429688 12.89013672 C-18.45761144 12.57193785 -21.53490963 13.31187407 -26.15429688 15.89013672 C-26.81429687 15.89013672 -27.47429687 15.89013672 -28.15429688 15.89013672 C-28.1515315 16.93588427 -28.14876612 17.98163181 -28.14591694 19.05906868 C-28.07848833 44.83408881 -28.02963476 70.60909717 -27.99886036 96.3841877 C-27.98357205 108.85023323 -27.9627509 121.31621895 -27.92797852 133.78222656 C-27.66561548 229.89180755 -27.66561548 229.89180755 -29.47851562 267.44482422 C-29.53711069 268.71495487 -29.59570576 269.98508553 -29.65607643 271.29370499 C-29.82233982 274.74372714 -30.01056855 278.19150024 -30.21166992 281.63964844 C-30.2612277 282.61236065 -30.31078548 283.58507286 -30.36184502 284.5872612 C-30.70153125 289.67857982 -31.3520841 293.47474044 -34.15429688 297.89013672 C-36.67890379 299.89241117 -37.91476119 299.90011737 -41.15429688 299.76513672 C-44.84383932 298.68902017 -45.9682526 298.07415773 -48.15429688 294.89013672 C-48.45598994 291.29081406 -48.13730962 287.73872553 -47.90429688 284.14013672 C-47.49634151 276.89826516 -47.49634151 276.89826516 -49.60351562 270.15576172 C-51.57411595 268.34896922 -51.57411595 268.34896922 -53.79882812 266.78076172 C-56.8387345 264.34077053 -58.73748118 261.40669451 -60.77929688 258.14013672 C-61.16142334 257.5365332 -61.5435498 256.93292969 -61.93725586 256.31103516 C-64.2789725 252.528301 -66.27166628 248.67583103 -68.15429688 244.64013672 C-77.07945494 226.15055308 -95.52132932 215.42764648 -114.15429688 208.89013672 C-121.2902474 207.19013139 -126.67196302 207.51932311 -133.15429688 210.89013672 C-134.65904775 213.89963847 -134.57822329 215.4987254 -134.15429688 218.89013672 C-130.52544171 226.79882489 -124.70346856 233.28721727 -119.15429688 239.89013672 C-101.65597211 260.98342928 -90.47465988 282.01928184 -81.41015625 307.96899414 C-78.32679669 316.68767082 -74.62557 324.80614721 -70.15429688 332.89013672 C-69.54199219 334.01677734 -68.9296875 335.14341797 -68.29882812 336.30419922 C-64.56174752 343.00782835 -60.53277452 349.48612306 -56.40429688 355.95263672 C-48.849338 367.79347848 -41.83451735 379.94754362 -35.23632812 392.34716797 C-24.45696574 412.57023326 -11.26634231 423.30655222 8.67504883 434.27441406 C9.83653442 434.91950928 9.83653442 434.91950928 11.02148438 435.57763672 C11.71153564 435.95275391 12.40158691 436.32787109 13.11254883 436.71435547 C14.84570312 437.89013672 14.84570312 437.89013672 16.84570312 440.89013672 C17.41121687 445.25267135 17.33892963 447.1876626 14.78320312 450.82763672 C11.04422084 453.4528796 9.35994649 453.33225334 4.84570312 452.89013672 C2.14802945 451.87783816 -0.25138305 450.49719634 -2.71679688 449.01513672 C-3.4093457 448.61020996 -4.10189453 448.2052832 -4.81542969 447.78808594 C-23.81414227 436.48510928 -39.82873692 423.30442857 -49.77929688 403.20263672 C-57.545265 387.9420653 -66.28253175 373.3342159 -75.46679688 358.89013672 C-86.0585151 342.20492837 -93.88828567 325.57255697 -100.86962891 307.09521484 C-108.68156668 286.46528567 -117.56170515 269.58218836 -131.96459961 252.85864258 C-153.32933954 227.90604638 -153.32933954 227.90604638 -152.56445312 212.74560547 C-151.49043491 205.26839294 -148.3892666 200.09038945 -142.47460938 195.39794922 C-133.3202049 189.44912745 -123.79865167 188.76211599 -113.18945312 190.32763672 C-91.49762876 194.98628356 -68.78977058 209.64383489 -56.52539062 228.10986328 C-53.04436748 233.52957506 -49.84823365 239.03375243 -47.15429688 244.89013672 C-46.09477341 234.19105963 -46.02431034 223.58686797 -46.05664062 212.84716797 C-46.05856373 210.95816589 -46.06002567 209.06916329 -46.06106567 207.18016052 C-46.06420918 203.13486772 -46.07045153 199.08959619 -46.07913208 195.04431152 C-46.0927559 188.62736171 -46.09857049 182.21041873 -46.10327148 175.79345703 C-46.11527417 161.00461575 -46.13728063 146.21579265 -46.15950012 131.42696381 C-46.17975818 117.88421343 -46.19781685 104.34146943 -46.20771503 90.79870701 C-46.21265042 84.44120112 -46.22243917 78.08372814 -46.23614502 71.72623539 C-46.24369446 67.74277943 -46.24693803 63.75932773 -46.24911118 59.77586555 C-46.25095654 57.95280758 -46.25450214 56.12975024 -46.2600441 54.30669975 C-46.28810281 44.76210347 -46.16732788 35.235075 -45.77319336 25.69775391 C-45.74271691 24.84895283 -45.71224047 24.00015175 -45.68084049 23.12562943 C-45.04585199 9.60183979 -45.04585199 9.60183979 -41.59570312 4.65576172 C-29.78648928 -4.87017377 -12.95541314 -11.26665868 0 0 Z " fill="#22CE6A" transform="translate(328.154296875,36.10986328125)"/>
<path d="M0 0 C11.64706192 8.64624337 21.35826569 20.9972936 23.54541016 35.65527344 C23.6954248 36.7590332 23.84543945 37.86279297 24 39 C25.4226416 38.9685791 25.4226416 38.9685791 26.87402344 38.93652344 C30.40016425 38.8682644 33.92560099 38.81816071 37.45214844 38.78027344 C38.97700085 38.76018401 40.50177648 38.73290684 42.02636719 38.69824219 C44.22089598 38.64960204 46.41440469 38.62700604 48.609375 38.609375 C50.5888916 38.5779541 50.5888916 38.5779541 52.60839844 38.54589844 C56 39 56 39 58.42871094 40.89941406 C60.1314967 43.17579204 60.54382814 44.19499932 60.5 47 C60.51546875 47.99 60.51546875 47.99 60.53125 49 C59.73716585 51.98949329 58.42942996 53.10002361 56 55 C52.60839844 55.45410156 52.60839844 55.45410156 48.609375 55.390625 C47.55245453 55.38213531 47.55245453 55.38213531 46.47418213 55.37347412 C44.23208572 55.35115078 41.99161012 55.30096754 39.75 55.25 C38.22658565 55.22992952 36.70314614 55.2116797 35.1796875 55.1953125 C31.4526017 55.15130118 27.72645913 55.08230372 24 55 C23.89115479 55.64066406 23.78230957 56.28132813 23.67016602 56.94140625 C20.89713234 72.12309393 12.80560068 84.81140012 0.08203125 93.6953125 C-14.08003174 102.56985103 -29.85843075 105.47942884 -46.25 101.875 C-61.5061815 97.3806114 -73.53418559 88.49246562 -81.6015625 74.69921875 C-85.00713561 68.12589188 -87.00143472 62.34712368 -88 55 C-88.89121866 55.00553076 -88.89121866 55.00553076 -89.80044174 55.01117325 C-104.25567163 55.09950112 -118.71087744 55.16569826 -133.16631699 55.20724869 C-140.156875 55.22787618 -147.1472529 55.25600001 -154.13769531 55.30175781 C-160.88094822 55.34587654 -167.62397514 55.36912245 -174.36737823 55.37950897 C-176.9430664 55.38691302 -179.51874406 55.40137091 -182.09435272 55.42292023 C-185.69561605 55.45185884 -189.29610048 55.45595985 -192.89746094 55.45410156 C-194.50291779 55.47567322 -194.50291779 55.47567322 -196.14080811 55.49768066 C-203.36084072 55.45723355 -203.36084072 55.45723355 -206.66070557 53.09661865 C-208.10161024 50.84093272 -208.54151149 49.65673538 -208.5 47 C-208.5103125 46.34 -208.520625 45.68 -208.53125 45 C-207.69405332 41.84820074 -206.6871978 40.92233302 -204 39 C-200.30463278 38.39885977 -196.63345036 38.49569997 -192.89746094 38.54589844 C-191.76546265 38.54531433 -190.63346436 38.54473022 -189.46716309 38.54412842 C-185.72258932 38.54691687 -181.97880985 38.57804648 -178.234375 38.609375 C-175.63934769 38.61683464 -173.04431474 38.62252888 -170.44927979 38.62652588 C-164.31521684 38.640242 -158.18148208 38.6717725 -152.04754281 38.71192384 C-145.06334278 38.7566475 -138.07912905 38.77863002 -131.09482145 38.79870558 C-116.72972772 38.84050565 -102.364874 38.91085393 -88 39 C-87.87198502 38.32090576 -87.74397003 37.64181152 -87.61207581 36.94213867 C-87.43917526 36.0472876 -87.26627472 35.15243652 -87.08813477 34.23046875 C-86.83423729 32.90245239 -86.83423729 32.90245239 -86.57521057 31.54760742 C-83.70053163 18.81565539 -74.61040555 7.65586009 -64.08203125 0.3046875 C-44.17895814 -12.16740709 -20.02388291 -12.71892175 0 0 Z M-64.4609375 23.84765625 C-71.33823397 33.46539826 -72.14844378 44.54447043 -71 56 C-68.47281894 66.83605926 -61.46252745 75.31239939 -52.3125 81.4375 C-42.08159639 86.99639655 -31.1486394 88.23049354 -20 85 C-7.6448282 80.36869629 -0.73967716 73.53686857 4.87109375 61.734375 C8.44699905 53.07301267 8.37000399 41.86073794 5.375 33 C1.01731032 22.82189962 -6.48098623 14.91136307 -16.4375 10.0625 C-34.43026484 3.18425319 -52.40501102 9.50715923 -64.4609375 23.84765625 Z " fill="#22CE6A" transform="translate(208,409)"/>
<path d="M0 0 C2.19514535 1.64281845 2.88271852 2.42627166 3.43359375 5.12109375 C3.43987697 8.84704141 3.41151974 11.29698712 1.5 14.5625 C-1.96718202 16.55612966 -5.14258685 16.5902803 -9 16 C-9.92683594 15.67 -10.85367187 15.34 -11.80859375 15 C-20.41385279 12.30361528 -30.26941195 13.16723389 -38.5078125 16.6875 C-48.08127734 21.72932475 -54.61497777 29.07625655 -58.16796875 39.390625 C-60.47989058 49.41980704 -59.94141146 59.87739424 -55 69 C-53.61767793 70.94158215 -52.1996989 72.85819434 -50.75 74.75 C-46.43110505 80.39840553 -46.43110505 80.39840553 -46.25 83.9375 C-47.15035791 87.61396147 -47.84793286 88.8986219 -51 91 C-54.25 92.1875 -54.25 92.1875 -58 92 C-67.04311907 86.89099375 -72.38817044 76.74037481 -75.203125 67.1328125 C-75.54504883 65.9792627 -75.88697266 64.82571289 -76.23925781 63.63720703 C-76.49030273 62.76692871 -76.74134766 61.89665039 -77 61 C-78.81889048 60.99780016 -78.81889048 60.99780016 -80.67452621 60.99555588 C-109.44666376 60.95986867 -138.21871206 60.90364893 -166.99075447 60.82207905 C-170.53061975 60.81206136 -174.0704855 60.80221727 -177.61035156 60.79248047 C-178.31508741 60.7905391 -179.01982325 60.78859772 -179.74591473 60.78659752 C-191.16309347 60.75556019 -202.58025211 60.73859205 -213.9974651 60.72680578 C-225.70899041 60.71440317 -237.42041001 60.686922 -249.1318686 60.64538693 C-255.71156255 60.62270885 -262.29110548 60.60709312 -268.87084198 60.60811615 C-275.05964458 60.60885901 -281.24811254 60.59105894 -287.43682861 60.55883217 C-289.71206386 60.55029016 -291.98733645 60.54861216 -294.26258087 60.55419731 C-297.36195266 60.56079398 -300.46024615 60.54302028 -303.55950928 60.51898193 C-304.91942793 60.53062256 -304.91942793 60.53062256 -306.30681968 60.54249835 C-312.38517664 60.45866857 -312.38517664 60.45866857 -315.55682755 58.09256363 C-317.11741469 55.82975167 -317.5425257 54.72164502 -317.5 52 C-317.5103125 51.34 -317.520625 50.68 -317.53125 50 C-316.71471701 46.92599345 -315.56324791 45.90984737 -313 44 C-309.8577206 43.40117978 -306.74979362 43.47798187 -303.55950928 43.51898193 C-302.59237322 43.51556423 -301.62523716 43.51214653 -300.62879395 43.50862527 C-297.37950895 43.50202278 -294.13104517 43.52406209 -290.88183594 43.54589844 C-288.55615254 43.5470264 -286.23046772 43.54639406 -283.90478516 43.54412842 C-277.58278543 43.54297835 -271.26108781 43.56653529 -264.93915844 43.59442425 C-259.00420666 43.61686087 -253.06926679 43.62091467 -247.13427833 43.62503174 C-235.3788498 43.63378634 -223.6235323 43.66040634 -211.86816406 43.69824219 C-200.44889888 43.73495804 -189.02966385 43.76327186 -177.61035156 43.78027344 C-176.9064715 43.78132433 -176.20259144 43.78237523 -175.47738168 43.78345796 C-171.94622359 43.78867811 -168.41506529 43.79373295 -164.88390684 43.79870558 C-135.58919964 43.84017274 -106.294601 43.91092298 -77 44 C-76.85449707 42.74823975 -76.70899414 41.49647949 -76.55908203 40.20678711 C-75.38041663 30.06674045 -70.79474387 21.46145151 -64 14 C-63.39285156 13.30132813 -62.78570312 12.60265625 -62.16015625 11.8828125 C-47.08883368 -4.4521588 -20.17002762 -9.5424656 0 0 Z " fill="#22CE6A" transform="translate(317,4)"/>
<path d="M0 0 C0.96164063 0.45890625 1.92328125 0.9178125 2.9140625 1.390625 C16.49270681 8.34464769 26.08629427 19.39220039 31 34 C31.37279605 35.72519807 31.72568372 37.45476895 32.06298828 39.18725586 C32.23951935 40.08834579 32.41605042 40.98943573 32.59793091 41.91783142 C32.79695511 42.94850487 32.79695511 42.94850487 33 44 C34.31194336 43.97905273 35.62388672 43.95810547 36.97558594 43.93652344 C41.84331344 43.8641203 46.71099335 43.81819887 51.57910156 43.78027344 C53.68595382 43.76015874 55.79275025 43.73286333 57.89941406 43.69824219 C60.92787447 43.64971832 63.95559678 43.62702984 66.984375 43.609375 C67.92617615 43.58872986 68.86797729 43.56808472 69.83831787 43.54681396 C76.37832075 43.54457019 76.37832075 43.54457019 79.59277344 45.89941406 C81.1095314 48.16349899 81.54219507 49.29951563 81.5 52 C81.51546875 52.99 81.51546875 52.99 81.53125 54 C80.70735266 57.10173118 79.60860113 58.08899088 77 60 C73.66071699 60.56596343 70.36266243 60.46468015 66.984375 60.390625 C66.01340881 60.38496521 65.04244263 60.37930542 64.04205322 60.37347412 C60.94419831 60.35110311 57.84750467 60.30090473 54.75 60.25 C52.64845422 60.22993597 50.54689028 60.21168503 48.4453125 60.1953125 C43.2964283 60.1512358 38.14841097 60.08220258 33 60 C32.87615433 60.67238708 32.75230865 61.34477417 32.62471008 62.03753662 C32.45505234 62.92717102 32.28539459 63.81680542 32.1105957 64.73339844 C31.94550003 65.61203552 31.78040436 66.49067261 31.61030579 67.39593506 C30.69125778 71.3173475 29.05007252 74.70023843 27.1875 78.25 C26.85685547 78.91773438 26.52621094 79.58546875 26.18554688 80.2734375 C18.97409096 94.39183488 6.38221519 102.00455414 -8.23828125 107.13671875 C-23.14119152 110.55680512 -39.4067776 108.79531402 -52.55859375 100.9453125 C-65.21184977 92.89485109 -74.20919268 81.47664444 -78.3046875 66.953125 C-81.45547982 51.65848607 -79.78297276 35.57055633 -71.6875 22.1875 C-70.4839859 20.44038184 -69.25610492 18.70969836 -68 17 C-67.49984375 16.29230469 -66.9996875 15.58460938 -66.484375 14.85546875 C-51.6385218 -4.15172209 -21.50636964 -10.4625582 0 0 Z M-55.4609375 28.84765625 C-62.33823397 38.46539826 -63.14844378 49.54447043 -62 61 C-59.47281894 71.83605926 -52.46252745 80.31239939 -43.3125 86.4375 C-33.08159639 91.99639655 -22.1486394 93.23049354 -11 90 C1.3551718 85.36869629 8.26032284 78.53686857 13.87109375 66.734375 C17.44699905 58.07301267 17.37000399 46.86073794 14.375 38 C10.01731032 27.82189962 2.51901377 19.91136307 -7.4375 15.0625 C-25.43026484 8.18425319 -43.40501102 14.50715923 -55.4609375 28.84765625 Z " fill="#22CE6A" transform="translate(79,204)"/>
<path d="M0 0 C1.27866943 -0.0112793 2.55733887 -0.02255859 3.87475586 -0.03417969 C5.28955305 -0.02640266 6.704348 -0.01821 8.11914062 -0.00964355 C9.61076542 -0.01506435 11.10238485 -0.02218677 12.59399414 -0.03088379 C16.6436169 -0.04912547 20.69283223 -0.04204633 24.74246216 -0.02936745 C28.97936099 -0.01924407 33.21622481 -0.02863128 37.453125 -0.03491211 C44.56842312 -0.04219046 51.68355521 -0.03259594 58.79882812 -0.0135498 C67.02641862 0.00821938 75.25361265 0.00116814 83.48119354 -0.02085543 C90.54373317 -0.03900413 97.6061534 -0.04157037 104.6687088 -0.03110075 C108.88752237 -0.02486287 113.10614956 -0.02403817 117.32495117 -0.0372467 C121.29119435 -0.04879699 125.25692611 -0.04079505 129.22311401 -0.01766968 C130.6791804 -0.01237811 132.1352898 -0.01390409 133.59133911 -0.02272034 C135.57780425 -0.03363977 137.56436338 -0.01752243 139.55078125 0 C141.21880798 0.00226215 141.21880798 0.00226215 142.92053223 0.00457001 C146.42748135 0.62291028 147.6037293 1.74310328 149.77539062 4.50793457 C150.30664062 6.50793457 150.30664062 6.50793457 150.27539062 8.50793457 C150.29085937 9.49793457 150.29085937 9.49793457 150.30664062 10.50793457 C149.52474835 13.45152901 148.12782438 14.6039415 145.77539062 16.50793457 C142.92053223 17.01129913 142.92053223 17.01129913 139.55078125 17.01586914 C138.27211182 17.02714844 136.99344238 17.03842773 135.67602539 17.05004883 C134.2612282 17.0422718 132.84643325 17.03407914 131.43164062 17.0255127 C129.94001583 17.03093349 128.4483964 17.03805591 126.95678711 17.04675293 C122.90716435 17.06499461 118.85794902 17.05791547 114.80831909 17.04523659 C110.57142026 17.03511321 106.33455644 17.04450042 102.09765625 17.05078125 C94.98235813 17.0580596 87.86722604 17.04846509 80.75195312 17.02941895 C72.52436263 17.00764976 64.2971686 17.014701 56.06958771 17.03672457 C49.00704808 17.05487327 41.94462785 17.05743951 34.88207245 17.04696989 C30.66325888 17.04073201 26.44463169 17.03990731 22.22583008 17.05311584 C18.2595869 17.06466613 14.29385514 17.05666419 10.32766724 17.03353882 C8.87160085 17.02824725 7.41549145 17.02977323 5.95944214 17.03858948 C3.972977 17.04950891 1.98641787 17.03339157 0 17.01586914 C-1.66802673 17.01360699 -1.66802673 17.01360699 -3.36975098 17.01129913 C-6.8767001 16.39295886 -8.05294805 15.27276586 -10.22460938 12.50793457 C-10.75585938 10.50793457 -10.75585938 10.50793457 -10.72460938 8.50793457 C-10.74007813 7.51793457 -10.74007813 7.51793457 -10.75585938 6.50793457 C-9.2677065 0.9054767 -5.22342768 0.00708394 0 0 Z " fill="#23CE6B" transform="translate(362.224609375,47.4920654296875)"/>
</svg>
