<?xml version="1.0" encoding="UTF-8"?>
<svg version="1.1" xmlns="http://www.w3.org/2000/svg" width="398" height="403">
<path d="M0 0 C1.57201172 0.66128906 1.57201172 0.66128906 3.17578125 1.3359375 C13.19084314 5.92562149 22.59269948 12.84648716 29.75 21.25 C31.5843189 23.16962168 32.3968867 23.98314149 35.09619141 24.05859375 C35.88171387 23.93613281 36.66723633 23.81367187 37.4765625 23.6875 C64.16606008 20.20583952 91.8014295 24.44855578 113.6875 40.9375 C115.81536176 42.59832542 117.90825014 44.29334217 120 46 C120.99 46.66 121.98 47.32 123 48 C123 48.66 123 49.32 123 50 C123.61875 50.2475 124.2375 50.495 124.875 50.75 C127.35068687 52.20628639 127.95125002 53.37812506 129 56 C129.66 56 130.32 56 131 56 C149.02528241 75.86801574 157.6647946 101.03772029 157.1953125 127.6640625 C156.27078809 143.45493943 156.27078809 143.45493943 153.8671875 150.16015625 C152.86825275 153.43144257 152.84326631 154.79788313 154 158 C155.46613179 160.18633688 156.95515135 162.23748901 158.5625 164.3125 C174.33629291 185.72039798 180.57386305 211.44565227 177.3125 237.875 C174.08154939 257.46124543 167.27922627 273.36720353 155 289 C154.30390625 289.92554688 153.6078125 290.85109375 152.890625 291.8046875 C152.26671875 292.52914063 151.6428125 293.25359375 151 294 C150.34 294 149.68 294 149 294 C148.67 294.99 148.34 295.98 148 297 C147.34 297 146.68 297 146 297 C145.67 297.99 145.34 298.98 145 300 C142.92802082 301.69068772 140.88034833 303.23209592 138.6875 304.75 C138.05448975 305.19174561 137.42147949 305.63349121 136.76928711 306.08862305 C125.31583984 313.99254902 114.06136535 320.12787485 100.2421875 322.69921875 C96.73210896 323.71778888 96.73210896 323.71778888 95.21484375 327.125 C94.76506478 328.40850743 94.34036356 329.70100292 93.9375 331 C93.4476528 332.37463779 92.95152543 333.74705344 92.44921875 335.1171875 C92.2073584 335.78588867 91.96549805 336.45458984 91.71630859 337.14355469 C87.18183461 348.89547704 77.78489955 359.75886041 68.625 368.25 C68.12532715 368.71591553 67.6256543 369.18183105 67.11083984 369.66186523 C64.52750671 371.96750968 62.49058032 373.5698811 59 374 C59 374.66 59 375.32 59 376 C35.8751529 390.52376204 9.42591992 397.79861243 -17.8125 392.8125 C-38.60870109 387.97355711 -59.31454058 379.52725644 -72.828125 362.30078125 C-75.79382957 360.52455891 -78.05327706 361.1302728 -81.36816406 361.63452148 C-105.43815359 364.9770794 -133.58650122 360.64423926 -153.5625 345.9375 C-154.71490347 344.96607444 -155.86050848 343.98653964 -157 343 C-158.6644483 341.74704763 -160.33117586 340.49711819 -162 339.25 C-164.3125 337.515625 -164.3125 337.515625 -166 336 C-166 335.34 -166 334.68 -166 334 C-166.56203125 333.77183594 -167.1240625 333.54367187 -167.703125 333.30859375 C-170.63297426 331.63937691 -172.49903363 329.56725179 -174.75 327.0625 C-175.54921875 326.18722656 -176.3484375 325.31195313 -177.171875 324.41015625 C-179 322 -179 322 -179 319 C-179.66 319 -180.32 319 -181 319 C-196.15171692 293.66728753 -203.6265225 266.3914526 -196.5 236.9375 C-195.80834688 234.47175664 -195.14337734 232.28675468 -194 230 C-194.99 228.8553125 -194.99 228.8553125 -196 227.6875 C-198 225 -198 225 -198 222 C-198.66 222 -199.32 222 -200 222 C-201.71008866 219.614956 -203.27916333 217.24609033 -204.8125 214.75 C-205.48853271 213.64954346 -205.48853271 213.64954346 -206.17822266 212.52685547 C-220.64957563 188.52315997 -222.70392518 160.76122558 -216.49609375 133.8125 C-212.77974655 119.0572252 -205.30173197 106.9649647 -196 95 C-195.52175781 94.36707031 -195.04351562 93.73414062 -194.55078125 93.08203125 C-186.97686043 83.59835389 -176.45855029 76.89160794 -166 71 C-165.39414063 70.65767334 -164.78828125 70.31534668 -164.1640625 69.96264648 C-160.58373567 68.04429522 -157.24326332 66.71387536 -153.2734375 65.82421875 C-144.65284825 64.19660131 -144.65284825 64.19660131 -137.64306641 59.42236328 C-135.93216363 56.3494313 -134.97656729 53.15230678 -134.05078125 49.7734375 C-132.02826775 42.51043364 -127.68346465 36.79128417 -123 31 C-122.45601563 30.25621094 -121.91203125 29.51242188 -121.3515625 28.74609375 C-105.36251963 7.36707942 -80.40069248 -4.83734812 -54.30859375 -8.68359375 C-35.12412825 -10.51823567 -17.64621387 -7.59747632 0 0 Z M-93 35 C-93.721875 35.62390625 -94.44375 36.2478125 -95.1875 36.890625 C-107.97337803 48.77749598 -116.96378872 65.56432882 -118.21980286 83.06211853 C-118.3420205 86.51856864 -118.40670449 89.97133773 -118.44921875 93.4296875 C-118.47249741 94.71799973 -118.49577606 96.00631195 -118.51976013 97.33366394 C-118.64350559 104.40095893 -118.70511577 111.46871795 -118.75537109 118.53686523 C-118.76057518 119.25506911 -118.76577927 119.97327299 -118.77114105 120.71324062 C-118.80221105 125.06472851 -118.80221105 125.06472851 -118.82796478 129.41625023 C-118.87330991 137.73865546 -119.05018236 146.02877427 -119.53393555 154.33979797 C-121.5578537 173.60444682 -121.5578537 173.60444682 -115.65576172 191.19433594 C-109.96188564 196.30870911 -103.65439763 199.39418661 -96.41430664 201.75366211 C-93.38782614 202.85843028 -90.65584515 204.12601227 -87.78660583 205.57789612 C-86.88928962 206.03071237 -85.9919734 206.48352861 -85.06746578 206.95006657 C-84.38520207 207.2965446 -83.70293837 207.64302263 -83 208 C-82.99668985 207.40677602 -82.99337971 206.81355204 -82.98996925 206.20235157 C-82.90872457 191.76331726 -82.81662728 177.32438229 -82.71247292 162.88549519 C-82.66236578 155.90293375 -82.61592268 148.92038395 -82.578125 141.93774414 C-82.54164759 135.20091282 -82.49493345 128.46422395 -82.44193649 121.72749901 C-82.4233836 119.15548108 -82.40827898 116.58343592 -82.39665604 114.01137733 C-82.37980924 110.41280702 -82.35077717 106.81452811 -82.31884766 103.21606445 C-82.31668747 102.14935516 -82.31452728 101.08264587 -82.31230164 99.98361206 C-82.30113815 99.00069687 -82.28997467 98.01778168 -82.2784729 97.00508118 C-82.27017676 95.72885879 -82.27017676 95.72885879 -82.26171303 94.42685413 C-81.82413878 90.36924615 -80.7641828 87.71574868 -77.78125 84.921875 C-74.76905089 82.84041157 -71.70151834 81.02698954 -68.5 79.25 C-63.69981127 76.56087907 -58.98138758 73.78677935 -54.3125 70.875 C-49.66864208 67.99279766 -44.96913849 65.31279855 -40.15625 62.7265625 C-24.16207414 53.97727323 -8.60773679 44.41434215 7 35 C-6.02316598 21.57405569 -24.34733429 16.28964252 -42.6875 15.8125 C-61.67613826 16.19110782 -78.6830217 22.38316287 -93 35 Z M7.9609375 62.5546875 C1.9113368 66.35462316 -4.36978723 69.76901463 -10.6027832 73.25585938 C-15.95744501 76.25766652 -21.25307366 79.33270797 -26.50610352 82.50878906 C-31.72331592 85.62839096 -37.03030085 88.5940507 -42.3203125 91.58789062 C-47.02391478 94.26133516 -51.66968981 96.98973952 -56.23022461 99.90136719 C-58.10039302 101.0623215 -60.00939365 102.12603209 -61.9375 103.1875 C-65.05547112 104.65931895 -65.05547112 104.65931895 -66 107 C-66.08698228 109.91699274 -66.11551923 112.80982548 -66.09765625 115.7265625 C-66.0962413 116.58937836 -66.09482635 117.45219421 -66.09336853 118.34115601 C-66.08776188 121.1024723 -66.07520827 123.86370812 -66.0625 126.625 C-66.05748586 128.4947905 -66.0529228 130.36458226 -66.04882812 132.234375 C-66.03779029 136.82294777 -66.0205212 141.41146023 -66 146 C-62.58829078 145.43725531 -59.93281591 144.62569496 -56.92578125 142.92578125 C-56.18118652 142.50868896 -55.4365918 142.09159668 -54.66943359 141.66186523 C-53.89164551 141.21657471 -53.11385742 140.77128418 -52.3125 140.3125 C-51.50377441 139.85625244 -50.69504883 139.40000488 -49.86181641 138.92993164 C-45.05802346 136.20926347 -40.30243782 133.41885949 -35.58984375 130.54296875 C-32.24091398 128.54775418 -28.84082194 126.65051407 -25.4375 124.75 C-19.70795894 121.54819764 -14.02522025 118.27728556 -8.375 114.9375 C-2.24060791 111.31228643 3.91300921 107.72780106 10.1171875 104.22265625 C13.18893256 102.47947795 16.22435689 100.68002027 19.2578125 98.87109375 C20.1849707 98.32501465 21.11212891 97.77893555 22.06738281 97.21630859 C23.89866524 96.13760362 25.72389279 95.04853287 27.54199219 93.94775391 C32.81436216 90.86370738 36.84016835 89.03262623 43 89 C45.6328125 89.7578125 45.6328125 89.7578125 48.125 91.125 C49.14207031 91.67800781 50.15914063 92.23101562 51.20703125 92.80078125 C52.47355056 93.53005293 53.73759794 94.26362416 55 95 C55.80872559 95.46841309 56.61745117 95.93682617 57.45068359 96.41943359 C65.55101602 101.12707998 73.58478726 105.94466716 81.61328125 110.7734375 C82.29865967 111.18553467 82.98403809 111.59763184 83.69018555 112.0222168 C84.93893913 112.77430523 86.18658257 113.52824146 87.43286133 114.28442383 C90.24070101 115.98145173 93.06163586 117.5449719 96 119 C98.27734676 120.28152765 100.54765427 121.57180535 102.8125 122.875 C103.69905273 123.38353516 103.69905273 123.38353516 104.60351562 123.90234375 C105.80233406 124.58999751 107.00081801 125.27823471 108.19897461 125.96704102 C109.3937027 126.65226462 110.58982007 127.33507194 111.78735352 128.01538086 C114.62659071 129.62855707 117.44337424 131.26794993 120.23828125 132.95703125 C121.76001953 133.87548828 121.76001953 133.87548828 123.3125 134.8125 C124.33988281 135.43769531 125.36726562 136.06289062 126.42578125 136.70703125 C127.27527344 137.13371094 128.12476563 137.56039062 129 138 C129.66 137.67 130.32 137.34 131 137 C135.31014558 117.60434491 128.85860212 97.2104435 118.828125 80.66015625 C116.27380018 76.94328615 113.34270785 73.99801615 110 71 C108.6696875 69.6078125 108.6696875 69.6078125 107.3125 68.1875 C105.24155355 66.2284966 103.61637891 65.06593215 101 64 C101 63.34 101 62.68 101 62 C73.32085572 40.69393183 35.77118593 44.84501356 7.9609375 62.5546875 Z M-167 101 C-167 101.66 -167 102.32 -167 103 C-167.59167969 103.26941406 -168.18335938 103.53882812 -168.79296875 103.81640625 C-180.2990555 109.98692711 -187.95057474 126.12462998 -192.00390625 137.921875 C-197.99958054 158.89225272 -195.5385395 179.94967304 -185.16650391 198.99707031 C-173.05802632 219.78776728 -152.99085786 230.13746041 -132.58447266 241.34912109 C-127.46114551 244.16678149 -122.40443754 247.08072916 -117.375 250.0625 C-109.96041916 254.45784709 -102.46806336 258.6992385 -94.94628906 262.90771484 C-91.6857232 264.73759087 -88.43542898 266.58530841 -85.1875 268.4375 C-84.06730469 269.07558594 -82.94710937 269.71367187 -81.79296875 270.37109375 C-79.82467735 271.51903433 -77.89589531 272.73606979 -76 274 C-71.7922363 273.81298828 -69.18669991 272.66716781 -65.8046875 270.22265625 C-63.5950629 268.7256595 -61.29391965 267.50334205 -58.9375 266.25 C-54.5107788 263.85371704 -50.13591772 261.38956811 -45.8125 258.8125 C-44.70519531 258.15894531 -43.59789062 257.50539063 -42.45703125 256.83203125 C-41.64621094 256.22746094 -40.83539063 255.62289062 -40 255 C-40 254.01 -40 253.02 -40 252 C-54.81567694 243.51299843 -54.81567694 243.51299843 -69.6875 235.125 C-74.65761223 232.34149202 -79.57552939 229.4895386 -84.44140625 226.52734375 C-87.61820899 224.63096227 -90.84087829 222.81861612 -94.0625 221 C-98.05926515 218.74160879 -101.96665049 216.4173194 -105.75 213.8125 C-108.58736676 211.87087129 -111.40265299 210.2415077 -114.5 208.75 C-119.3964469 206.37503048 -124.10651687 203.72778665 -128.8125 201 C-129.54210937 200.58459961 -130.27171875 200.16919922 -131.0234375 199.74121094 C-136.12529205 196.75573343 -141.04787896 193.85636311 -143 188 C-143.09922339 186.62951257 -143.14602809 185.25483415 -143.15821838 183.8808136 C-143.1680072 183.04368835 -143.17779602 182.20656311 -143.18788147 181.34407043 C-143.19651466 179.97166451 -143.19651466 179.97166451 -143.20532227 178.5715332 C-143.21522186 177.60549164 -143.22512146 176.63945007 -143.23532104 175.64413452 C-143.2669453 172.44637515 -143.29169722 169.24860092 -143.31640625 166.05078125 C-143.33697497 163.83546052 -143.35797142 161.62014372 -143.37937927 159.40483093 C-143.43460837 153.57037539 -143.484014 147.73588437 -143.53222656 141.90136719 C-143.58243543 135.94918659 -143.63812471 129.99705758 -143.69335938 124.04492188 C-143.80095122 112.36332531 -143.90239396 100.68168397 -144 89 C-151.27104025 89 -161.50696971 96.39473218 -167 101 Z M25.875 113.5 C22.19444444 116 22.19444444 116 20 116 C20 116.66 20 117.32 20 118 C19.35675781 118.22816406 18.71351563 118.45632812 18.05078125 118.69140625 C13.90898263 120.467978 10.08081658 122.67591711 6.1875 124.9375 C5.39923828 125.38029297 4.61097656 125.82308594 3.79882812 126.27929688 C3.05439453 126.71177734 2.30996094 127.14425781 1.54296875 127.58984375 C0.86258545 127.98034912 0.18220215 128.37085449 -0.51879883 128.77319336 C-1.25199341 129.38046265 -1.25199341 129.38046265 -2 130 C-2 130.99 -2 131.98 -2 133 C-0.98421875 133.56847656 0.0315625 134.13695312 1.078125 134.72265625 C8.32704788 138.7857355 15.55458693 142.87740535 22.72265625 147.08203125 C26.72343246 149.42336751 30.73665216 151.74280153 34.75 154.0625 C43.32305865 159.01966936 51.87584023 164.01117788 60.42651367 169.00683594 C65.7895182 172.13716592 71.1627032 175.24609956 76.5625 178.3125 C77.61179687 178.91449219 78.66109375 179.51648438 79.7421875 180.13671875 C81.48441767 181.13317413 83.22816308 182.12712586 84.98144531 183.10400391 C87.05875456 184.26308226 89.12346603 185.44247796 91.1875 186.625 C91.82437744 186.97344971 92.46125488 187.32189941 93.11743164 187.6809082 C97.48249359 190.21589943 99.2016889 192.32567842 101 197 C101.4301651 200.25877973 101.43758509 203.48529312 101.43237305 206.76904297 C101.44766052 208.21876244 101.44766052 208.21876244 101.46325684 209.69776917 C101.49335243 212.87930118 101.50264769 216.06053192 101.51171875 219.2421875 C101.52856795 221.4532267 101.54671851 223.66425634 101.56611633 225.87527466 C101.61359608 231.68502819 101.64341872 237.49474294 101.66955566 243.30462646 C101.69937126 249.23701639 101.74589822 255.16927271 101.79101562 261.1015625 C101.87702582 272.73430509 101.94438142 284.36707518 102 296 C103.42224352 295.54933725 104.84251922 295.09246191 106.26196289 294.63305664 C107.05308975 294.37931778 107.84421661 294.12557892 108.65931702 293.864151 C112.25465198 292.53679812 115.29319848 290.60128867 118.4375 288.4375 C119.08291748 287.99623779 119.72833496 287.55497559 120.39331055 287.1003418 C137.29424891 275.24376779 147.86547321 258.74449837 152.3125 238.6875 C155.62437239 217.00110485 151.02221821 195.78581295 138 178 C132.44390272 170.84825415 132.44390272 170.84825415 125 166 C125 165.34 125 164.68 125 164 C122.60992501 162.24800874 122.60992501 162.24800874 119.5 160.4375 C118.91976074 160.08743896 118.33952148 159.73737793 117.74169922 159.37670898 C112.57745411 156.28568599 107.32869645 153.34613848 102.07055664 150.41870117 C97.63935618 147.94536303 93.27312297 145.38678616 88.9375 142.75 C81.60071937 138.29552605 74.12760449 134.09371582 66.64624023 129.88793945 C59.24237534 125.71955188 51.90125263 121.45575007 44.59375 117.12109375 C43.99691406 116.77030762 43.40007812 116.41952148 42.78515625 116.05810547 C41.5564445 115.32981817 40.33542766 114.58844182 39.12109375 113.83642578 C33.95071297 110.70647924 30.93076759 110.03977883 25.875 113.5 Z M-28.05859375 144.59375 C-29.02909668 145.14289063 -29.99959961 145.69203125 -30.99951172 146.2578125 C-31.98967285 146.83273438 -32.97983398 147.40765625 -34 148 C-34.92184082 148.53367188 -35.84368164 149.06734375 -36.79345703 149.6171875 C-39.55764975 151.23188957 -42.31146705 152.86298958 -45.0625 154.5 C-45.97837891 155.04269531 -46.89425781 155.58539063 -47.83789062 156.14453125 C-50.56079769 157.7593905 -53.28183793 159.3771635 -56 161 C-56.83142517 161.37297714 -57.66285034 161.74595428 -58.51947021 162.13023376 C-63.85628618 164.67737037 -63.85628618 164.67737037 -66.9276886 169.46914673 C-67.29311948 172.54351343 -67.33459423 175.47123952 -67.2578125 178.56640625 C-67.26263641 179.67805649 -67.26746033 180.78970673 -67.27243042 181.93504333 C-67.27047574 184.27935085 -67.24373923 186.62375192 -67.19384766 188.9675293 C-67.12511669 192.55640703 -67.15253547 196.13545879 -67.19140625 199.72460938 C-67.1776107 202.00525024 -67.15826706 204.28586571 -67.1328125 206.56640625 C-67.14273224 207.63734024 -67.15265198 208.70827423 -67.16287231 209.81166077 C-67.10373396 215.29889633 -67.10373396 215.29889633 -64.28041077 219.7401123 C-62.23203921 221.03873749 -60.22212753 222.0351474 -58 223 C-56.69487234 223.72459908 -55.39557086 224.45991249 -54.10546875 225.2109375 C-52.80011861 225.93344815 -51.49411601 226.65478113 -50.1875 227.375 C-45.3632619 230.05581789 -40.63309269 232.80777461 -36 235.8125 C-28.10039372 241.15676599 -28.10039372 241.15676599 -19 243 C-16.18541905 241.78270541 -16.18541905 241.78270541 -13.1875 240.0625 C-11.46466797 239.10730469 -11.46466797 239.10730469 -9.70703125 238.1328125 C-5.25047707 235.59061835 -0.85635372 232.94560528 3.52783203 230.28100586 C8.18195505 227.45931497 12.91120456 224.82084184 17.73046875 222.2890625 C20.05467075 220.96894777 22.02002301 219.80344765 24 218 C24.64408635 215.69775809 24.64408635 215.69775809 24.61279297 213.07299805 C24.64476776 212.07153244 24.67674255 211.07006683 24.70968628 210.03825378 C24.72041168 208.95699722 24.73113708 207.87574066 24.7421875 206.76171875 C24.76024445 205.64819534 24.77830139 204.53467194 24.79690552 203.3874054 C24.8259387 201.02962011 24.84369107 198.67167318 24.85107422 196.3137207 C24.87485399 192.70962888 24.97313866 189.11240809 25.07421875 185.50976562 C25.09314976 183.21878344 25.10761864 180.92775916 25.1171875 178.63671875 C25.15625214 177.56153488 25.19531677 176.48635101 25.23556519 175.37858582 C25.1983395 172.28267033 25.05937556 169.91278638 24 167 C20.9758628 164.23911498 17.70289439 162.67966366 14 161 C12.47786332 160.09445582 10.96628756 159.17057764 9.47265625 158.21875 C1.42977757 153.25793106 -6.60377921 148.34966673 -15 144 C-15.67289063 143.61972656 -16.34578125 143.23945313 -17.0390625 142.84765625 C-21.41888791 140.9543851 -24.23068543 142.41342532 -28.05859375 144.59375 Z M41 177 C40.99576806 177.59837771 40.99153612 178.19675543 40.98717594 178.8132658 C40.88384232 193.37743939 40.7752005 207.9415667 40.66066074 222.50565624 C40.60539787 229.54875743 40.55192737 236.59186369 40.50268555 243.63500977 C40.45517259 250.43015112 40.40265264 257.225239 40.34705925 264.02031898 C40.32665598 266.61467548 40.30793955 269.2090458 40.29092598 271.80342674 C40.26683726 275.43304828 40.2367885 279.06257465 40.20532227 282.69213867 C40.1995668 283.7681987 40.19381134 284.84425873 40.18788147 285.95292664 C40.17809265 286.94425598 40.16830383 287.93558533 40.15821838 288.95695496 C40.15176583 289.81514422 40.14531328 290.67333349 40.1386652 291.5575285 C39.99336292 294.11690664 39.5605155 296.50134396 39 299 C38.34 299 37.68 299 37 299 C37 299.66 37 300.32 37 301 C36.34515625 301.2371875 35.6903125 301.474375 35.015625 301.71875 C31.10066649 303.38210025 27.45626835 305.4191485 23.75 307.5 C22.95352051 307.94504883 22.15704102 308.39009766 21.33642578 308.84863281 C14.72460118 312.55920395 8.1828853 316.38167887 1.66015625 320.24609375 C-3.77239816 323.46350073 -9.23090823 326.63609295 -14.6875 329.8125 C-26.1542321 336.49238196 -37.58389754 343.23402033 -49 350 C-40.83476873 361.47923712 -25.16818332 365.72696225 -12 368.25 C9.81588312 371.42373922 30.04107813 365.52589902 47.88671875 352.96875 C64.98701161 339.80367098 73.5320558 321.26299614 76.51351929 300.4079895 C77.09867565 295.66892043 77.19906681 290.96164108 77.25634766 286.19091797 C77.27095032 285.2435376 77.28555298 284.29615723 77.30059814 283.32006836 C77.42580096 274.654226 77.49518024 265.98753756 77.54844093 257.32098198 C77.58431544 251.5077467 77.63796551 245.69588218 77.73388672 239.88330078 C77.82660693 234.24589894 77.87533985 228.60971297 77.89283371 222.97159195 C77.90692972 220.82725391 77.93657335 218.68295896 77.98213577 216.53905869 C78.04278718 213.5413458 78.04687466 210.5484927 78.03759766 207.55029297 C78.08377731 206.22694443 78.08377731 206.22694443 78.13088989 204.87686157 C78.08740886 202.29240218 77.94764901 200.40922162 77 198 C74.2749154 195.42883216 71.31183445 193.71686323 68 192 C67.05809814 191.42741455 66.11619629 190.8548291 65.14575195 190.26489258 C64.35128662 189.81267334 63.55682129 189.3604541 62.73828125 188.89453125 C61.84689453 188.38599609 60.95550781 187.87746094 60.03710938 187.35351562 C58.68842773 186.59071289 58.68842773 186.59071289 57.3125 185.8125 C55.94641602 185.03229492 55.94641602 185.03229492 54.55273438 184.23632812 C50.08766332 181.69736615 45.5996726 179.28833139 41 177 Z M16.67578125 241.30859375 C15.82040771 241.80359375 14.96503418 242.29859375 14.08374023 242.80859375 C13.16923096 243.34613281 12.25472168 243.88367188 11.3125 244.4375 C9.39354292 245.55132198 7.47426944 246.66459901 5.5546875 247.77734375 C4.6069043 248.32890137 3.65912109 248.88045898 2.68261719 249.44873047 C-0.87663838 251.50693122 -4.46766384 253.50488689 -8.0625 255.5 C-15.09067031 259.41588859 -21.95794657 263.58308684 -28.83544922 267.75634766 C-34.17916272 270.97503923 -39.52219469 273.92772199 -45.19921875 276.5234375 C-47.65381014 277.81748986 -49.85149708 279.20818429 -52.14453125 280.76171875 C-57.29271274 284.24124571 -62.5895825 287.38479897 -68 290.4375 C-68.93328125 290.99115234 -69.8665625 291.54480469 -70.828125 292.11523438 C-76.04249027 295.03921155 -79.94067389 296.85238675 -85.93505859 295.66479492 C-89.39620534 294.55050046 -92.27202484 292.90916184 -95.3125 290.9375 C-96.78871109 290.0259626 -98.26671559 289.11732587 -99.74609375 288.2109375 C-100.56706543 287.70401367 -101.38803711 287.19708984 -102.23388672 286.67480469 C-107.1144576 283.71975471 -112.08391359 280.91861706 -117.04510498 278.10189819 C-120.08859847 276.37316425 -123.12817769 274.63757711 -126.16796875 272.90234375 C-126.75753357 272.56594376 -127.34709839 272.22954376 -127.95452881 271.88294983 C-133.04132406 268.97936571 -138.11816862 266.05894955 -143.1875 263.125 C-143.93056396 262.69606445 -144.67362793 262.26712891 -145.43920898 261.82519531 C-149.24728426 259.62067574 -153.03255931 257.38399048 -156.796875 255.10546875 C-157.57651611 254.6367334 -158.35615723 254.16799805 -159.15942383 253.68505859 C-160.63523469 252.79587108 -162.10674558 251.89949124 -163.57299805 250.99462891 C-167.07611443 248.88836564 -168.81439348 248 -173 248 C-176.04772689 268.95312238 -170.94271448 289.49002727 -158.93359375 307.015625 C-146.22040556 323.29942239 -127.46705715 334.08213237 -107 337 C-85.56145266 338.7792661 -67.58173784 333.23466257 -49.25 322.25 C-47.11352287 320.9865705 -44.97680576 319.72354671 -42.83984375 318.4609375 C-41.82519043 317.85862305 -40.81053711 317.25630859 -39.76513672 316.63574219 C-36.46488513 314.68344785 -33.14517496 312.77138407 -29.8125 310.875 C-28.7503125 310.27042969 -27.688125 309.66585937 -26.59375 309.04296875 C-25.75457031 308.56609619 -25.75457031 308.56609619 -24.8984375 308.07958984 C-13.76894149 301.75054774 -2.65469268 295.39419484 8.4375 289 C9.21182373 288.55551514 9.98614746 288.11103027 10.78393555 287.65307617 C17.78500503 283.86558316 17.78500503 283.86558316 24 279 C24.08868299 276.04294679 24.11520296 273.10934944 24.09765625 270.15234375 C24.0962413 269.2659169 24.09482635 268.37949005 24.09336853 267.46620178 C24.08775215 264.62326746 24.07519691 261.78041069 24.0625 258.9375 C24.05748711 257.01497509 24.05292384 255.09244896 24.04882812 253.16992188 C24.03777741 248.44658451 24.02050183 243.72330542 24 239 C20.62431317 239 19.54131604 239.63397776 16.67578125 241.30859375 Z " fill="#0EA881" transform="translate(220,9)"/>
</svg>
