<?xml version="1.0" encoding="UTF-8"?>
<svg version="1.1" xmlns="http://www.w3.org/2000/svg" width="512" height="512">
<path d="M0 0 C0.6717627 0.16097168 1.34352539 0.32194336 2.03564453 0.48779297 C35.15084419 8.52906258 64.82166661 30.2214934 83 59 C83.39026367 59.61568848 83.78052734 60.23137695 84.18261719 60.86572266 C102.55065427 90.38632307 109.23562118 127.92839035 101.49609375 161.94873047 C97.36575797 179.02701848 89.5309845 193.3330111 80.9375 208.5625 C62.31748384 241.61988148 54.00494645 274.86208025 53.46826172 312.67358398 C53.1132514 335.51674781 53.1132514 335.51674781 45 345 C41.31791124 348.37760834 37.96963837 351.02815961 33 352 C33.03480469 353.11117188 33.06960938 354.22234375 33.10546875 355.3671875 C33.34580357 366.26931425 33.27453084 376.15259763 26 385 C21.27735718 389.87731453 17.70248874 392.35065416 11 394 C11.02094727 394.55349121 11.04189453 395.10698242 11.06347656 395.67724609 C11.8311476 419.02319126 11.8311476 419.02319126 3.3125 428.375 C-2.2955966 434.01912292 -9.39376005 436.4400062 -17.21803284 436.53013611 C-18.48875893 436.51328514 -18.48875893 436.51328514 -19.78515625 436.49609375 C-20.68568222 436.49754898 -21.58620819 436.49900421 -22.51402283 436.50050354 C-24.40399435 436.49885477 -26.29398074 436.48740923 -28.18383789 436.46655273 C-31.05869137 436.43753844 -33.93170267 436.44597783 -36.80664062 436.45898438 C-38.65365469 436.45274713 -40.50066301 436.44435631 -42.34765625 436.43359375 C-43.19683121 436.43652939 -44.04600616 436.43946503 -44.9209137 436.44248962 C-54.02540793 436.30013212 -60.35101759 433.43085767 -67.015625 427.19140625 C-71.86775888 421.83304581 -74.14623642 415.6429909 -74.09765625 408.453125 C-74.09282227 407.18662109 -74.09282227 407.18662109 -74.08789062 405.89453125 C-74.07532227 404.58548828 -74.07532227 404.58548828 -74.0625 403.25 C-74.05798828 402.36183594 -74.05347656 401.47367187 -74.04882812 400.55859375 C-74.037074 398.37232671 -74.02064249 396.18619821 -74 394 C-74.9075 393.7215625 -75.815 393.443125 -76.75 393.15625 C-85.44103778 390.06424617 -89.98074307 384.08023625 -94 376 C-94.9300889 373.2097333 -95.18698769 371.23470458 -95.31640625 368.33203125 C-95.35830078 367.43935547 -95.40019531 366.54667969 -95.44335938 365.62695312 C-95.48267578 364.69818359 -95.52199219 363.76941406 -95.5625 362.8125 C-95.60568359 361.87212891 -95.64886719 360.93175781 -95.69335938 359.96289062 C-95.79938665 357.64207146 -95.90145029 355.32114675 -96 353 C-96.64066406 352.731875 -97.28132813 352.46375 -97.94140625 352.1875 C-105.6842177 348.67957946 -111.25053573 344.2135543 -114.875 336.375 C-116.70993664 330.87019009 -117.12275485 325.70794738 -117.17578125 319.92578125 C-117.19574599 318.53521997 -117.21695678 317.14467616 -117.23925781 315.75415039 C-117.25041626 315.02986847 -117.26157471 314.30558655 -117.27307129 313.55935669 C-117.99121898 272.6354992 -127.58658092 236.61659323 -148.85742188 201.59277344 C-167.7151278 170.45867189 -172.96469955 135.00860884 -164.39794922 99.50488281 C-161.35864204 87.57076427 -157.08798893 76.69417422 -151 66 C-150.62359375 65.32984863 -150.2471875 64.65969727 -149.859375 63.96923828 C-144.39615557 54.36990647 -138.15239114 46.21682523 -130.36816406 38.39160156 C-129.16011311 37.16285595 -127.99442059 35.89277357 -126.8359375 34.6171875 C-96.08163096 1.48803104 -43.04830621 -10.97309766 0 0 Z " fill="#020101" transform="translate(288,76)"/>
<path d="M0 0 C4.66256857 2.66567052 7.44890681 6.07475551 10 10.8125 C11.68469203 17.09180665 10.65059171 20.75203257 7.625 26.375 C4.96514545 31.17845135 4.96514545 31.17845135 4.625 36.5 C5.47076486 39.65530057 5.47076486 39.65530057 8.6875 41.375 C11.15134903 41.61465047 13.51290576 41.74742 15.98046875 41.7890625 C17.03951164 41.81811172 17.03951164 41.81811172 18.11994934 41.8477478 C20.37151061 41.90745224 22.62312328 41.9538914 24.875 42 C26.40301689 42.03818829 27.93101245 42.07724052 29.45898438 42.1171875 C33.20164935 42.21314596 36.9444151 42.29721011 40.6875 42.375 C39.42520523 62.41222065 28.95661678 79.46595753 19.16479492 96.57250977 C2.36560016 125.9478459 -4.58416895 154.82002057 -8.3125 188.375 C-28.4425 188.375 -48.5725 188.375 -69.3125 188.375 C-69.3125 171.545 -69.3125 154.715 -69.3125 137.375 C-64.0325 137.375 -58.7525 137.375 -53.3125 137.375 C-43.22670313 134.90719864 -36.57180653 130.0795802 -30.35546875 121.75390625 C-25.35436363 113.30941728 -24.69510755 103.92751789 -26.3125 94.375 C-28.50497083 87.62392645 -31.77450047 81.91899962 -37.3125 77.375 C-38.034375 76.694375 -38.75625 76.01375 -39.5 75.3125 C-49.22519414 68.61292182 -57.85571176 69.01129244 -69.3125 69.375 C-69.3125 60.465 -69.3125 51.555 -69.3125 42.375 C-66.25484375 42.34921875 -63.1971875 42.3234375 -60.046875 42.296875 C-57.0847046 42.25845968 -54.12270858 42.21329776 -51.16064453 42.16748047 C-49.10246102 42.13925951 -47.0441689 42.11805059 -44.98583984 42.10400391 C-42.02645215 42.0825901 -39.0683718 42.03594779 -36.109375 41.984375 C-35.18944763 41.98314636 -34.26952026 41.98191772 -33.32171631 41.98065186 C-28.17929252 41.89560485 -28.17929252 41.89560485 -23.73144531 39.51660156 C-21.75433538 36.5325671 -21.74891181 34.8974262 -22.3125 31.375 C-24.18428116 28.19211646 -24.18428116 28.19211646 -26.3125 25.375 C-28.15759599 19.83971202 -28.65755507 13.35814001 -26.21875 7.94921875 C-19.81560122 -1.09352594 -10.50477785 -4.71723987 0 0 Z " fill="#89C7FC" transform="translate(333.3125,183.625)"/>
<path d="M0 0 C5.28 0 10.56 0 16 0 C15.67 1.32 15.34 2.64 15 4 C14.06546264 14.24396719 16.47367227 23.939016 23 32 C30.83200463 40.17060633 38.28131881 44.02315762 49.6875 44.3125 C58.93547825 44.23287411 66.99189644 40.63387164 73.77734375 34.35546875 C81.28912138 26.55783066 83.35184773 18.38449629 83.25 7.8125 C83.1675 5.234375 83.085 2.65625 83 0 C91.91 0 100.82 0 110 0 C110.02578125 3.05765625 110.0515625 6.1153125 110.078125 9.265625 C110.11654032 12.2277954 110.16170224 15.18979142 110.20751953 18.15185547 C110.23574049 20.21003898 110.25694941 22.2683311 110.27099609 24.32666016 C110.2924099 27.28604785 110.33905221 30.2441282 110.390625 33.203125 C110.39185364 34.12305237 110.39308228 35.04297974 110.39434814 35.99078369 C110.47683931 41.13578921 110.47683931 41.13578921 112.87011719 45.57714844 C115.92802137 47.61995742 117.35690076 47.61863949 121 47 C122.41570905 46.20089861 123.81004327 45.3633702 125.1875 44.5 C130.4280198 41.41215163 135.03309799 40.91590997 141 42 C145.96644557 43.91406306 150.25830801 47.29267606 153.1484375 51.78515625 C155.30032249 57.38203142 155.15998251 63.8837758 153.078125 69.4765625 C149.99563072 74.82088701 145.88313407 78.03895531 140 80 C132.64359424 80.49042705 128.20491192 79.13660795 122 75 C120.05141859 74.61153234 120.05141859 74.61153234 118 74.625 C117.319375 74.59664063 116.63875 74.56828125 115.9375 74.5390625 C113.86504798 74.85125116 113.86504798 74.85125116 112.40592957 76.61602783 C110.5561508 79.75261533 110.60177976 81.97063303 110.56762695 85.60449219 C110.5574353 86.25856552 110.54724365 86.91263885 110.53674316 87.58653259 C110.50664289 89.74006753 110.49735231 91.89315746 110.48828125 94.046875 C110.47143226 95.54332962 110.45328172 97.0397701 110.43388367 98.53619385 C110.38640098 102.46852197 110.35658067 106.40079278 110.33044434 110.33331299 C110.29538497 115.05499813 110.23837722 119.7764632 110.18505096 124.49797058 C110.10655721 131.6652858 110.05593727 138.83231334 110 146 C89.87 146 69.74 146 49 146 C48.46375 141.359375 47.9275 136.71875 47.375 131.9375 C43.2617234 98.86077065 31.90375715 71.19380232 15.27124023 42.53149414 C7.41073008 28.89764107 1.00479578 15.87577332 0 0 Z " fill="#6BF3C0" transform="translate(138,226)"/>
<path d="M0 0 C0 8.58 0 17.16 0 26 C-2.68125 25.855625 -5.3625 25.71125 -8.125 25.5625 C-18.37422668 25.35344639 -26.1235032 28.01726697 -34.0546875 34.7421875 C-42.01557438 43.33677682 -43.64768368 53.27338814 -43.40625 64.5859375 C-42.88132186 73.31099309 -38.24497286 80.808369 -31.85546875 86.60546875 C-28.78424561 88.91373541 -25.5672901 90.59308746 -22 92 C-21.10152344 92.36222656 -20.20304687 92.72445312 -19.27734375 93.09765625 C-15.28356835 94.19725353 -11.7362948 94.22088778 -7.625 94.125 C-5.10875 94.08375 -2.5925 94.0425 0 94 C0 102.58 0 111.16 0 120 C-2.97386719 120.02578125 -5.94773437 120.0515625 -9.01171875 120.078125 C-11.89780062 120.11655795 -14.78370458 120.16171418 -17.66967773 120.20751953 C-19.67252076 120.23571261 -21.6754747 120.25693542 -23.6784668 120.27099609 C-26.56096107 120.29244854 -29.44212409 120.33911056 -32.32421875 120.390625 C-33.21711105 120.39185364 -34.11000336 120.39308228 -35.029953 120.39434814 C-39.17367185 120.49156295 -41.45779278 120.66993454 -45.06567383 122.86621094 C-47.20930059 124.88016116 -47.20930059 124.88016116 -47.625 127.75 C-47.00030885 130.99839396 -46.37337214 132.04509893 -44.5 134.625 C-41.00675558 139.82008145 -41.12041043 144.94060519 -42 151 C-43.95492381 157.40549504 -47.41411212 161.00784007 -53.25 164.25 C-59.73020904 166.01732974 -65.33761265 165.58838249 -71.2109375 162.265625 C-75.95762097 158.90770918 -78.71925994 154.70511481 -80 149 C-80.81445684 141.66988847 -77.93488815 136.90233223 -74 131 C-74.11065429 126.20939285 -74.11065429 126.20939285 -76.59277344 122.31323242 C-79.92361434 120.49613372 -82.60742433 120.56334476 -86.390625 120.48828125 C-87.09523865 120.47033005 -87.79985229 120.45237885 -88.52581787 120.43388367 C-90.76715179 120.37988142 -93.00827405 120.34591912 -95.25 120.3125 C-96.77346689 120.27931782 -98.29690589 120.24482731 -99.8203125 120.20898438 C-103.5466716 120.12416262 -107.27310463 120.05730276 -111 120 C-111.01703422 117.64189591 -111.02935081 115.28391788 -111.0390625 112.92578125 C-111.04631348 111.61262939 -111.05356445 110.29947754 -111.06103516 108.9465332 C-110.6168258 80.22395645 -95.6580975 52.41385349 -75.55859375 32.48095703 C-55.07369483 13.01645252 -28.50319203 0 0 0 Z " fill="#FC636E" transform="translate(248,90)"/>
<path d="M0 0 C1.42340611 -0.01020134 2.84683367 -0.01743286 4.27026367 -0.0234375 C5.45926521 -0.02996338 5.45926521 -0.02996338 6.67228699 -0.03662109 C29.68589725 0.32544398 53.17527728 13.21463761 70 28 C71.24523437 29.02867188 71.24523437 29.02867188 72.515625 30.078125 C92.98472244 47.45754736 108.44877282 75.16584787 110.84765625 102.05859375 C111.1574028 108.03908475 111.05442268 114.01350573 111 120 C105.72 120 100.44 120 95 120 C95.0825 117.751875 95.165 115.50375 95.25 113.1875 C95.36134008 103.02909593 92.63013923 94.89366708 86.05859375 87.0078125 C78.22286714 79.36537706 69.0119077 76.53489861 58.26025391 76.49145508 C48.56387829 76.76086044 41.00011089 81.53690973 34 88 C26.66192364 98.2843209 26.09508784 107.6385804 26 120 C17.42 120 8.84 120 0 120 C-0.03738281 116.93074219 -0.07476562 113.86148438 -0.11328125 110.69921875 C-0.15947693 107.73047712 -0.21071772 104.76186256 -0.26245117 101.79321289 C-0.29572924 99.7281871 -0.32375214 97.66306973 -0.34643555 95.59790039 C-0.37992855 92.63127568 -0.43224145 89.66549252 -0.48828125 86.69921875 C-0.49467117 85.7741301 -0.5010611 84.84904144 -0.50764465 83.8959198 C-0.52743881 83.03525406 -0.54723297 82.17458832 -0.56762695 81.2878418 C-0.57873001 80.53061325 -0.58983307 79.7733847 -0.60127258 78.99320984 C-1.11305875 76.43482738 -1.92256674 75.54770413 -4 74 C-9.33451154 73.25129663 -12.27882855 73.93936464 -17 76.5 C-22.41844138 79.40806257 -25.98091633 80.15700893 -32.0625 78.40625 C-37.03415725 76.37239021 -40.16119748 73.27188994 -42.9296875 68.703125 C-44.97861247 63.52846778 -44.82036967 58.4403462 -44 53 C-42.5 49.5625 -42.5 49.5625 -40 47 C-39.21302734 46.16662109 -39.21302734 46.16662109 -38.41015625 45.31640625 C-33.39479264 40.72517486 -28.79415068 40.17159413 -22.12109375 40.45703125 C-18.2299474 41.13396409 -15.84055647 42.55558354 -12.70703125 44.87109375 C-10.87757425 46.24506225 -10.87757425 46.24506225 -7.75 46.5625 C-4.12929229 45.8219007 -3.18218007 44.99750009 -1 42 C-0.38127432 38.81392511 -0.39505522 35.66007748 -0.390625 32.421875 C-0.37408875 31.4953009 -0.35755249 30.56872681 -0.34051514 29.61407471 C-0.29199274 26.659316 -0.27065476 23.70507211 -0.25 20.75 C-0.22184387 18.74476571 -0.19191695 16.73955544 -0.16015625 14.734375 C-0.08623255 9.82295904 -0.03668376 4.91182959 0 0 Z " fill="#FEE076" transform="translate(264,90)"/>
<path d="M0 0 C44.88 0 89.76 0 136 0 C136 16 136 16 132 22 C129.03374236 24.83249518 127.06723159 25.37706196 123.00369263 25.39440918 C121.99716644 25.40575897 120.99064026 25.41710876 119.95361328 25.42880249 C118.85533203 25.42587189 117.75705078 25.42294128 116.62548828 25.41992188 C114.88342606 25.43262619 114.88342606 25.43262619 113.10617065 25.44558716 C109.26077369 25.4690173 105.41577549 25.46997779 101.5703125 25.46875 C99.5747786 25.4740545 97.57924457 25.47936518 95.58371341 25.48561716 C89.30853866 25.50484836 83.03349693 25.50773642 76.75830078 25.50097656 C70.29157202 25.49433832 63.82541402 25.51719121 57.35880101 25.55429029 C51.80110204 25.58501422 46.24358641 25.59634438 40.68580425 25.59245348 C37.36887856 25.59038838 34.05249561 25.59806762 30.73563004 25.62034607 C27.03439274 25.64246843 23.33453317 25.63286554 19.63330078 25.61523438 C17.9919516 25.63512924 17.9919516 25.63512924 16.31744385 25.65542603 C8.02834428 25.56363191 8.02834428 25.56363191 4.3979187 22.71154785 C-2.2918232 15.14683965 0 12.1345186 0 0 Z " fill="#D0D0D5" transform="translate(188,388)"/>
<path d="M0 0 C31.35 0 62.7 0 95 0 C95 18.47368421 95 18.47368421 91 23 C86.39068455 25.82369619 82.89649798 26.38176211 77.52929688 26.40405273 C76.44516258 26.41434761 76.44516258 26.41434761 75.33912659 26.42485046 C72.96546423 26.44305501 70.59246674 26.43929077 68.21875 26.43359375 C66.56017849 26.43815817 64.90160888 26.44346452 63.24304199 26.44947815 C59.77311501 26.45839642 56.30341835 26.45600032 52.83349609 26.44604492 C48.39478848 26.43454858 43.95687564 26.45478293 39.5182724 26.48396206 C36.09522484 26.50233773 32.67236735 26.50202906 29.24928284 26.49632454 C27.61307153 26.49617153 25.97684718 26.50219863 24.34068298 26.51461601 C22.05018697 26.52955328 19.76115444 26.51883132 17.47070312 26.50170898 C15.51928406 26.50145973 15.51928406 26.50145973 13.52844238 26.50120544 C9.29102352 25.89929186 7.26314787 24.74790929 4 22 C0 16 0 16 0 0 Z " fill="#B0B0B4" transform="translate(209,429)"/>
<path d="M0 0 C9.9 0 19.8 0 30 0 C28.15850253 20.25647222 18.44236003 36.78829735 8.47729492 54.19750977 C-8.32189984 83.5728459 -15.27166895 112.44502057 -19 146 C-39.13 146 -59.26 146 -80 146 C-80 145.67 -80 145.34 -80 145 C-65.15 145 -50.3 145 -35 145 C-35 142.03 -35 139.06 -35 136 C-34.62352518 132.13498628 -33.96716954 128.32715693 -33.3125 124.5 C-33.13388428 123.44699707 -32.95526855 122.39399414 -32.77124023 121.30908203 C-31.17286775 112.2848372 -28.89496939 103.68490818 -26 95 C-25.65582031 93.88496094 -25.31164062 92.76992188 -24.95703125 91.62109375 C-20.05196303 76.62256385 -12.23765878 62.61130984 -4.25 49.0625 C4.60998437 34.00208095 11.85394969 18.53368768 14 1 C9.38 1 4.76 1 0 1 C0 0.67 0 0.34 0 0 Z " fill="#5FB3F9" transform="translate(344,226)"/>
<path d="M0 0 C19.22869584 4.57319647 36.1913763 12.82909014 51 26 C51.82757813 26.68449219 52.65515625 27.36898437 53.5078125 28.07421875 C73.98619814 45.43911942 89.4493312 73.17210766 91.84765625 100.05859375 C92.1574028 106.03908475 92.05442268 112.01350573 92 118 C86.72 118 81.44 118 76 118 C76.061875 115.73125 76.12375 113.4625 76.1875 111.125 C76.25143575 105.48343083 75.66783897 100.63255451 73.78125 95.3046875 C72.99003971 92.97061715 72.53880744 90.73963979 72.125 88.3125 C68.43765959 69.46609345 59.38901712 51.61216864 47 37 C46.33943604 36.21616943 46.33943604 36.21616943 45.66552734 35.41650391 C32.95849771 20.50839575 17.56908694 9.57028631 0 1 C0 0.67 0 0.34 0 0 Z " fill="#FBCD62" transform="translate(283,92)"/>
<path d="M0 0 C17.16 0 34.32 0 52 0 C52 16 52 16 48 22 C43.53701241 24.97677054 39.4674408 25.47855878 34.22265625 25.50390625 C33.12829506 25.51888405 33.12829506 25.51888405 32.01182556 25.53416443 C30.47644685 25.54927822 28.9409706 25.55639232 27.40551758 25.5559082 C25.07141287 25.56247492 22.74155735 25.617025 20.40820312 25.67382812 C7.93577602 25.81355786 7.93577602 25.81355786 3.49609375 22.08984375 C-2.84312163 14.24270859 0 14.83297905 0 0 Z " fill="#9F9FA1" transform="translate(231,471)"/>
<path d="M0 0 C3.69186542 2.59216083 4.82883761 4.04149064 5.625 8.5 C4.83198347 12.94089258 3.3430667 14.04017829 0 17 C-3.72479162 19.48794516 -7.6167239 21.66308017 -11.52832031 23.84082031 C-13.37433944 24.87463007 -15.20228717 25.9363757 -17.03125 27 C-18.21514952 27.66583712 -19.40001536 28.32995958 -20.5859375 28.9921875 C-21.6486084 29.59401855 -22.7112793 30.19584961 -23.80615234 30.81591797 C-27.69535024 32.25779305 -30.01061478 32.0118744 -34 31 C-36.88381579 28.41196019 -37.8491179 26.80470451 -38.5625 23 C-37.80490914 18.95951539 -36.03177701 17.72326934 -33 15 C-31.15354571 13.76167911 -29.26092478 12.58990738 -27.33203125 11.484375 C-26.27435547 10.87335938 -25.21667969 10.26234375 -24.12695312 9.6328125 C-22.48629883 8.70082031 -22.48629883 8.70082031 -20.8125 7.75 C-19.70712891 7.11320312 -18.60175781 6.47640625 -17.46289062 5.8203125 C-6.23618 -0.6341878 -6.23618 -0.6341878 0 0 Z " fill="#000000" transform="translate(452,111)"/>
<path d="M0 0 C3.01025391 1.22167969 3.01025391 1.22167969 5.9765625 2.921875 C7.60078125 3.84226562 7.60078125 3.84226562 9.2578125 4.78125 C10.36898437 5.4309375 11.48015625 6.080625 12.625 6.75 C13.74390625 7.38421875 14.8628125 8.0184375 16.015625 8.671875 C29.07653115 16.15306229 29.07653115 16.15306229 31 20 C31.40820726 23.67386532 31.24841035 25.55286137 29.4375 28.8125 C26.23644936 31.68523776 24.26565019 31.80052515 20 32 C16.80615234 30.81591797 16.80615234 30.81591797 13.5859375 28.9921875 C13.00840729 28.66969025 12.43087708 28.34719299 11.83584595 28.0149231 C10.62255032 27.33255331 9.41426899 26.64119774 8.2109375 25.94140625 C6.38353069 24.87995506 4.5417214 23.84828123 2.6953125 22.8203125 C-2.80477104 19.70511629 -7.8000051 16.83575212 -12 12 C-12.625 8.5 -12.625 8.5 -12 5 C-8.464493 -0.03541906 -5.95288578 -0.5025726 0 0 Z " fill="#000000" transform="translate(67,111)"/>
<path d="M0 0 C2.73783677 1.64270206 2.97687516 2.92121184 3.8828125 6.0078125 C4.04795878 11.63379573 1.81832965 15.00184935 -1 19.75 C-1.5045874 20.63018799 -2.0091748 21.51037598 -2.52905273 22.41723633 C-3.9966383 24.95909921 -5.49114031 27.48246371 -7 30 C-7.38945801 30.65339355 -7.77891602 31.30678711 -8.18017578 31.97998047 C-13.42864866 40.71432433 -13.42864866 40.71432433 -16 42 C-23.0521327 42.56872038 -23.0521327 42.56872038 -26.5 40.5 C-28.56815731 37.05307115 -28.4712167 33.88755176 -28 30 C-26.6105957 26.5690918 -26.6105957 26.5690918 -24.67578125 23.19921875 C-24.3325029 22.59616409 -23.98922455 21.99310944 -23.63554382 21.3717804 C-22.9115597 20.10919312 -22.17914661 18.85140469 -21.4387207 17.59838867 C-20.31194694 15.68656161 -19.21808258 13.75851824 -18.12695312 11.82617188 C-9.82445612 -2.54708122 -9.82445612 -2.54708122 0 0 Z " fill="#000000" transform="translate(372,30)"/>
<path d="M0 0 C4.77985615 4.13141681 7.57203309 9.56838911 10.71044922 14.97070312 C11.74471773 16.74095885 12.8033212 18.49504062 13.86328125 20.25 C20.14669185 31.02156103 20.14669185 31.02156103 19 38 C17.5 40.5 17.5 40.5 15 42 C9.58173077 42.77403846 9.58173077 42.77403846 7 42 C1.44629145 36.97877722 -1.6645037 31.04540462 -5.25 24.5625 C-5.88679687 23.44294922 -6.52359375 22.32339844 -7.1796875 21.16992188 C-7.78554687 20.08388672 -8.39140625 18.99785156 -9.015625 17.87890625 C-9.56508789 16.8947876 -10.11455078 15.91066895 -10.68066406 14.89672852 C-12.06695832 11.85298659 -12.7161621 9.32698569 -13 6 C-11.76356597 3.13667909 -10.66847461 1.50711867 -8.1875 -0.375 C-5.08685996 -1.26089715 -3.08383471 -0.89945179 0 0 Z " fill="#000000" transform="translate(149,30)"/>
<path d="M0 0 C2.96991701 0.60983922 4.20486489 1.94625545 5.90234375 4.390625 C7.70725323 9.7021512 7.12683838 15.58944413 7.14257812 21.12524414 C7.15226385 23.18612342 7.18330453 25.24599587 7.21484375 27.30664062 C7.26515562 40.11730107 7.26515562 40.11730107 3.90234375 45.390625 C0.58984375 47.015625 0.58984375 47.015625 -3.09765625 47.390625 C-8.62038352 45.34517045 -8.62038352 45.34517045 -10.09765625 42.390625 C-10.23323682 39.59336401 -10.31036096 36.82221169 -10.3359375 34.0234375 C-10.34400925 33.19230438 -10.35208099 32.36117126 -10.36039734 31.50485229 C-10.37423696 29.74462978 -10.38495967 27.98438045 -10.39282227 26.22412109 C-10.41004498 23.5330117 -10.45393162 20.84312781 -10.49804688 18.15234375 C-10.50817302 16.44271737 -10.51668937 14.73308055 -10.5234375 13.0234375 C-10.54094559 12.21915314 -10.55845367 11.41486877 -10.57649231 10.58621216 C-10.56231888 6.93317529 -10.43797662 4.83917153 -8.19604492 1.88427734 C-5.28952126 -0.18461292 -3.46507652 -0.18067438 0 0 Z " fill="#000000" transform="translate(258.09765625,-0.390625)"/>
<path d="M0 0 C31.35 0 62.7 0 95 0 C95 18.47368421 95 18.47368421 91 23 C86.34986024 25.86193659 82.85339874 26.36794646 77.43408203 26.34057617 C76.70168808 26.34101425 75.96929413 26.34145233 75.21470642 26.34190369 C72.81213007 26.33982627 70.4102658 26.3165458 68.0078125 26.29296875 C66.33487326 26.28736905 64.66192908 26.28310072 62.98898315 26.28010559 C58.59946966 26.26868625 54.21025698 26.23924438 49.82086182 26.20599365 C45.3363451 26.1752298 40.85177947 26.16158679 36.3671875 26.14648438 C27.57798741 26.11437166 18.7890312 26.06321085 10 26 C10 25.67 10 25.34 10 25 C31.78 24.67 53.56 24.34 76 24 C78.83562902 16.35969118 78.83562902 16.35969118 79 1 C53.26 1 27.52 1 1 1 C1 5.95 1 10.9 1 16 C0.67 16 0.34 16 0 16 C0 10.72 0 5.44 0 0 Z " fill="#939396" transform="translate(209,429)"/>
<path d="M0 0 C5.28 0 10.56 0 16 0 C16.0825 2.51625 16.165 5.0325 16.25 7.625 C16.28641602 8.40568848 16.32283203 9.18637695 16.36035156 9.99072266 C16.44101837 15.11566727 15.39039991 17.95760011 12 22 C9.62756606 24.33812188 8.53510817 24.94394817 5.203125 25.29296875 C4.22859375 25.25816406 3.2540625 25.22335937 2.25 25.1875 C0.77273438 25.14689453 0.77273438 25.14689453 -0.734375 25.10546875 C-1.48203125 25.07066406 -2.2296875 25.03585937 -3 25 C-2.68289063 24.21367187 -2.36578125 23.42734375 -2.0390625 22.6171875 C-0.73699679 18.08443243 -0.54459803 13.81721222 -0.375 9.125 C-0.33632813 8.24585938 -0.29765625 7.36671875 -0.2578125 6.4609375 C-0.16418966 4.30761207 -0.08103541 2.15383586 0 0 Z " fill="#B0B0B4" transform="translate(308,388)"/>
</svg>
