<?xml version="1.0" encoding="UTF-8"?>
<svg xmlns="http://www.w3.org/2000/svg" xmlns:xlink="http://www.w3.org/1999/xlink" viewBox="0 0 500 500" width="500px" height="500px">
<g id="surface17904816">
<path style=" stroke:none;fill-rule:nonzero;fill:rgb(18.039216%,80.000001%,44.313726%);fill-opacity:1;" d="M 26.09375 146.289062 C 21.941406 146.636719 18.316406 149.976562 23.496094 155.566406 C 33.445312 161.1875 13.683594 165.320312 19.453125 169.082031 C 21.292969 173.042969 19.304688 177.453125 13.925781 178.164062 C 6.046875 178.84375 6.792969 189.605469 14.472656 183.964844 C 23.042969 181.246094 15.953125 185.039062 11.914062 185.820312 C 2.84375 188.460938 -3.335938 197.519531 1.933594 205.800781 C 6.972656 217.199219 8.316406 229.917969 12.226562 241.777344 C 18.695312 260.015625 28.148438 277.375 40.429688 292.363281 C 46.257812 300.863281 54.78125 306.902344 62.792969 313.203125 C 70.671875 318.3125 79.449219 323.425781 88.417969 326.035156 C 104.347656 331.863281 121.445312 332.410156 138.183594 333.730469 C 148.382812 333.710938 158.621094 332.992188 168.691406 331.191406 C 177.75 332.171875 184.269531 324.425781 192.460938 328.515625 C 197.421875 324.117188 204.648438 326.03125 209.609375 322.832031 C 213.28125 310.351562 197.003906 320.359375 191.855469 314.257812 C 186.253906 320.835938 181.554688 313.535156 174.765625 315.585938 C 163.207031 316.164062 175.640625 310.40625 175.351562 305.117188 C 169.222656 300.417969 162.300781 311.570312 158.378906 314.570312 C 148.699219 312.820312 139.113281 310.070312 130.234375 305.878906 C 120.113281 300.609375 110.179688 294.339844 102.851562 285.449219 C 95.179688 276.371094 86.703125 267.1875 83.203125 255.527344 C 75.804688 236.277344 76.285156 215.433594 74.394531 195.214844 C 75.09375 181.523438 89.550781 196.6875 95.800781 191.738281 C 93.660156 184.636719 82.257812 182.390625 75.957031 179.550781 C 69.878906 179.128906 67.660156 173.683594 61.191406 173.242188 C 61.5 165.640625 49.304688 169.824219 44.863281 164.414062 C 49.234375 153.132812 30.386719 164.683594 31.855469 154.921875 C 34.925781 148.578125 30.246094 145.941406 26.09375 146.289062 Z M 26.152344 147.246094 C 27.136719 147 28.273438 147.199219 29.414062 148.105469 C 34.835938 155.40625 19.445312 147.269531 24.785156 154.238281 C 21.539062 152.714844 23.195312 147.984375 26.152344 147.246094 Z M 419.140625 150.859375 C 418.46875 150.859375 416.714844 151.773438 413.886719 153.632812 C 410.386719 155.894531 406.691406 157.675781 402.832031 158.964844 C 400.410156 159.792969 399.21875 160.953125 399.21875 162.441406 C 399.21875 163.472656 400.058594 164.273438 401.757812 164.84375 C 405.367188 166.035156 407.738281 167.675781 408.867188 169.785156 C 409.695312 171.433594 410.117188 174.363281 410.117188 178.59375 L 410.117188 246.152344 C 410.117188 252.074219 408.6875 255.394531 405.859375 256.113281 C 402.710938 256.933594 401.132812 258.144531 401.132812 259.746094 C 401.132812 260.417969 401.1875 260.949219 401.289062 261.308594 C 401.539062 262.339844 403.21875 262.722656 406.308594 262.460938 C 418.578125 261.480469 427.292969 261.238281 432.441406 261.699219 C 434.089844 261.859375 435.097656 261.785156 435.488281 261.503906 C 435.878906 261.222656 436.074219 260.488281 436.074219 259.296875 C 436.074219 257.796875 434.863281 256.890625 432.441406 256.582031 C 428.519531 256.171875 426.019531 255.601562 424.941406 254.882812 C 423.402344 253.851562 422.5625 251.699219 422.460938 248.398438 C 422.359375 245.097656 422.324219 242.570312 422.324219 240.820312 C 422.324219 238.351562 423.535156 236.4375 425.957031 235.097656 C 428.117188 233.546875 429.628906 232.773438 430.507812 232.773438 C 431.226562 232.773438 431.824219 233.203125 432.285156 234.023438 C 437.957031 243.613281 444.867188 252.78125 453.007812 261.542969 C 454.238281 262.832031 456.308594 263.1875 459.199219 262.617188 C 465.027344 262.15625 469.730469 261.90625 473.339844 261.855469 C 475.761719 261.753906 476.972656 260.785156 476.972656 258.984375 C 476.972656 257.542969 476.683594 256.65625 476.113281 256.328125 C 475.542969 256 474.089844 255.820312 471.71875 255.820312 C 468.527344 255.820312 465.085938 254.253906 461.425781 251.113281 C 455.707031 246.125 449.625 238.714844 443.183594 228.925781 C 441.433594 226.195312 440.566406 224.46875 440.566406 223.75 C 440.566406 223.289062 440.761719 222.90625 441.171875 222.597656 C 446.730469 217.039062 451.976562 213.136719 456.875 210.917969 C 460.386719 209.269531 464.117188 208.351562 468.085938 208.203125 C 470.617188 208.054688 471.875 207.101562 471.875 205.351562 C 471.875 203.492188 471.074219 202.53125 469.472656 202.480469 C 464.582031 202.480469 459.65625 202.453125 454.707031 202.402344 C 447.597656 202.351562 442.1875 202.082031 438.476562 201.5625 C 436.828125 201.300781 435.910156 202.085938 435.761719 203.886719 C 435.660156 205.6875 436.519531 206.683594 438.320312 206.894531 C 442.492188 207.464844 444.570312 208.433594 444.570312 209.824219 C 444.570312 210.59375 443.953125 211.640625 442.714844 212.929688 C 436.476562 218.339844 431.234375 222.703125 426.953125 226.054688 C 425.351562 227.394531 424.167969 228.066406 423.398438 228.066406 C 422.679688 228.066406 422.304688 227.394531 422.304688 226.054688 L 422.167969 177.675781 C 422.167969 171.335938 422.195312 166.28125 422.246094 162.519531 C 422.296875 157.058594 422.324219 154.503906 422.324219 154.863281 C 422.324219 152.183594 421.25 150.859375 419.140625 150.859375 Z M 242.675781 151.40625 C 241.855469 151.40625 239.886719 152.320312 236.796875 154.179688 C 233.035156 156.550781 229.398438 158.304688 225.898438 159.433594 C 223.578125 160.203125 222.421875 161.378906 222.421875 162.929688 C 222.421875 163.960938 223.222656 164.742188 224.824219 165.3125 C 227.863281 166.390625 229.980469 167.921875 231.191406 169.882812 C 232.402344 171.84375 233.027344 174.910156 233.027344 179.082031 L 233.027344 249.023438 C 233.027344 253.242188 231.617188 255.789062 228.808594 256.640625 C 226 257.492188 224.609375 258.527344 224.609375 259.765625 C 224.609375 261.15625 224.84375 262.015625 225.332031 262.324219 C 225.820312 262.625 227.128906 262.671875 229.238281 262.460938 C 239.757812 261.582031 248.554688 261.496094 255.664062 262.167969 C 257.984375 262.417969 259.140625 261.511719 259.140625 259.453125 C 259.140625 257.964844 257.992188 257.085938 255.664062 256.835938 C 251.902344 256.375 249.246094 255.425781 247.695312 254.003906 C 246.144531 252.582031 245.371094 250.308594 245.371094 247.167969 L 245.078125 178.144531 C 245.019531 173.203125 245.066406 168.167969 245.214844 163.066406 C 245.425781 157.707031 245.527344 155.121094 245.527344 155.332031 C 245.527344 152.703125 244.585938 151.40625 242.675781 151.40625 Z M 139.882812 159.53125 C 139.3125 159.632812 138.914062 160.171875 138.652344 161.152344 C 138.140625 162.753906 138.917969 164.011719 140.976562 164.941406 C 144.265625 166.441406 146.523438 168.113281 147.734375 169.941406 C 148.945312 171.769531 149.550781 174.394531 149.550781 177.792969 L 149.550781 243.964844 C 149.550781 252.265625 147.023438 256.695312 141.972656 257.265625 C 139.761719 257.476562 138.652344 258.230469 138.652344 259.570312 C 138.652344 261.691406 139.753906 262.59375 141.972656 262.285156 C 149.902344 261.207031 159.976562 261.167969 172.1875 262.148438 C 176.40625 262.507812 178.675781 261.835938 178.984375 260.136719 C 179.292969 258.1875 178.183594 257.078125 175.664062 256.816406 C 170.722656 256.195312 167.503906 255.496094 166.015625 254.726562 C 164.105469 253.796875 163.144531 252.03125 163.144531 249.453125 L 163.144531 214.6875 C 163.144531 214.027344 163.601562 213.671875 164.53125 213.671875 C 172.722656 213.671875 178.65625 213.894531 182.285156 214.335938 C 185.914062 214.777344 188.40625 218.226562 189.746094 224.667969 C 190.117188 226.367188 191 227.121094 192.441406 226.972656 C 194.191406 226.871094 195.050781 226.164062 195 224.824219 C 194.480469 213.59375 194.945312 204.472656 196.386719 197.460938 C 196.648438 196.222656 195.890625 195.417969 194.140625 195.058594 C 192.082031 194.597656 190.886719 195.402344 190.527344 197.460938 C 189.957031 201.230469 189.378906 203.554688 188.789062 204.453125 C 188.199219 205.351562 187.03125 205.902344 185.332031 206.113281 C 176.621094 206.683594 169.980469 207 165.390625 207.050781 C 163.902344 207.101562 163.164062 206.542969 163.164062 205.351562 L 163.164062 170.332031 C 163.164062 169.140625 163.40625 168.367188 163.925781 168.007812 C 164.753906 167.4375 166.519531 167.167969 169.199219 167.167969 C 180.898438 167.167969 188.191406 167.390625 191.132812 167.851562 C 193.863281 168.210938 196.066406 169.285156 197.714844 171.035156 C 199.113281 172.523438 200.578125 175.144531 202.128906 178.90625 C 202.6875 180.296875 203.695312 180.996094 205.136719 180.996094 C 206.578125 180.996094 207.285156 180.195312 207.285156 178.59375 C 207.484375 170.453125 208.027344 164.660156 208.90625 161.210938 C 208.957031 161 208.984375 160.808594 209.003906 160.546875 C 209.003906 159.777344 207.277344 159.476562 203.828125 159.6875 C 193.46875 160.308594 181.171875 160.625 166.953125 160.625 C 154.894531 160.625 147.234375 160.363281 143.984375 159.84375 C 141.765625 159.484375 140.402344 159.382812 139.882812 159.53125 Z M 37.910156 161.367188 C 39.289062 161.660156 39.765625 162.484375 35.976562 162.988281 L 34.453125 162.910156 C 34.253906 161.316406 36.53125 161.074219 37.910156 161.367188 Z M 36.386719 166.699219 C 39.125 167.898438 44.742188 168.453125 45.664062 171.464844 C 40.054688 168.542969 46.78125 174.984375 42.070312 174.863281 C 39.53125 174.894531 34.828125 169.4375 36.386719 166.699219 Z M 34.980469 171.230469 C 41.332031 176.058594 31.441406 171.226562 27.421875 174.257812 C 21.09375 174.898438 34.359375 170.691406 34.980469 171.230469 Z M 51.757812 174.121094 C 52.566406 174.34375 52.566406 175.109375 51.230469 176.71875 C 56.152344 182.597656 52.335938 180.617188 48.984375 176.445312 C 51.925781 178.476562 49.65625 187.242188 45.136719 181.210938 C 41.9375 175.25 39.910156 179.28125 43.300781 183.359375 C 39.972656 177.089844 30.332031 179.769531 23.28125 182.167969 C 18.730469 181.667969 35.105469 178.28125 36.875 177.480469 C 39.613281 177.53125 49.328125 173.449219 51.757812 174.121094 Z M 71.484375 180.761719 C 73.496094 180.734375 75.480469 180.8125 77.441406 180.976562 C 80.589844 184.648438 75.058594 190.859375 69.296875 191.269531 C 62.296875 193.890625 55.171875 194.53125 48.671875 195.390625 C 40.332031 194.339844 34.34375 201.84375 25.703125 202.792969 C 28.003906 198.53125 23.8125 201.324219 19.433594 201.113281 C 21.664062 209.714844 4.003906 198.828125 14.433594 196.757812 C 6.613281 193.976562 6.503906 202.195312 7.324219 206.875 L 6.796875 206.875 C -0.363281 197.65625 7.601562 193.894531 16.660156 192.714844 C 14.941406 196.964844 19.132812 198.332031 23.164062 199.101562 C 29.695312 197.300781 18.867188 196.144531 23.808594 194.433594 C 26.519531 193.933594 15.167969 191.71875 24.628906 190.449219 C 34.328125 188.820312 43.054688 185.007812 52.675781 183.007812 C 59.1875 181.71875 65.449219 180.839844 71.484375 180.761719 Z M 69.335938 182.949219 C 68.480469 182.683594 66.488281 183.21875 65.46875 185.898438 C 66.207031 187.589844 66.574219 185.402344 66.425781 184.824219 C 69.921875 184.289062 70.191406 183.214844 69.335938 182.949219 Z M 49.160156 186.542969 C 46.363281 186.414062 41.777344 187.019531 40.15625 188.964844 C 42.214844 189.90625 44.480469 186.363281 47.441406 188.59375 C 52.964844 187.542969 51.957031 186.671875 49.160156 186.542969 Z M 89.121094 187.050781 C 90.519531 186.824219 94.851562 188.441406 93.320312 191.152344 C 92.269531 191.453125 92.449219 189.871094 91.679688 189.609375 C 88.507812 187.992188 88.28125 187.1875 89.121094 187.050781 Z M 34.863281 190.800781 C 34.132812 190.800781 33.546875 191.132812 33.476562 192.03125 L 34.882812 193.320312 C 40.5 193.777344 37.058594 190.804688 34.863281 190.800781 Z M 31.71875 193.378906 C 30.675781 193.226562 29.710938 193.804688 29.179688 195.761719 C 30.160156 195.523438 31.714844 196.085938 32.65625 196.796875 C 38.582031 200.847656 34.847656 193.835938 31.71875 193.378906 Z M 69.824219 194.335938 C 75.023438 193.316406 73.507812 206.777344 71.835938 210.917969 C 74.984375 208.769531 74.378906 220.910156 73.359375 225.429688 C 75.078125 223.121094 75.789062 229.167969 73.867188 233.4375 C 74.027344 232.738281 78.027344 232.128906 75.078125 237.1875 C 72.828125 232.226562 71.851562 247.277344 73.300781 240.527344 C 77.269531 234.148438 76.230469 240.1875 77.441406 243.007812 C 78.222656 248.859375 80.832031 254.253906 81.621094 259.433594 C 85.292969 263.132812 80.058594 260.625 80.078125 265.625 C 81.269531 264.175781 86.125 267.660156 86.09375 272.851562 C 86.492188 264.621094 86.964844 270.925781 90.976562 273.066406 C 94.328125 278.464844 96.835938 283.519531 101.835938 287.96875 C 105.734375 292.480469 101.589844 289.308594 103.28125 292.070312 C 107.421875 299.410156 117.011719 303.664062 125.3125 305.585938 C 128.953125 310.324219 134.417969 315.039062 141.816406 312.890625 C 135.554688 316.75 159.445312 317.800781 151.367188 319.980469 C 147.167969 322.261719 143.183594 318.511719 139.082031 318.710938 C 133.382812 316.75 124.371094 310.746094 118.261719 314.824219 C 109.8125 320.113281 122.59375 308.925781 115.742188 313.925781 C 108.800781 322.253906 111.027344 308.742188 104.257812 312.792969 C 103.867188 311.503906 98.238281 311.148438 102.5 308.867188 C 98.679688 308.628906 101.0625 308.382812 102.441406 305.332031 C 100.800781 304.992188 91.683594 305.3125 88.105469 302.324219 C 83.886719 296.835938 88.84375 299.0625 93.242188 299.863281 C 86.183594 301.101562 95.671875 305.160156 100.390625 302.910156 C 98.269531 302.011719 95.84375 297.429688 90.234375 293.417969 C 82.394531 288.699219 75.941406 286.445312 67.8125 282.675781 C 59.011719 277.457031 69.78125 280.824219 72.832031 283.574219 C 81.613281 287.445312 78.15625 278.144531 73.066406 275.722656 C 67.488281 275.953125 66.050781 269.542969 61.582031 269.902344 C 68.640625 271.03125 73.542969 268.078125 65.683594 260.976562 C 58.214844 252.257812 68.804688 267.554688 64.453125 265.585938 C 62.472656 262.976562 63.957031 259.222656 57.636719 257.871094 C 57.566406 260.28125 56.769531 264.015625 55.390625 258.945312 C 53.628906 259.246094 51.617188 261.175781 50.175781 255.957031 C 51.535156 250.027344 44.304688 248.671875 43.183594 244.882812 C 49.433594 248.871094 52.261719 245.726562 47.832031 241.367188 C 44.78125 236.039062 44.355469 240.21875 42.65625 240.957031 C 36.527344 247.21875 42.09375 230.15625 39.375 235.078125 C 36.636719 235 38.210938 238.09375 38.261719 241.933594 C 29.300781 239.714844 40.4375 246.648438 43.027344 250.46875 C 38.9375 246.1875 39.632812 253.675781 36.210938 250.117188 C 35.050781 246.96875 34.890625 241.992188 29.199219 241.113281 C 35.667969 238.875 25.351562 234.320312 26.210938 234.082031 C 29.910156 230.710938 30.382812 226.082031 34.84375 233.320312 C 29.195312 232.859375 34.683594 242.648438 36.074219 239.726562 C 35.855469 234.714844 38.382812 229.457031 29.84375 227.148438 C 27.332031 230.527344 23.007812 220.527344 28.027344 222.636719 C 27.367188 215.996094 35.8125 219.910156 35.273438 217.03125 C 39.632812 215.121094 29.996094 208.953125 35.195312 206.484375 C 39.175781 208.90625 49.5 202.675781 42.558594 201.816406 C 46.898438 201.777344 50.378906 203.675781 50.839844 199.277344 C 54.351562 200.039062 63.84375 203.0625 55.214844 198.300781 C 57.976562 196.929688 63.808594 195.773438 67.167969 195.722656 C 68.203125 194.917969 69.082031 194.480469 69.824219 194.335938 Z M 366.210938 199.921875 C 359.570312 199.921875 354.261719 201.40625 350.292969 204.394531 C 346.011719 207.496094 343.886719 211.8125 343.886719 217.382812 C 343.886719 221.914062 345.257812 225.523438 347.988281 228.203125 C 350.507812 230.722656 355.527344 233.660156 363.046875 237.011719 C 368.246094 239.28125 371.753906 241.269531 373.554688 242.96875 C 375.203125 244.46875 376.035156 246.316406 376.035156 248.535156 C 376.035156 253.585938 372.40625 256.113281 365.136719 256.113281 C 356.527344 256.113281 350.285156 252.746094 346.425781 245.996094 C 345.546875 244.507812 344.480469 243.835938 343.242188 243.984375 C 342.003906 244.085938 341.386719 245.492188 341.386719 248.222656 C 341.386719 254.5625 341.601562 258.109375 342.011719 258.828125 C 342.683594 259.597656 345.105469 260.4375 349.277344 261.367188 C 354.117188 262.398438 358.96875 262.929688 363.808594 262.929688 C 371.078125 262.929688 376.816406 261.304688 381.015625 258.085938 C 385.214844 254.867188 387.304688 250.539062 387.304688 245.078125 C 387.304688 240.136719 385.765625 236.191406 382.695312 233.222656 C 380.324219 230.960938 375.839844 228.394531 369.238281 225.566406 C 362.949219 222.835938 358.964844 220.820312 357.265625 219.53125 C 355.355469 218.03125 354.394531 216.046875 354.394531 213.515625 C 354.394531 208.984375 357.921875 206.71875 364.980469 206.71875 C 371.21875 206.71875 376.378906 210.03125 380.449219 216.679688 C 381.019531 217.609375 382.148438 217.898438 383.847656 217.539062 C 385.4375 217.128906 386.164062 216.589844 386.015625 215.917969 C 384.726562 210.457031 383.867188 206.289062 383.457031 203.398438 C 383.296875 202.417969 381.367188 201.589844 377.65625 200.917969 C 374.207031 200.257812 370.382812 199.921875 366.210938 199.921875 Z M 301.875 200.234375 C 295.796875 200.234375 289.472656 201.980469 282.871094 205.429688 C 276.582031 208.730469 273.4375 211.613281 273.4375 214.082031 C 273.4375 218.042969 275.554688 219.824219 279.785156 219.414062 C 283.496094 219.105469 286.339844 216.957031 288.320312 212.988281 C 290.300781 209.019531 292.410156 207.03125 294.628906 207.03125 C 302.410156 207.03125 306.128906 211.277344 305.820312 219.726562 L 305.683594 224.667969 C 305.632812 226.828125 303.851562 228.253906 300.351562 228.925781 C 279.941406 232.796875 269.746094 239.175781 269.746094 248.085938 C 269.746094 252.777344 271.285156 256.488281 274.375 259.21875 C 277.203125 261.6875 280.730469 262.929688 284.960938 262.929688 C 289.441406 262.929688 293.910156 261.875 298.339844 259.765625 C 302.769531 257.65625 305.222656 256.582031 305.683594 256.582031 C 306.304688 256.582031 307.375 257.570312 308.925781 259.53125 C 310.464844 261.492188 312.246094 262.460938 314.257812 262.460938 C 316.628906 262.460938 319.789062 261.371094 323.730469 259.179688 C 327.671875 256.988281 329.648438 255.355469 329.648438 254.277344 C 329.648438 252.265625 328.894531 251.261719 327.382812 251.25 C 327.121094 251.25 326.210938 251.378906 324.609375 251.640625 C 323.007812 251.902344 321.9375 252.03125 321.367188 252.03125 C 318.488281 252.03125 317.058594 250.363281 317.109375 247.011719 L 317.421875 215.15625 C 317.523438 205.207031 312.335938 200.234375 301.875 200.234375 Z M 69.257812 202.597656 C 67.941406 202.972656 65.886719 209.964844 67.304688 212.460938 C 70.425781 217.429688 73.546875 200.246094 70.976562 206.015625 C 69.597656 213.367188 68.1875 210.292969 70.175781 204.824219 C 70.054688 203.066406 69.695312 202.472656 69.257812 202.597656 Z M 25.351562 209.101562 C 25.847656 209.078125 26.722656 209.117188 28.066406 209.257812 C 35.007812 209.019531 32.777344 213.109375 28.828125 213.378906 C 28.738281 213.640625 25.210938 212.53125 26.679688 211.5625 C 36.199219 212.769531 21.871094 209.257812 25.351562 209.101562 Z M 42.832031 211.523438 C 43.410156 212.820312 44.390625 215.261719 43.652344 216.347656 C 45.601562 218.277344 52.265625 221.710938 46.914062 216.992188 C 50.324219 216.3125 46.464844 215.234375 44.433594 213.613281 C 42.078125 210.078125 42.253906 210.226562 42.832031 211.523438 Z M 20.195312 211.699219 C 21.769531 211.636719 23.386719 212.445312 20.332031 214.316406 C 17.085938 212.691406 18.621094 211.761719 20.195312 211.699219 Z M 64.589844 216.25 C 64.488281 216.105469 64.4375 216.234375 64.550781 216.933594 C 65.726562 219.574219 64.894531 216.679688 64.589844 216.25 Z M 40.9375 218.886719 C 41.859375 220.214844 44.347656 219.628906 45.507812 220.917969 C 55.988281 225.257812 44.566406 218.105469 40.9375 218.886719 Z M 39.296875 219.707031 C 38.78125 219.824219 38.875 220.507812 40.019531 222.089844 C 40.738281 223.71875 42.476562 223.859375 43.925781 224.238281 C 55.171875 229.421875 41.53125 219.199219 39.296875 219.707031 Z M 19.941406 220.585938 C 21.648438 220.863281 23.707031 221.785156 21.445312 222.675781 L 20.527344 222.324219 C 16.871094 220.660156 18.234375 220.308594 19.941406 220.585938 Z M 35.839844 221.953125 C 35.328125 221.980469 35.765625 222.75 38.144531 224.863281 L 39.6875 226.445312 C 47.488281 228.582031 37.375 221.871094 35.839844 221.953125 Z M 34.785156 224.042969 C 34.382812 224.03125 38 227.898438 36.328125 227.832031 C 30.539062 223.601562 32.902344 226.59375 36.171875 229.84375 C 39.722656 235.113281 42.65625 226.703125 36.875 225.644531 C 35.5 224.488281 34.917969 224.046875 34.785156 224.042969 Z M 59.355469 229.550781 C 59.28125 229.792969 59.269531 230.609375 59.414062 232.382812 C 60.382812 233.261719 59.578125 228.828125 59.355469 229.550781 Z M 64.472656 230 C 63.226562 230.007812 62.289062 238.851562 65.371094 240.703125 C 66.640625 244.351562 67.996094 242.851562 68.457031 238.710938 C 65.476562 238.769531 69.683594 232.226562 65.683594 233.515625 C 65.332031 230.96875 64.886719 229.996094 64.472656 230 Z M 73.085938 230.195312 C 72.863281 229.699219 72.324219 230.785156 72.128906 234.414062 L 72.128906 235.449219 C 73.207031 232.765625 73.308594 230.691406 73.085938 230.195312 Z M 14.6875 230.488281 C 15.476562 230.296875 19.984375 239.421875 19.375 241.933594 C 16.613281 240.972656 16.75 236.65625 15.46875 234.375 C 14.582031 231.652344 14.425781 230.550781 14.6875 230.488281 Z M 47.597656 230.9375 C 46.867188 232.96875 49.148438 239.625 50.527344 241.894531 C 54.046875 247.304688 52.46875 238.9375 56.328125 244.335938 C 54.207031 239.597656 57.324219 242.175781 56.875 240.15625 C 55.894531 238.117188 46.402344 227.320312 50.722656 235.46875 C 54.632812 245.1875 48.269531 234.246094 47.597656 230.9375 Z M 12.832031 232.519531 C 13.890625 233.199219 16.722656 237.808594 17.246094 240.371094 C 21.695312 245.730469 19.941406 248.683594 24.550781 255.253906 C 18.621094 251.515625 17.5 242.585938 13.730469 236.816406 C 12.1875 233.113281 12.199219 232.109375 12.832031 232.519531 Z M 303.710938 233.730469 C 304.21875 233.769531 304.621094 233.898438 304.941406 234.101562 C 305.589844 234.511719 305.890625 235.351562 305.839844 236.640625 L 305.683594 249.335938 C 305.683594 250.9375 304.089844 252.308594 300.898438 253.4375 C 298.167969 254.417969 295.507812 254.902344 292.929688 254.902344 C 286.488281 254.902344 283.261719 251.945312 283.261719 246.015625 C 283.261719 240.136719 289.472656 236.085938 301.894531 233.867188 C 302.589844 233.738281 303.203125 233.691406 303.710938 233.730469 Z M 45.566406 249.316406 C 47.953125 250.066406 46.511719 257.867188 50.097656 258.925781 C 58.109375 269.375 44.550781 259.234375 40.019531 258.222656 C 40.597656 258.191406 36 256.914062 37.988281 256.464844 C 36.539062 254.976562 33.292969 249.5625 40.703125 253.183594 C 46.59375 256.132812 47.085938 254.144531 44.277344 249.453125 C 44.800781 249.230469 45.226562 249.210938 45.566406 249.316406 Z M 18.535156 250.839844 C 18.734375 249.84375 22.8125 256.402344 23.554688 259.140625 C 25.792969 266.269531 32.804688 270.378906 33.515625 275.097656 C 41.285156 279.578125 37.296875 286.886719 43.828125 288.945312 C 46.726562 287.476562 47.011719 297.746094 53.183594 295.605469 C 49.753906 297.214844 54.628906 299.121094 56.347656 302.109375 C 60.238281 301.578125 68.761719 310.679688 60.273438 307.539062 C 56.695312 306.777344 54.25 303.054688 51.71875 300.625 C 44.207031 295.855469 39.335938 287.875 35.214844 280.234375 C 29.90625 272.203125 23.511719 264.175781 19.882812 254.785156 C 18.816406 252.347656 18.46875 251.171875 18.535156 250.839844 Z M 78.203125 256.875 C 77.808594 257.078125 77.785156 258.265625 78.945312 260.859375 L 79.628906 261.972656 C 80.574219 258.902344 78.863281 256.535156 78.203125 256.875 Z M 51.191406 266.054688 C 53.402344 266.535156 56.726562 267.722656 58.066406 267.988281 C 58.4375 269.578125 50.492188 269.332031 57.441406 272.441406 C 53.390625 272.332031 52.167969 272.027344 57.949219 275.566406 C 55.679688 277.386719 62.527344 278.832031 60.175781 281.5625 C 67.144531 287.003906 58.917969 282.941406 55.9375 280.722656 C 54.175781 279.503906 47.003906 277.078125 48.125 275.488281 C 56.585938 279.929688 50.273438 275.292969 46.542969 272.34375 C 53.363281 274.015625 41.078125 267.292969 47.578125 269.0625 C 49.507812 269.53125 44.65625 265.082031 51.015625 268.320312 C 47.886719 265.789062 48.980469 265.574219 51.191406 266.054688 Z M 93.613281 283.105469 C 92.742188 282.796875 93.605469 286.171875 95.546875 288.203125 C 99.6875 293.132812 96.539062 285.402344 95.097656 284.824219 C 94.398438 283.722656 93.902344 283.207031 93.613281 283.105469 Z M 57.089844 287.949219 C 59.394531 287.972656 63.164062 289.015625 65.488281 290.253906 C 75.6875 292.523438 63.316406 295.257812 59.238281 292.128906 L 57.519531 291.757812 C 53.953125 288.929688 54.785156 287.925781 57.089844 287.949219 Z M 69.277344 289.023438 C 70.125 288.84375 73.980469 290.429688 75.625 291.953125 C 80.515625 292.613281 80.535156 294.847656 75.136719 293.457031 C 74.175781 292.867188 72.628906 292.898438 72.128906 291.660156 C 69.347656 289.882812 68.769531 289.132812 69.277344 289.023438 Z M 75.78125 289.101562 C 77.324219 289.074219 79.847656 289.511719 80.644531 290.683594 C 91.355469 292.402344 79.96875 293.152344 76.796875 290.332031 C 73.683594 289.617188 74.238281 289.128906 75.78125 289.101562 Z M 75.78125 295.136719 C 76.9375 294.878906 84.5 298.003906 79.0625 297.304688 L 77.480469 296.796875 C 75.722656 295.695312 75.394531 295.222656 75.78125 295.136719 Z M 111.816406 296.953125 C 112.152344 297.070312 112.496094 297.378906 112.734375 297.988281 C 109.921875 297.941406 110.804688 296.597656 111.816406 296.953125 Z M 75.820312 299.882812 C 78.015625 300.09375 86.46875 304.710938 78.984375 302.597656 L 77.832031 302.148438 L 76.523438 301.542969 C 75.039062 300.226562 75.089844 299.8125 75.820312 299.882812 Z M 94.003906 312.050781 C 95.019531 311.890625 103.355469 312.644531 96.269531 312.578125 C 94.136719 312.253906 93.664062 312.105469 94.003906 312.050781 Z M 71.835938 313.28125 C 72.4375 313.414062 73.386719 313.707031 74.785156 314.21875 C 83.734375 319.75 94.054688 322.671875 103.613281 326.933594 C 112.011719 328.035156 120.871094 330.257812 129.140625 328.476562 C 136.039062 331.925781 143.195312 327.582031 150.117188 330.703125 C 134.828125 333.683594 119.097656 330.421875 103.867188 328.300781 C 94.265625 327.089844 85.695312 323.105469 76.933594 319.316406 C 75.664062 318.714844 74.460938 317.964844 73.242188 317.265625 C 67.222656 313.925781 67.96875 313.242188 73.828125 316.523438 C 75.898438 318.171875 90.582031 324.183594 83.59375 320.214844 C 80.953125 319.558594 67.632812 312.34375 71.835938 313.28125 Z M 127.5 315.9375 C 128.183594 316.378906 128.207031 317.8125 128.183594 319.628906 C 123.582031 324.707031 126.328125 317.550781 123.476562 320.3125 C 120.847656 322.414062 121.46875 319.0625 122.890625 318.261719 C 125.464844 316.058594 126.816406 315.496094 127.5 315.9375 Z M 165.839844 317.558594 C 169.945312 317.914062 174.644531 318.859375 177.363281 318.925781 C 175.714844 322.394531 165.515625 319.207031 161.035156 320.117188 L 159.101562 320 L 157.910156 319.804688 C 158.226562 317.445312 161.734375 317.203125 165.839844 317.558594 Z M 201.152344 318.671875 C 211.773438 318.660156 201.851562 320.214844 196.972656 320.195312 C 191.433594 318.894531 199.480469 318.933594 201.152344 318.671875 Z M 137.1875 320.058594 C 138.039062 319.960938 138.328125 320.632812 135.917969 322.1875 L 135.039062 322.460938 C 134.917969 321 136.335938 320.15625 137.1875 320.058594 Z M 133.144531 320.683594 C 133.300781 320.925781 132.953125 321.617188 131.601562 323.046875 C 127.671875 323.300781 132.675781 319.957031 133.144531 320.683594 Z M 94.824219 321.777344 C 95.785156 321.535156 106.113281 324.515625 107.441406 324.238281 C 117.972656 328.148438 101.15625 325.511719 97.675781 323.320312 C 95.234375 322.289062 94.503906 321.859375 94.824219 321.777344 Z M 145.703125 322.285156 C 145.726562 322.546875 145.179688 323.164062 143.632812 324.277344 L 142.34375 325.117188 C 140.515625 323.851562 145.632812 321.5 145.703125 322.285156 Z M 145.703125 322.285156 "/>
</g>
</svg>
